{"glyphs":{"0":{"ha":900,"x_min":83,"x_max":817,"o":"m 451 -17 q 263 29 346 -17 q 131 153 179 75 q 83 329 83 232 l 83 643 q 131 819 83 740 q 263 943 179 897 q 451 989 346 989 q 638 943 556 989 q 769 819 721 897 q 817 643 817 740 l 817 329 q 769 153 817 232 q 638 29 721 75 q 451 -17 556 -17 m 451 158 q 535 180 497 158 q 595 238 572 201 q 618 317 618 274 l 618 656 q 595 735 618 700 q 535 792 572 771 q 451 814 497 814 q 367 792 406 814 q 305 735 328 771 q 282 656 282 700 l 282 317 q 305 238 282 274 q 367 180 328 201 q 451 158 406 158 z "},"1":{"ha":667,"x_min":69,"x_max":618,"o":"m 69 0 l 69 175 l 253 175 l 253 797 l 85 797 l 85 972 l 454 972 l 454 175 l 618 175 l 618 0 l 69 0 z "},"2":{"ha":778,"x_min":49,"x_max":722,"o":"m 233 0 q 136 24 178 0 q 72 89 94 49 q 49 179 49 129 q 73 271 49 226 q 136 343 97 315 l 435 557 q 481 610 465 579 q 496 674 496 640 q 479 740 496 713 q 432 782 463 767 q 358 797 401 797 l 101 797 l 101 972 l 382 972 q 547 932 478 972 q 655 824 617 892 q 693 674 693 757 q 660 527 693 590 q 554 414 628 464 l 256 211 q 249 205 253 210 q 244 193 244 200 q 250 179 244 183 q 265 175 256 175 l 722 175 l 722 0 l 233 0 z "},"3":{"ha":792,"x_min":69,"x_max":715,"o":"m 69 0 l 69 175 l 401 175 q 460 190 433 175 q 501 232 486 206 q 517 290 517 258 q 501 349 517 322 q 460 391 486 375 q 401 407 433 407 l 117 407 l 117 582 l 410 582 q 464 597 440 582 q 502 635 488 611 q 517 689 517 660 q 502 744 517 719 q 464 783 488 768 q 410 797 440 797 l 69 797 l 69 972 l 432 972 q 575 934 511 972 q 677 832 639 896 q 715 689 715 768 q 690 581 715 632 q 622 490 665 529 q 672 433 651 465 q 704 365 693 401 q 715 290 715 329 q 676 144 715 210 q 572 39 638 78 q 425 0 506 0 l 69 0 z "},"4":{"ha":896,"x_min":54,"x_max":840,"o":"m 517 0 l 517 207 l 249 207 q 151 232 196 207 q 81 299 107 257 q 54 390 54 340 q 61 446 54 418 q 79 496 68 474 l 332 972 l 556 972 l 260 425 q 254 413 256 417 q 253 401 253 408 q 258 388 253 393 q 274 382 264 382 l 517 382 l 517 710 l 715 710 l 715 382 l 840 382 l 840 207 l 715 207 l 715 0 l 517 0 z "},"5":{"ha":765,"x_min":49,"x_max":703,"o":"m 49 0 l 49 175 l 360 175 q 433 194 400 175 q 486 247 467 214 q 506 321 506 281 q 486 394 506 361 q 433 446 467 426 q 360 465 400 465 l 79 465 l 79 972 l 639 972 l 639 797 l 269 797 l 269 636 l 385 636 q 544 593 472 636 q 660 478 617 550 q 703 318 703 406 q 660 158 703 231 q 544 43 617 86 q 385 0 472 0 l 49 0 z "},"6":{"ha":878,"x_min":64,"x_max":814,"o":"m 439 -17 q 238 28 322 -17 q 109 147 154 72 q 64 313 64 221 q 99 492 64 407 q 192 663 133 576 l 399 972 l 632 972 l 406 629 q 442 635 424 633 q 478 636 460 636 q 653 594 578 636 q 772 478 729 551 q 814 313 814 406 q 769 147 814 222 q 640 28 724 72 q 439 -17 557 -17 m 439 158 q 537 179 497 158 q 596 235 576 200 q 615 313 615 271 q 596 390 615 354 q 537 446 576 425 q 439 467 497 467 q 342 446 381 467 q 283 390 303 425 q 263 313 263 354 q 283 235 263 271 q 342 179 303 200 q 439 158 381 158 z "},"7":{"ha":744,"x_min":35,"x_max":697,"o":"m 85 0 l 492 754 q 499 778 499 768 q 493 792 499 786 q 478 797 488 797 l 35 797 l 35 972 l 503 972 q 601 947 557 972 q 671 881 644 922 q 697 789 697 840 q 690 734 697 761 q 672 683 683 707 l 310 0 l 85 0 z "},"8":{"ha":908,"x_min":76,"x_max":832,"o":"m 454 -17 q 258 24 343 -17 q 124 134 172 65 q 76 286 76 203 q 92 369 76 329 q 136 444 107 410 q 206 507 165 479 q 126 597 154 546 q 99 704 99 647 q 144 848 99 783 q 269 951 189 913 q 454 989 349 989 q 640 951 560 989 q 765 848 719 913 q 810 704 810 783 q 781 597 810 647 q 703 507 753 546 q 772 444 743 479 q 817 369 801 410 q 832 286 832 329 q 784 134 832 203 q 651 24 736 65 q 454 -17 565 -17 m 454 158 q 547 176 507 158 q 610 223 588 193 q 633 289 633 253 q 583 382 633 344 q 454 419 533 419 q 326 382 375 419 q 276 289 276 344 q 299 223 276 253 q 361 176 321 193 q 454 158 401 158 m 454 589 q 568 622 525 589 q 611 701 611 654 q 592 758 611 733 q 537 799 572 783 q 454 814 501 814 q 372 799 407 814 q 317 758 336 783 q 297 701 297 733 q 340 622 297 654 q 454 589 383 589 z "},"9":{"ha":878,"x_min":64,"x_max":814,"o":"m 246 0 l 472 343 q 437 338 454 339 q 400 336 419 336 q 224 378 300 336 q 106 494 149 421 q 64 660 64 568 q 109 826 64 751 q 238 944 154 900 q 439 989 322 989 q 640 945 557 989 q 769 826 724 901 q 814 660 814 751 q 798 539 814 597 q 753 424 782 481 q 686 310 725 368 l 479 0 l 246 0 m 439 506 q 537 527 497 506 q 596 583 576 549 q 615 660 615 618 q 596 738 615 703 q 537 793 576 772 q 439 814 497 814 q 342 793 381 814 q 283 738 303 772 q 263 660 263 703 q 283 583 263 618 q 342 527 303 549 q 439 506 381 506 z "},"A":{"ha":1013,"x_min":0,"x_max":1013,"o":"m 0 0 l 317 864 q 391 958 340 926 q 506 989 442 989 q 621 959 569 989 q 694 865 672 929 l 1013 0 l 794 0 l 729 196 l 276 196 l 208 0 l 0 0 m 336 371 l 671 371 l 531 797 q 522 811 528 807 q 507 815 515 815 q 493 810 499 815 q 485 797 488 806 l 336 371 z "},"Á":{"ha":1013,"x_min":0,"x_max":1013,"o":"m 0 0 l 317 864 q 391 958 340 926 q 506 989 442 989 q 621 959 569 989 q 694 865 672 929 l 1013 0 l 794 0 l 729 196 l 276 196 l 208 0 l 0 0 m 336 371 l 671 371 l 531 797 q 522 811 528 807 q 507 815 515 815 q 493 810 499 815 q 485 797 488 806 l 336 371 m 410 1051 l 526 1222 l 706 1222 l 589 1051 l 410 1051 z "},"Ă":{"ha":1013,"x_min":0,"x_max":1013,"o":"m 0 0 l 317 864 q 391 958 340 926 q 506 989 442 989 q 621 959 569 989 q 694 865 672 929 l 1013 0 l 794 0 l 729 196 l 276 196 l 208 0 l 0 0 m 336 371 l 671 371 l 531 797 q 522 811 528 807 q 507 815 515 815 q 493 810 499 815 q 485 797 488 806 l 336 371 m 525 1051 q 434 1076 475 1051 q 369 1141 393 1100 q 344 1232 344 1182 l 453 1232 q 474 1180 453 1201 q 525 1158 494 1158 q 578 1180 557 1158 q 599 1232 599 1201 l 704 1232 q 680 1141 704 1182 q 615 1076 656 1100 q 525 1051 575 1051 z "},"Ắ":{"ha":1013,"x_min":0,"x_max":1013,"o":"m 0 0 l 317 864 q 391 958 340 926 q 506 989 442 989 q 621 959 569 989 q 694 865 672 929 l 1013 0 l 794 0 l 729 196 l 276 196 l 208 0 l 0 0 m 336 371 l 671 371 l 531 797 q 522 811 528 807 q 507 815 515 815 q 493 810 499 815 q 485 797 488 806 l 336 371 m 525 1051 q 434 1076 475 1051 q 369 1141 393 1100 q 344 1232 344 1182 l 453 1232 q 474 1180 453 1201 q 525 1158 494 1158 q 578 1180 557 1158 q 599 1232 599 1201 l 704 1232 q 680 1141 704 1182 q 615 1076 656 1100 q 525 1051 575 1051 m 428 1263 l 544 1433 l 724 1433 l 607 1263 l 428 1263 z "},"Ặ":{"ha":1013,"x_min":0,"x_max":1013,"o":"m 525 1051 q 434 1076 475 1051 q 369 1141 393 1100 q 344 1232 344 1182 l 453 1232 q 474 1180 453 1201 q 525 1158 494 1158 q 578 1180 557 1158 q 599 1232 599 1201 l 704 1232 q 680 1141 704 1182 q 615 1076 656 1100 q 525 1051 575 1051 z "},"Ằ":{"ha":1013,"x_min":0,"x_max":1013,"o":"m 0 0 l 317 864 q 391 958 340 926 q 506 989 442 989 q 621 959 569 989 q 694 865 672 929 l 1013 0 l 794 0 l 729 196 l 276 196 l 208 0 l 0 0 m 336 371 l 671 371 l 531 797 q 522 811 528 807 q 507 815 515 815 q 493 810 499 815 q 485 797 488 806 l 336 371 m 525 1051 q 434 1076 475 1051 q 369 1141 393 1100 q 344 1232 344 1182 l 453 1232 q 474 1180 453 1201 q 525 1158 494 1158 q 578 1180 557 1158 q 599 1232 599 1201 l 704 1232 q 680 1141 704 1182 q 615 1076 656 1100 q 525 1051 575 1051 m 433 1261 l 317 1432 l 496 1432 l 613 1261 l 433 1261 z "},"Ẳ":{"ha":1013,"x_min":0,"x_max":1013,"o":"m 0 0 l 317 864 q 391 958 340 926 q 506 989 442 989 q 621 959 569 989 q 694 865 672 929 l 1013 0 l 794 0 l 729 196 l 276 196 l 208 0 l 0 0 m 336 371 l 671 371 l 531 797 q 522 811 528 807 q 507 815 515 815 q 493 810 499 815 q 485 797 488 806 l 336 371 m 525 1051 q 434 1076 475 1051 q 369 1141 393 1100 q 344 1232 344 1182 l 453 1232 q 474 1180 453 1201 q 525 1158 494 1158 q 578 1180 557 1158 q 599 1232 599 1201 l 704 1232 q 680 1141 704 1182 q 615 1076 656 1100 q 525 1051 575 1051 m 458 1264 l 458 1319 q 503 1326 483 1319 q 536 1346 524 1333 q 549 1374 549 1358 q 535 1400 549 1390 q 481 1410 521 1410 q 443 1407 458 1410 q 413 1399 428 1404 l 413 1515 q 451 1523 428 1519 q 500 1526 474 1526 q 624 1499 581 1526 q 667 1417 667 1471 q 632 1331 667 1365 q 548 1281 597 1297 q 458 1264 499 1264 z "},"Ẵ":{"ha":1013,"x_min":0,"x_max":1013,"o":"m 0 0 l 317 864 q 391 958 340 926 q 506 989 442 989 q 621 959 569 989 q 694 865 672 929 l 1013 0 l 794 0 l 729 196 l 276 196 l 208 0 l 0 0 m 336 371 l 671 371 l 531 797 q 522 811 528 807 q 507 815 515 815 q 493 810 499 815 q 485 797 488 806 l 336 371 m 525 1051 q 434 1076 475 1051 q 369 1141 393 1100 q 344 1232 344 1182 l 453 1232 q 474 1180 453 1201 q 525 1158 494 1158 q 578 1180 557 1158 q 599 1232 599 1201 l 704 1232 q 680 1141 704 1182 q 615 1076 656 1100 q 525 1051 575 1051 m 590 1283 q 528 1292 553 1283 q 489 1313 504 1300 q 460 1338 474 1326 q 437 1356 447 1349 q 415 1363 426 1363 q 396 1355 404 1363 q 388 1335 388 1347 l 388 1297 l 271 1297 l 271 1332 q 313 1440 271 1397 q 422 1482 356 1482 q 499 1463 469 1482 q 550 1428 529 1443 q 574 1410 563 1418 q 597 1403 586 1403 q 617 1410 608 1403 q 625 1431 625 1417 l 625 1468 l 742 1468 l 742 1433 q 699 1326 742 1368 q 590 1283 657 1283 z "},"Ǎ":{"ha":1013,"x_min":0,"x_max":1013,"o":"m 0 0 l 317 864 q 391 958 340 926 q 506 989 442 989 q 621 959 569 989 q 694 865 672 929 l 1013 0 l 794 0 l 729 196 l 276 196 l 208 0 l 0 0 m 336 371 l 671 371 l 531 797 q 522 811 528 807 q 507 815 515 815 q 493 810 499 815 q 485 797 488 806 l 336 371 m 404 1051 l 288 1222 l 442 1222 l 506 1128 l 571 1222 l 725 1222 l 608 1051 l 404 1051 z "},"Â":{"ha":1013,"x_min":0,"x_max":1013,"o":"m 0 0 l 317 864 q 391 958 340 926 q 506 989 442 989 q 621 959 569 989 q 694 865 672 929 l 1013 0 l 794 0 l 729 196 l 276 196 l 208 0 l 0 0 m 336 371 l 671 371 l 531 797 q 522 811 528 807 q 507 815 515 815 q 493 810 499 815 q 485 797 488 806 l 336 371 m 288 1051 l 404 1222 l 608 1222 l 725 1051 l 571 1051 l 506 1146 l 442 1051 l 288 1051 z "},"Ấ":{"ha":1013,"x_min":0,"x_max":1013,"o":"m 0 0 l 317 864 q 391 958 340 926 q 506 989 442 989 q 621 959 569 989 q 694 865 672 929 l 1013 0 l 794 0 l 729 196 l 276 196 l 208 0 l 0 0 m 336 371 l 671 371 l 531 797 q 522 811 528 807 q 507 815 515 815 q 493 810 499 815 q 485 797 488 806 l 336 371 m 288 1051 l 404 1222 l 608 1222 l 725 1051 l 571 1051 l 506 1146 l 442 1051 l 288 1051 m 426 1263 l 543 1433 l 722 1433 l 606 1263 l 426 1263 z "},"Ậ":{"ha":1013,"x_min":0,"x_max":1013,"o":"m 0 0 l 317 864 q 391 958 340 926 q 506 989 442 989 q 621 959 569 989 q 694 865 672 929 l 1013 0 l 794 0 l 729 196 l 276 196 l 208 0 l 0 0 m 336 371 l 671 371 l 531 797 q 522 811 528 807 q 507 815 515 815 q 493 810 499 815 q 485 797 488 806 l 336 371 m 288 1051 l 404 1222 l 608 1222 l 725 1051 l 571 1051 l 506 1146 l 442 1051 l 288 1051 z "},"Ầ":{"ha":1013,"x_min":0,"x_max":1013,"o":"m 0 0 l 317 864 q 391 958 340 926 q 506 989 442 989 q 621 959 569 989 q 694 865 672 929 l 1013 0 l 794 0 l 729 196 l 276 196 l 208 0 l 0 0 m 336 371 l 671 371 l 531 797 q 522 811 528 807 q 507 815 515 815 q 493 810 499 815 q 485 797 488 806 l 336 371 m 288 1051 l 404 1222 l 608 1222 l 725 1051 l 571 1051 l 506 1146 l 442 1051 l 288 1051 m 406 1263 l 289 1433 l 468 1433 l 585 1263 l 406 1263 z "},"Ẩ":{"ha":1013,"x_min":0,"x_max":1013,"o":"m 0 0 l 317 864 q 391 958 340 926 q 506 989 442 989 q 621 959 569 989 q 694 865 672 929 l 1013 0 l 794 0 l 729 196 l 276 196 l 208 0 l 0 0 m 336 371 l 671 371 l 531 797 q 522 811 528 807 q 507 815 515 815 q 493 810 499 815 q 485 797 488 806 l 336 371 m 288 1051 l 404 1222 l 608 1222 l 725 1051 l 571 1051 l 506 1146 l 442 1051 l 288 1051 m 439 1261 l 439 1317 q 484 1324 464 1317 q 517 1343 504 1331 q 529 1371 529 1356 q 515 1397 529 1388 q 461 1407 501 1407 q 424 1404 439 1407 q 393 1396 408 1401 l 393 1513 q 431 1520 408 1517 q 481 1524 454 1524 q 604 1496 561 1524 q 647 1414 647 1468 q 613 1328 647 1363 q 528 1278 578 1294 q 439 1261 479 1261 z "},"Ẫ":{"ha":1013,"x_min":0,"x_max":1013,"o":"m 0 0 l 317 864 q 391 958 340 926 q 506 989 442 989 q 621 959 569 989 q 694 865 672 929 l 1013 0 l 794 0 l 729 196 l 276 196 l 208 0 l 0 0 m 336 371 l 671 371 l 531 797 q 522 811 528 807 q 507 815 515 815 q 493 810 499 815 q 485 797 488 806 l 336 371 m 288 1051 l 404 1222 l 608 1222 l 725 1051 l 571 1051 l 506 1146 l 442 1051 l 288 1051 m 590 1279 q 528 1288 553 1279 q 489 1309 504 1296 q 460 1333 474 1322 q 437 1351 447 1344 q 415 1358 426 1358 q 396 1351 404 1358 q 388 1331 388 1343 l 388 1293 l 271 1293 l 271 1328 q 313 1435 271 1393 q 422 1478 356 1478 q 499 1458 469 1478 q 550 1424 529 1439 q 574 1406 563 1414 q 597 1399 586 1399 q 617 1406 608 1399 q 625 1426 625 1413 l 625 1464 l 742 1464 l 742 1429 q 699 1322 742 1364 q 590 1279 657 1279 z "},"Ȁ":{"ha":1013,"x_min":0,"x_max":1013,"o":"m 0 0 l 317 864 q 391 958 340 926 q 506 989 442 989 q 621 959 569 989 q 694 865 672 929 l 1013 0 l 794 0 l 729 196 l 276 196 l 208 0 l 0 0 m 336 371 l 671 371 l 531 797 q 522 811 528 807 q 507 815 515 815 q 493 810 499 815 q 485 797 488 806 l 336 371 m 561 1051 l 428 1246 l 588 1246 l 721 1051 l 561 1051 m 314 1051 l 181 1246 l 340 1246 l 474 1051 l 314 1051 z "},"Ä":{"ha":1013,"x_min":0,"x_max":1013,"o":"m 0 0 l 317 864 q 391 958 340 926 q 506 989 442 989 q 621 959 569 989 q 694 865 672 929 l 1013 0 l 794 0 l 729 196 l 276 196 l 208 0 l 0 0 m 336 371 l 671 371 l 531 797 q 522 811 528 807 q 507 815 515 815 q 493 810 499 815 q 485 797 488 806 l 336 371 z "},"Ạ":{"ha":1013,"x_min":0,"x_max":1013,"o":"m 0 0 l 317 864 q 391 958 340 926 q 506 989 442 989 q 621 959 569 989 q 694 865 672 929 l 1013 0 l 794 0 l 729 196 l 276 196 l 208 0 l 0 0 m 336 371 l 671 371 l 531 797 q 522 811 528 807 q 507 815 515 815 q 493 810 499 815 q 485 797 488 806 l 336 371 z "},"À":{"ha":1013,"x_min":0,"x_max":1013,"o":"m 0 0 l 317 864 q 391 958 340 926 q 506 989 442 989 q 621 959 569 989 q 694 865 672 929 l 1013 0 l 794 0 l 729 196 l 276 196 l 208 0 l 0 0 m 336 371 l 671 371 l 531 797 q 522 811 528 807 q 507 815 515 815 q 493 810 499 815 q 485 797 488 806 l 336 371 m 419 1051 l 303 1222 l 482 1222 l 599 1051 l 419 1051 z "},"Ả":{"ha":1013,"x_min":0,"x_max":1013,"o":"m 0 0 l 317 864 q 391 958 340 926 q 506 989 442 989 q 621 959 569 989 q 694 865 672 929 l 1013 0 l 794 0 l 729 196 l 276 196 l 208 0 l 0 0 m 336 371 l 671 371 l 531 797 q 522 811 528 807 q 507 815 515 815 q 493 810 499 815 q 485 797 488 806 l 336 371 m 463 1051 l 463 1107 q 508 1114 488 1107 q 540 1133 528 1121 q 553 1161 553 1146 q 539 1188 553 1178 q 485 1197 525 1197 q 447 1194 463 1197 q 417 1186 432 1192 l 417 1303 q 455 1310 432 1307 q 504 1314 478 1314 q 628 1286 585 1314 q 671 1204 671 1258 q 636 1119 671 1153 q 552 1068 601 1085 q 463 1051 503 1051 z "},"Ȃ":{"ha":1013,"x_min":0,"x_max":1013,"o":"m 0 0 l 317 864 q 391 958 340 926 q 506 989 442 989 q 621 959 569 989 q 694 865 672 929 l 1013 0 l 794 0 l 729 196 l 276 196 l 208 0 l 0 0 m 336 371 l 671 371 l 531 797 q 522 811 528 807 q 507 815 515 815 q 493 810 499 815 q 485 797 488 806 l 336 371 z "},"Ā":{"ha":1013,"x_min":0,"x_max":1013,"o":"m 0 0 l 317 864 q 391 958 340 926 q 506 989 442 989 q 621 959 569 989 q 694 865 672 929 l 1013 0 l 794 0 l 729 196 l 276 196 l 208 0 l 0 0 m 336 371 l 671 371 l 531 797 q 522 811 528 807 q 507 815 515 815 q 493 810 499 815 q 485 797 488 806 l 336 371 m 290 1047 l 290 1169 l 707 1169 l 707 1047 l 290 1047 z "},"Ą":{"ha":1013,"x_min":0,"x_max":1013,"o":"m 913 -303 q 784 -264 838 -303 q 731 -144 731 -225 q 753 -63 731 -107 q 807 21 776 -19 q 862 88 838 61 q 890 119 886 115 l 939 92 q 922 65 936 88 q 890 12 907 43 q 861 -52 874 -19 q 849 -111 849 -85 q 871 -165 849 -144 q 925 -186 893 -186 q 956 -183 940 -186 q 985 -175 971 -181 l 985 -293 q 949 -300 971 -297 q 913 -303 928 -303 m 0 0 l 317 864 q 391 958 340 926 q 506 989 442 989 q 621 959 569 989 q 694 865 672 929 l 1013 0 l 794 0 l 729 196 l 276 196 l 208 0 l 0 0 m 336 371 l 671 371 l 531 797 q 522 811 528 807 q 507 815 515 815 q 493 810 499 815 q 485 797 488 806 l 336 371 z "},"Å":{"ha":1013,"x_min":0,"x_max":1013,"o":"m 0 0 l 317 864 q 391 958 340 926 q 506 989 442 989 q 621 959 569 989 q 694 865 672 929 l 1013 0 l 794 0 l 729 196 l 276 196 l 208 0 l 0 0 m 336 371 l 671 371 l 531 797 q 522 811 528 807 q 507 815 515 815 q 493 810 499 815 q 485 797 488 806 l 336 371 m 506 1029 q 412 1067 450 1029 q 374 1161 374 1106 q 412 1255 374 1217 q 506 1293 450 1293 q 599 1255 561 1293 q 638 1161 638 1217 q 599 1067 638 1106 q 506 1029 561 1029 m 506 1107 q 544 1123 529 1107 q 560 1161 560 1139 q 544 1200 560 1185 q 506 1215 529 1215 q 467 1200 483 1215 q 451 1161 451 1185 q 467 1123 451 1139 q 506 1107 483 1107 z "},"Ǻ":{"ha":1013,"x_min":0,"x_max":1013,"o":"m 0 0 l 317 864 q 391 958 340 926 q 506 989 442 989 q 621 959 569 989 q 694 865 672 929 l 1013 0 l 794 0 l 729 196 l 276 196 l 208 0 l 0 0 m 336 371 l 671 371 l 531 797 q 522 811 528 807 q 507 815 515 815 q 493 810 499 815 q 485 797 488 806 l 336 371 m 507 1029 q 413 1067 451 1029 q 375 1161 375 1106 q 413 1255 375 1217 q 507 1293 451 1293 q 601 1255 563 1293 q 639 1161 639 1217 q 601 1067 639 1106 q 507 1029 563 1029 m 507 1107 q 546 1123 531 1107 q 561 1161 561 1139 q 546 1200 561 1185 q 507 1215 531 1215 q 469 1200 485 1215 q 453 1161 453 1185 q 469 1123 453 1139 q 507 1107 485 1107 m 418 1343 l 535 1514 l 714 1514 l 597 1343 l 418 1343 z "},"Ã":{"ha":1013,"x_min":0,"x_max":1013,"o":"m 0 0 l 317 864 q 391 958 340 926 q 506 989 442 989 q 621 959 569 989 q 694 865 672 929 l 1013 0 l 794 0 l 729 196 l 276 196 l 208 0 l 0 0 m 336 371 l 671 371 l 531 797 q 522 811 528 807 q 507 815 515 815 q 493 810 499 815 q 485 797 488 806 l 336 371 m 590 1038 q 528 1046 553 1038 q 489 1067 504 1054 q 460 1092 474 1081 q 437 1110 447 1103 q 415 1117 426 1117 q 396 1109 404 1117 q 388 1089 388 1101 l 388 1051 l 271 1051 l 271 1086 q 313 1194 271 1151 q 422 1236 356 1236 q 499 1217 469 1236 q 550 1182 529 1197 q 574 1165 563 1172 q 597 1157 586 1157 q 617 1164 608 1157 q 625 1185 625 1171 l 625 1222 l 742 1222 l 742 1188 q 699 1080 742 1122 q 590 1038 657 1038 z "},"Æ":{"ha":1364,"x_min":0,"x_max":1308,"o":"m 0 0 l 317 864 q 391 958 340 926 q 506 989 442 989 q 595 967 556 989 q 669 901 635 946 l 674 896 q 722 939 694 922 q 782 964 750 956 q 847 972 814 972 l 1308 972 l 1308 797 l 874 797 q 806 773 832 797 q 770 715 779 749 q 772 653 761 682 l 797 582 l 1261 582 l 1261 407 l 861 407 l 919 250 q 954 193 933 211 q 1014 175 975 175 l 1308 175 l 1308 0 l 956 0 q 823 40 876 0 q 750 136 769 81 l 729 196 l 276 196 l 208 0 l 0 0 m 336 371 l 671 371 l 531 797 q 522 811 528 807 q 507 815 515 815 q 493 810 499 815 q 485 797 488 806 l 336 371 z "},"Ǽ":{"ha":1364,"x_min":0,"x_max":1308,"o":"m 0 0 l 317 864 q 391 958 340 926 q 506 989 442 989 q 595 967 556 989 q 669 901 635 946 l 674 896 q 722 939 694 922 q 782 964 750 956 q 847 972 814 972 l 1308 972 l 1308 797 l 874 797 q 806 773 832 797 q 770 715 779 749 q 772 653 761 682 l 797 582 l 1261 582 l 1261 407 l 861 407 l 919 250 q 954 193 933 211 q 1014 175 975 175 l 1308 175 l 1308 0 l 956 0 q 823 40 876 0 q 750 136 769 81 l 729 196 l 276 196 l 208 0 l 0 0 m 336 371 l 671 371 l 531 797 q 522 811 528 807 q 507 815 515 815 q 493 810 499 815 q 485 797 488 806 l 336 371 m 646 1051 l 763 1222 l 942 1222 l 825 1051 l 646 1051 z "},"B":{"ha":975,"x_min":97,"x_max":919,"o":"m 97 0 l 97 972 l 643 972 q 769 941 713 972 q 859 854 825 910 q 893 722 893 799 q 874 630 893 674 q 821 554 854 586 q 743 504 788 522 q 834 451 794 488 q 897 365 874 414 q 919 258 919 315 q 884 122 919 181 q 790 32 849 64 q 660 0 732 0 l 97 0 m 296 175 l 603 175 q 663 191 636 175 q 705 234 689 207 q 721 293 721 261 q 705 353 721 326 q 663 395 689 379 q 603 411 636 411 l 296 411 l 296 175 m 296 578 l 585 578 q 640 592 615 578 q 680 632 665 607 q 694 688 694 657 q 680 743 694 718 q 640 783 665 768 q 585 797 615 797 l 296 797 l 296 578 z "},"C":{"ha":747,"x_min":42,"x_max":692,"o":"m 540 0 q 335 41 426 3 q 178 145 243 79 q 77 299 113 211 q 42 486 42 386 q 77 674 42 586 q 178 827 113 761 q 335 932 243 893 q 540 972 426 971 l 692 972 l 692 797 l 544 797 q 422 772 478 796 q 326 707 367 749 q 263 609 285 665 q 240 486 240 553 q 263 363 240 419 q 326 265 285 307 q 422 200 367 224 q 544 175 478 176 l 692 175 l 692 0 l 540 0 z "},"Ć":{"ha":747,"x_min":42,"x_max":692,"o":"m 540 0 q 335 41 426 3 q 178 145 243 79 q 77 299 113 211 q 42 486 42 386 q 77 674 42 586 q 178 827 113 761 q 335 932 243 893 q 540 972 426 971 l 692 972 l 692 797 l 544 797 q 422 772 478 796 q 326 707 367 749 q 263 609 285 665 q 240 486 240 553 q 263 363 240 419 q 326 265 285 307 q 422 200 367 224 q 544 175 478 176 l 692 175 l 692 0 l 540 0 m 325 1051 l 442 1222 l 621 1222 l 504 1051 l 325 1051 z "},"Č":{"ha":747,"x_min":42,"x_max":692,"o":"m 540 0 q 335 41 426 3 q 178 145 243 79 q 77 299 113 211 q 42 486 42 386 q 77 674 42 586 q 178 827 113 761 q 335 932 243 893 q 540 972 426 971 l 692 972 l 692 797 l 544 797 q 422 772 478 796 q 326 707 367 749 q 263 609 285 665 q 240 486 240 553 q 263 363 240 419 q 326 265 285 307 q 422 200 367 224 q 544 175 478 176 l 692 175 l 692 0 l 540 0 m 350 1051 l 233 1222 l 388 1222 l 451 1128 l 517 1222 l 671 1222 l 554 1051 l 350 1051 z "},"Ç":{"ha":747,"x_min":42,"x_max":692,"o":"m 540 0 q 335 41 426 3 q 178 145 243 79 q 77 299 113 211 q 42 486 42 386 q 77 674 42 586 q 178 827 113 761 q 335 932 243 893 q 540 972 426 971 l 692 972 l 692 797 l 544 797 q 422 772 478 796 q 326 707 367 749 q 263 609 285 665 q 240 486 240 553 q 263 363 240 419 q 326 265 285 307 q 422 200 367 224 q 544 175 478 176 l 692 175 l 692 0 l 540 0 m 288 -282 l 422 33 l 604 33 l 469 -282 l 288 -282 z "},"Ĉ":{"ha":747,"x_min":42,"x_max":692,"o":"m 540 0 q 335 41 426 3 q 178 145 243 79 q 77 299 113 211 q 42 486 42 386 q 77 674 42 586 q 178 827 113 761 q 335 932 243 893 q 540 972 426 971 l 692 972 l 692 797 l 544 797 q 422 772 478 796 q 326 707 367 749 q 263 609 285 665 q 240 486 240 553 q 263 363 240 419 q 326 265 285 307 q 422 200 367 224 q 544 175 478 176 l 692 175 l 692 0 l 540 0 m 222 1051 l 339 1222 l 543 1222 l 660 1051 l 506 1051 l 440 1146 l 376 1051 l 222 1051 z "},"Ċ":{"ha":747,"x_min":42,"x_max":692,"o":"m 540 0 q 335 41 426 3 q 178 145 243 79 q 77 299 113 211 q 42 486 42 386 q 77 674 42 586 q 178 827 113 761 q 335 932 243 893 q 540 972 426 971 l 692 972 l 692 797 l 544 797 q 422 772 478 796 q 326 707 367 749 q 263 609 285 665 q 240 486 240 553 q 263 363 240 419 q 326 265 285 307 q 422 200 367 224 q 544 175 478 176 l 692 175 l 692 0 l 540 0 m 490 1039 q 406 1074 442 1039 q 371 1158 371 1110 q 406 1242 371 1207 q 490 1278 442 1278 q 574 1242 539 1278 q 610 1158 610 1207 q 574 1074 610 1110 q 490 1039 539 1039 z "},"D":{"ha":976,"x_min":97,"x_max":935,"o":"m 97 0 l 97 972 l 425 972 q 694 910 581 972 q 872 738 808 847 q 935 486 935 628 q 872 235 935 344 q 694 63 808 125 q 425 0 581 0 l 97 0 m 296 175 l 425 175 q 585 213 515 175 q 696 320 656 250 q 736 486 736 390 q 696 653 736 583 q 585 760 656 722 q 425 797 515 797 l 296 797 l 296 175 z "},"Ǆ":{"ha":1811,"x_min":97,"x_max":1763,"o":"m 97 0 l 97 972 l 425 972 q 694 910 581 972 q 872 738 808 847 q 935 486 935 628 q 872 235 935 344 q 694 63 808 125 q 425 0 581 0 l 97 0 m 296 175 l 425 175 q 585 213 515 175 q 696 320 656 250 q 736 486 736 390 q 696 653 736 583 q 585 760 656 722 q 425 797 515 797 l 296 797 l 296 175 z "},"Ð":{"ha":976,"x_min":0,"x_max":935,"o":"m 97 0 l 97 403 l 0 403 l 0 576 l 97 576 l 97 972 l 425 972 q 694 910 581 972 q 872 738 808 847 q 935 486 935 628 q 872 235 935 344 q 694 63 808 125 q 425 0 581 0 l 97 0 m 296 175 l 425 175 q 585 213 515 175 q 696 320 656 250 q 736 486 736 390 q 696 653 736 583 q 585 760 656 722 q 425 797 515 797 l 296 797 l 296 576 l 442 576 l 442 403 l 296 403 l 296 175 z "},"Ď":{"ha":976,"x_min":97,"x_max":935,"o":"m 97 0 l 97 972 l 425 972 q 694 910 581 972 q 872 738 808 847 q 935 486 935 628 q 872 235 935 344 q 694 63 808 125 q 425 0 581 0 l 97 0 m 296 175 l 425 175 q 585 213 515 175 q 696 320 656 250 q 736 486 736 390 q 696 653 736 583 q 585 760 656 722 q 425 797 515 797 l 296 797 l 296 175 m 358 1051 l 242 1222 l 396 1222 l 460 1128 l 525 1222 l 679 1222 l 563 1051 l 358 1051 z "},"Đ":{"ha":976,"x_min":0,"x_max":935,"o":"m 97 0 l 97 403 l 0 403 l 0 576 l 97 576 l 97 972 l 425 972 q 694 910 581 972 q 872 738 808 847 q 935 486 935 628 q 872 235 935 344 q 694 63 808 125 q 425 0 581 0 l 97 0 m 296 175 l 425 175 q 585 213 515 175 q 696 320 656 250 q 736 486 736 390 q 696 653 736 583 q 585 760 656 722 q 425 797 515 797 l 296 797 l 296 576 l 442 576 l 442 403 l 296 403 l 296 175 z "},"ǅ":{"ha":1686,"x_min":97,"x_max":1613,"o":"m 97 0 l 97 972 l 425 972 q 694 910 581 972 q 872 738 808 847 q 935 486 935 628 q 872 235 935 344 q 694 63 808 125 q 425 0 581 0 l 97 0 m 296 175 l 425 175 q 585 213 515 175 q 696 320 656 250 q 736 486 736 390 q 696 653 736 583 q 585 760 656 722 q 425 797 515 797 l 296 797 l 296 175 z "},"E":{"ha":794,"x_min":56,"x_max":739,"o":"m 346 0 q 199 39 265 0 q 94 144 133 78 q 56 290 56 210 q 81 400 56 349 q 149 490 106 451 q 81 581 106 529 q 56 689 56 632 q 94 832 56 768 q 197 934 132 896 q 339 972 261 972 l 739 972 l 739 797 l 361 797 q 308 783 332 797 q 269 744 283 768 q 254 689 254 719 q 269 635 254 660 q 308 597 283 611 q 361 582 332 582 l 692 582 l 692 407 l 369 407 q 311 391 338 407 q 269 349 285 375 q 254 290 254 322 q 269 232 254 258 q 311 190 285 206 q 369 175 338 175 l 739 175 l 739 0 l 346 0 z "},"É":{"ha":794,"x_min":56,"x_max":739,"o":"m 346 0 q 199 39 265 0 q 94 144 133 78 q 56 290 56 210 q 81 400 56 349 q 149 490 106 451 q 81 581 106 529 q 56 689 56 632 q 94 832 56 768 q 197 934 132 896 q 339 972 261 972 l 739 972 l 739 797 l 361 797 q 308 783 332 797 q 269 744 283 768 q 254 689 254 719 q 269 635 254 660 q 308 597 283 611 q 361 582 332 582 l 692 582 l 692 407 l 369 407 q 311 391 338 407 q 269 349 285 375 q 254 290 254 322 q 269 232 254 258 q 311 190 285 206 q 369 175 338 175 l 739 175 l 739 0 l 346 0 m 336 1051 l 453 1222 l 632 1222 l 515 1051 l 336 1051 z "},"Ĕ":{"ha":794,"x_min":56,"x_max":739,"o":"m 346 0 q 199 39 265 0 q 94 144 133 78 q 56 290 56 210 q 81 400 56 349 q 149 490 106 451 q 81 581 106 529 q 56 689 56 632 q 94 832 56 768 q 197 934 132 896 q 339 972 261 972 l 739 972 l 739 797 l 361 797 q 308 783 332 797 q 269 744 283 768 q 254 689 254 719 q 269 635 254 660 q 308 597 283 611 q 361 582 332 582 l 692 582 l 692 407 l 369 407 q 311 391 338 407 q 269 349 285 375 q 254 290 254 322 q 269 232 254 258 q 311 190 285 206 q 369 175 338 175 l 739 175 l 739 0 l 346 0 m 478 1038 q 387 1062 428 1038 q 322 1127 346 1086 q 297 1218 297 1168 l 406 1218 q 426 1166 406 1188 q 478 1144 447 1144 q 531 1166 510 1144 q 551 1218 551 1188 l 657 1218 q 633 1127 657 1168 q 568 1062 608 1086 q 478 1038 528 1038 z "},"Ě":{"ha":794,"x_min":56,"x_max":739,"o":"m 346 0 q 199 39 265 0 q 94 144 133 78 q 56 290 56 210 q 81 400 56 349 q 149 490 106 451 q 81 581 106 529 q 56 689 56 632 q 94 832 56 768 q 197 934 132 896 q 339 972 261 972 l 739 972 l 739 797 l 361 797 q 308 783 332 797 q 269 744 283 768 q 254 689 254 719 q 269 635 254 660 q 308 597 283 611 q 361 582 332 582 l 692 582 l 692 407 l 369 407 q 311 391 338 407 q 269 349 285 375 q 254 290 254 322 q 269 232 254 258 q 311 190 285 206 q 369 175 338 175 l 739 175 l 739 0 l 346 0 m 338 1051 l 221 1222 l 375 1222 l 439 1128 l 504 1222 l 658 1222 l 542 1051 l 338 1051 z "},"Ê":{"ha":794,"x_min":56,"x_max":739,"o":"m 346 0 q 199 39 265 0 q 94 144 133 78 q 56 290 56 210 q 81 400 56 349 q 149 490 106 451 q 81 581 106 529 q 56 689 56 632 q 94 832 56 768 q 197 934 132 896 q 339 972 261 972 l 739 972 l 739 797 l 361 797 q 308 783 332 797 q 269 744 283 768 q 254 689 254 719 q 269 635 254 660 q 308 597 283 611 q 361 582 332 582 l 692 582 l 692 407 l 369 407 q 311 391 338 407 q 269 349 285 375 q 254 290 254 322 q 269 232 254 258 q 311 190 285 206 q 369 175 338 175 l 739 175 l 739 0 l 346 0 m 219 1051 l 336 1222 l 540 1222 l 657 1051 l 503 1051 l 438 1146 l 374 1051 l 219 1051 z "},"Ế":{"ha":794,"x_min":56,"x_max":739,"o":"m 346 0 q 199 39 265 0 q 94 144 133 78 q 56 290 56 210 q 81 400 56 349 q 149 490 106 451 q 81 581 106 529 q 56 689 56 632 q 94 832 56 768 q 197 934 132 896 q 339 972 261 972 l 739 972 l 739 797 l 361 797 q 308 783 332 797 q 269 744 283 768 q 254 689 254 719 q 269 635 254 660 q 308 597 283 611 q 361 582 332 582 l 692 582 l 692 407 l 369 407 q 311 391 338 407 q 269 349 285 375 q 254 290 254 322 q 269 232 254 258 q 311 190 285 206 q 369 175 338 175 l 739 175 l 739 0 l 346 0 m 219 1051 l 336 1222 l 540 1222 l 657 1051 l 503 1051 l 438 1146 l 374 1051 l 219 1051 m 365 1285 l 482 1456 l 661 1456 l 544 1285 l 365 1285 z "},"Ệ":{"ha":794,"x_min":56,"x_max":739,"o":"m 229 1051 l 346 1222 l 550 1222 l 667 1051 l 513 1051 l 447 1146 l 383 1051 l 229 1051 z "},"Ề":{"ha":794,"x_min":56,"x_max":739,"o":"m 346 0 q 199 39 265 0 q 94 144 133 78 q 56 290 56 210 q 81 400 56 349 q 149 490 106 451 q 81 581 106 529 q 56 689 56 632 q 94 832 56 768 q 197 934 132 896 q 339 972 261 972 l 739 972 l 739 797 l 361 797 q 308 783 332 797 q 269 744 283 768 q 254 689 254 719 q 269 635 254 660 q 308 597 283 611 q 361 582 332 582 l 692 582 l 692 407 l 369 407 q 311 391 338 407 q 269 349 285 375 q 254 290 254 322 q 269 232 254 258 q 311 190 285 206 q 369 175 338 175 l 739 175 l 739 0 l 346 0 m 219 1051 l 336 1222 l 540 1222 l 657 1051 l 503 1051 l 438 1146 l 374 1051 l 219 1051 m 329 1285 l 213 1456 l 392 1456 l 508 1285 l 329 1285 z "},"Ể":{"ha":794,"x_min":56,"x_max":739,"o":"m 346 0 q 199 39 265 0 q 94 144 133 78 q 56 290 56 210 q 81 400 56 349 q 149 490 106 451 q 81 581 106 529 q 56 689 56 632 q 94 832 56 768 q 197 934 132 896 q 339 972 261 972 l 739 972 l 739 797 l 361 797 q 308 783 332 797 q 269 744 283 768 q 254 689 254 719 q 269 635 254 660 q 308 597 283 611 q 361 582 332 582 l 692 582 l 692 407 l 369 407 q 311 391 338 407 q 269 349 285 375 q 254 290 254 322 q 269 232 254 258 q 311 190 285 206 q 369 175 338 175 l 739 175 l 739 0 l 346 0 m 219 1051 l 336 1222 l 540 1222 l 657 1051 l 503 1051 l 438 1146 l 374 1051 l 219 1051 m 383 1257 l 383 1313 q 428 1319 408 1313 q 461 1339 449 1326 q 474 1367 474 1351 q 460 1393 474 1383 q 406 1403 446 1403 q 368 1400 383 1403 q 338 1392 353 1397 l 338 1508 q 376 1516 353 1513 q 425 1519 399 1519 q 549 1492 506 1519 q 592 1410 592 1464 q 557 1324 592 1358 q 473 1274 522 1290 q 383 1257 424 1257 z "},"Ễ":{"ha":794,"x_min":56,"x_max":739,"o":"m 346 0 q 199 39 265 0 q 94 144 133 78 q 56 290 56 210 q 81 400 56 349 q 149 490 106 451 q 81 581 106 529 q 56 689 56 632 q 94 832 56 768 q 197 934 132 896 q 339 972 261 972 l 739 972 l 739 797 l 361 797 q 308 783 332 797 q 269 744 283 768 q 254 689 254 719 q 269 635 254 660 q 308 597 283 611 q 361 582 332 582 l 692 582 l 692 407 l 369 407 q 311 391 338 407 q 269 349 285 375 q 254 290 254 322 q 269 232 254 258 q 311 190 285 206 q 369 175 338 175 l 739 175 l 739 0 l 346 0 m 219 1051 l 336 1222 l 540 1222 l 657 1051 l 503 1051 l 438 1146 l 374 1051 l 219 1051 m 532 1282 q 470 1290 494 1282 q 431 1312 446 1299 q 401 1336 415 1325 q 378 1354 389 1347 q 357 1361 368 1361 q 338 1353 346 1361 q 329 1333 329 1346 l 329 1296 l 213 1296 l 213 1331 q 255 1438 213 1396 q 364 1481 297 1481 q 441 1461 411 1481 q 492 1426 471 1442 q 516 1409 504 1417 q 539 1401 528 1401 q 558 1408 550 1401 q 567 1429 567 1415 l 567 1467 l 683 1467 l 683 1432 q 641 1324 683 1367 q 532 1282 599 1282 z "},"Ȅ":{"ha":794,"x_min":56,"x_max":739,"o":"m 346 0 q 199 39 265 0 q 94 144 133 78 q 56 290 56 210 q 81 400 56 349 q 149 490 106 451 q 81 581 106 529 q 56 689 56 632 q 94 832 56 768 q 197 934 132 896 q 339 972 261 972 l 739 972 l 739 797 l 361 797 q 308 783 332 797 q 269 744 283 768 q 254 689 254 719 q 269 635 254 660 q 308 597 283 611 q 361 582 332 582 l 692 582 l 692 407 l 369 407 q 311 391 338 407 q 269 349 285 375 q 254 290 254 322 q 269 232 254 258 q 311 190 285 206 q 369 175 338 175 l 739 175 l 739 0 l 346 0 m 501 1051 l 368 1246 l 528 1246 l 661 1051 l 501 1051 m 254 1051 l 121 1246 l 281 1246 l 414 1051 l 254 1051 z "},"Ë":{"ha":794,"x_min":56,"x_max":739,"o":"m 346 0 q 199 39 265 0 q 94 144 133 78 q 56 290 56 210 q 81 400 56 349 q 149 490 106 451 q 81 581 106 529 q 56 689 56 632 q 94 832 56 768 q 197 934 132 896 q 339 972 261 972 l 739 972 l 739 797 l 361 797 q 308 783 332 797 q 269 744 283 768 q 254 689 254 719 q 269 635 254 660 q 308 597 283 611 q 361 582 332 582 l 692 582 l 692 407 l 369 407 q 311 391 338 407 q 269 349 285 375 q 254 290 254 322 q 269 232 254 258 q 311 190 285 206 q 369 175 338 175 l 739 175 l 739 0 l 346 0 z "},"Ė":{"ha":794,"x_min":56,"x_max":739,"o":"m 346 0 q 199 39 265 0 q 94 144 133 78 q 56 290 56 210 q 81 400 56 349 q 149 490 106 451 q 81 581 106 529 q 56 689 56 632 q 94 832 56 768 q 197 934 132 896 q 339 972 261 972 l 739 972 l 739 797 l 361 797 q 308 783 332 797 q 269 744 283 768 q 254 689 254 719 q 269 635 254 660 q 308 597 283 611 q 361 582 332 582 l 692 582 l 692 407 l 369 407 q 311 391 338 407 q 269 349 285 375 q 254 290 254 322 q 269 232 254 258 q 311 190 285 206 q 369 175 338 175 l 739 175 l 739 0 l 346 0 m 460 1039 q 376 1074 411 1039 q 340 1158 340 1110 q 376 1242 340 1207 q 460 1278 411 1278 q 544 1242 508 1278 q 579 1158 579 1207 q 544 1074 579 1110 q 460 1039 508 1039 z "},"Ẹ":{"ha":794,"x_min":56,"x_max":739,"o":"m 346 0 q 199 39 265 0 q 94 144 133 78 q 56 290 56 210 q 81 400 56 349 q 149 490 106 451 q 81 581 106 529 q 56 689 56 632 q 94 832 56 768 q 197 934 132 896 q 339 972 261 972 l 739 972 l 739 797 l 361 797 q 308 783 332 797 q 269 744 283 768 q 254 689 254 719 q 269 635 254 660 q 308 597 283 611 q 361 582 332 582 l 692 582 l 692 407 l 369 407 q 311 391 338 407 q 269 349 285 375 q 254 290 254 322 q 269 232 254 258 q 311 190 285 206 q 369 175 338 175 l 739 175 l 739 0 l 346 0 z "},"È":{"ha":794,"x_min":56,"x_max":739,"o":"m 346 0 q 199 39 265 0 q 94 144 133 78 q 56 290 56 210 q 81 400 56 349 q 149 490 106 451 q 81 581 106 529 q 56 689 56 632 q 94 832 56 768 q 197 934 132 896 q 339 972 261 972 l 739 972 l 739 797 l 361 797 q 308 783 332 797 q 269 744 283 768 q 254 689 254 719 q 269 635 254 660 q 308 597 283 611 q 361 582 332 582 l 692 582 l 692 407 l 369 407 q 311 391 338 407 q 269 349 285 375 q 254 290 254 322 q 269 232 254 258 q 311 190 285 206 q 369 175 338 175 l 739 175 l 739 0 l 346 0 m 388 1051 l 271 1222 l 450 1222 l 567 1051 l 388 1051 z "},"Ẻ":{"ha":794,"x_min":56,"x_max":739,"o":"m 346 0 q 199 39 265 0 q 94 144 133 78 q 56 290 56 210 q 81 400 56 349 q 149 490 106 451 q 81 581 106 529 q 56 689 56 632 q 94 832 56 768 q 197 934 132 896 q 339 972 261 972 l 739 972 l 739 797 l 361 797 q 308 783 332 797 q 269 744 283 768 q 254 689 254 719 q 269 635 254 660 q 308 597 283 611 q 361 582 332 582 l 692 582 l 692 407 l 369 407 q 311 391 338 407 q 269 349 285 375 q 254 290 254 322 q 269 232 254 258 q 311 190 285 206 q 369 175 338 175 l 739 175 l 739 0 l 346 0 m 368 1039 l 368 1094 q 413 1101 393 1094 q 446 1121 433 1108 q 458 1149 458 1133 q 444 1175 458 1165 q 390 1185 431 1185 q 353 1182 368 1185 q 322 1174 338 1179 l 322 1290 q 360 1298 338 1294 q 410 1301 383 1301 q 533 1274 490 1301 q 576 1192 576 1246 q 542 1106 576 1140 q 458 1056 507 1072 q 368 1039 408 1039 z "},"Ȇ":{"ha":794,"x_min":56,"x_max":739,"o":"m 346 0 q 199 39 265 0 q 94 144 133 78 q 56 290 56 210 q 81 400 56 349 q 149 490 106 451 q 81 581 106 529 q 56 689 56 632 q 94 832 56 768 q 197 934 132 896 q 339 972 261 972 l 739 972 l 739 797 l 361 797 q 308 783 332 797 q 269 744 283 768 q 254 689 254 719 q 269 635 254 660 q 308 597 283 611 q 361 582 332 582 l 692 582 l 692 407 l 369 407 q 311 391 338 407 q 269 349 285 375 q 254 290 254 322 q 269 232 254 258 q 311 190 285 206 q 369 175 338 175 l 739 175 l 739 0 l 346 0 z "},"Ē":{"ha":794,"x_min":56,"x_max":739,"o":"m 346 0 q 199 39 265 0 q 94 144 133 78 q 56 290 56 210 q 81 400 56 349 q 149 490 106 451 q 81 581 106 529 q 56 689 56 632 q 94 832 56 768 q 197 934 132 896 q 339 972 261 972 l 739 972 l 739 797 l 361 797 q 308 783 332 797 q 269 744 283 768 q 254 689 254 719 q 269 635 254 660 q 308 597 283 611 q 361 582 332 582 l 692 582 l 692 407 l 369 407 q 311 391 338 407 q 269 349 285 375 q 254 290 254 322 q 269 232 254 258 q 311 190 285 206 q 369 175 338 175 l 739 175 l 739 0 l 346 0 m 249 1065 l 249 1188 l 665 1188 l 665 1065 l 249 1065 z "},"Ę":{"ha":794,"x_min":56,"x_max":739,"o":"m 667 -303 q 538 -264 592 -303 q 485 -144 485 -225 q 508 -63 485 -107 q 561 21 531 -19 q 616 88 592 61 q 644 119 640 115 l 693 92 q 676 65 690 88 q 644 12 661 43 q 615 -52 628 -19 q 603 -111 603 -85 q 625 -165 603 -144 q 679 -186 647 -186 q 710 -183 694 -186 q 739 -175 725 -181 l 739 -293 q 703 -300 725 -297 q 667 -303 682 -303 m 346 0 q 199 39 265 0 q 94 144 133 78 q 56 290 56 210 q 81 400 56 349 q 149 490 106 451 q 81 581 106 529 q 56 689 56 632 q 94 832 56 768 q 197 934 132 896 q 339 972 261 972 l 739 972 l 739 797 l 361 797 q 308 783 332 797 q 269 744 283 768 q 254 689 254 719 q 269 635 254 660 q 308 597 283 611 q 361 582 332 582 l 692 582 l 692 407 l 369 407 q 311 391 338 407 q 269 349 285 375 q 254 290 254 322 q 269 232 254 258 q 311 190 285 206 q 369 175 338 175 l 739 175 l 739 0 l 346 0 z "},"Ẽ":{"ha":794,"x_min":56,"x_max":739,"o":"m 346 0 q 199 39 265 0 q 94 144 133 78 q 56 290 56 210 q 81 400 56 349 q 149 490 106 451 q 81 581 106 529 q 56 689 56 632 q 94 832 56 768 q 197 934 132 896 q 339 972 261 972 l 739 972 l 739 797 l 361 797 q 308 783 332 797 q 269 744 283 768 q 254 689 254 719 q 269 635 254 660 q 308 597 283 611 q 361 582 332 582 l 692 582 l 692 407 l 369 407 q 311 391 338 407 q 269 349 285 375 q 254 290 254 322 q 269 232 254 258 q 311 190 285 206 q 369 175 338 175 l 739 175 l 739 0 l 346 0 m 533 1038 q 472 1046 496 1038 q 432 1067 447 1054 q 403 1092 417 1081 q 380 1110 390 1103 q 358 1117 369 1117 q 339 1109 347 1117 q 331 1089 331 1101 l 331 1051 l 214 1051 l 214 1086 q 256 1194 214 1151 q 365 1236 299 1236 q 442 1217 413 1236 q 493 1182 472 1197 q 517 1165 506 1172 q 540 1157 529 1157 q 560 1164 551 1157 q 568 1185 568 1171 l 568 1222 l 685 1222 l 685 1188 q 642 1080 685 1122 q 533 1038 600 1038 z "},"F":{"ha":764,"x_min":81,"x_max":715,"o":"m 81 0 l 81 689 q 119 832 81 768 q 222 934 157 896 q 364 972 286 972 l 715 972 l 715 797 l 386 797 q 310 765 342 797 q 279 689 279 733 l 279 532 l 668 532 l 668 357 l 279 357 l 279 0 l 81 0 z "},"G":{"ha":1103,"x_min":42,"x_max":1033,"o":"m 789 -303 q 651 -274 708 -303 q 563 -192 593 -246 q 533 -64 533 -137 q 535 -27 533 -46 q 539 11 536 -8 q 333 49 425 11 q 176 155 242 88 q 76 311 111 222 q 42 500 42 400 q 76 690 42 601 q 176 845 111 778 q 333 951 242 913 q 538 989 425 989 q 742 952 650 989 q 899 849 833 915 q 999 698 964 783 q 1033 514 1033 613 l 1033 -39 q 1007 -172 1033 -111 q 926 -267 981 -232 q 789 -303 872 -303 m 776 -125 q 820 -102 806 -125 q 835 -42 835 -79 l 835 203 q 763 122 788 161 q 729 50 739 83 q 719 -7 719 17 q 718 -42 718 -31 q 726 -87 718 -68 q 747 -115 733 -106 q 776 -125 761 -125 m 538 186 q 575 188 557 186 q 611 194 593 190 q 667 267 635 231 q 740 338 699 303 q 835 404 782 372 l 835 514 q 813 633 835 578 q 750 728 790 688 q 656 791 710 768 q 538 814 601 814 q 419 790 474 814 q 325 724 365 767 q 263 624 285 682 q 240 500 240 567 q 263 376 240 433 q 325 276 285 318 q 419 210 365 233 q 538 186 474 186 z "},"Ğ":{"ha":1103,"x_min":42,"x_max":1033,"o":"m 789 -303 q 651 -274 708 -303 q 563 -192 593 -246 q 533 -64 533 -137 q 535 -27 533 -46 q 539 11 536 -8 q 333 49 425 11 q 176 155 242 88 q 76 311 111 222 q 42 500 42 400 q 76 690 42 601 q 176 845 111 778 q 333 951 242 913 q 538 989 425 989 q 742 952 650 989 q 899 849 833 915 q 999 698 964 783 q 1033 514 1033 613 l 1033 -39 q 1007 -172 1033 -111 q 926 -267 981 -232 q 789 -303 872 -303 m 776 -125 q 820 -102 806 -125 q 835 -42 835 -79 l 835 203 q 763 122 788 161 q 729 50 739 83 q 719 -7 719 17 q 718 -42 718 -31 q 726 -87 718 -68 q 747 -115 733 -106 q 776 -125 761 -125 m 538 186 q 575 188 557 186 q 611 194 593 190 q 667 267 635 231 q 740 338 699 303 q 835 404 782 372 l 835 514 q 813 633 835 578 q 750 728 790 688 q 656 791 710 768 q 538 814 601 814 q 419 790 474 814 q 325 724 365 767 q 263 624 285 682 q 240 500 240 567 q 263 376 240 433 q 325 276 285 318 q 419 210 365 233 q 538 186 474 186 m 588 1039 q 497 1063 538 1039 q 431 1128 456 1088 q 407 1219 407 1169 l 515 1219 q 536 1167 515 1189 q 588 1146 557 1146 q 640 1167 619 1146 q 661 1219 661 1189 l 767 1219 q 742 1128 767 1169 q 678 1063 718 1088 q 588 1039 638 1039 z "},"Ǧ":{"ha":1103,"x_min":42,"x_max":1033,"o":"m 789 -303 q 651 -274 708 -303 q 563 -192 593 -246 q 533 -64 533 -137 q 535 -27 533 -46 q 539 11 536 -8 q 333 49 425 11 q 176 155 242 88 q 76 311 111 222 q 42 500 42 400 q 76 690 42 601 q 176 845 111 778 q 333 951 242 913 q 538 989 425 989 q 742 952 650 989 q 899 849 833 915 q 999 698 964 783 q 1033 514 1033 613 l 1033 -39 q 1007 -172 1033 -111 q 926 -267 981 -232 q 789 -303 872 -303 m 776 -125 q 820 -102 806 -125 q 835 -42 835 -79 l 835 203 q 763 122 788 161 q 729 50 739 83 q 719 -7 719 17 q 718 -42 718 -31 q 726 -87 718 -68 q 747 -115 733 -106 q 776 -125 761 -125 m 538 186 q 575 188 557 186 q 611 194 593 190 q 667 267 635 231 q 740 338 699 303 q 835 404 782 372 l 835 514 q 813 633 835 578 q 750 728 790 688 q 656 791 710 768 q 538 814 601 814 q 419 790 474 814 q 325 724 365 767 q 263 624 285 682 q 240 500 240 567 q 263 376 240 433 q 325 276 285 318 q 419 210 365 233 q 538 186 474 186 m 450 1051 l 333 1222 l 488 1222 l 551 1128 l 617 1222 l 771 1222 l 654 1051 l 450 1051 z "},"Ĝ":{"ha":1103,"x_min":42,"x_max":1033,"o":"m 789 -303 q 651 -274 708 -303 q 563 -192 593 -246 q 533 -64 533 -137 q 535 -27 533 -46 q 539 11 536 -8 q 333 49 425 11 q 176 155 242 88 q 76 311 111 222 q 42 500 42 400 q 76 690 42 601 q 176 845 111 778 q 333 951 242 913 q 538 989 425 989 q 742 952 650 989 q 899 849 833 915 q 999 698 964 783 q 1033 514 1033 613 l 1033 -39 q 1007 -172 1033 -111 q 926 -267 981 -232 q 789 -303 872 -303 m 776 -125 q 820 -102 806 -125 q 835 -42 835 -79 l 835 203 q 763 122 788 161 q 729 50 739 83 q 719 -7 719 17 q 718 -42 718 -31 q 726 -87 718 -68 q 747 -115 733 -106 q 776 -125 761 -125 m 538 186 q 575 188 557 186 q 611 194 593 190 q 667 267 635 231 q 740 338 699 303 q 835 404 782 372 l 835 514 q 813 633 835 578 q 750 728 790 688 q 656 791 710 768 q 538 814 601 814 q 419 790 474 814 q 325 724 365 767 q 263 624 285 682 q 240 500 240 567 q 263 376 240 433 q 325 276 285 318 q 419 210 365 233 q 538 186 474 186 m 333 1051 l 450 1222 l 654 1222 l 771 1051 l 617 1051 l 551 1146 l 488 1051 l 333 1051 z "},"Ģ":{"ha":1103,"x_min":42,"x_max":1033,"o":"m 789 -303 q 651 -274 708 -303 q 563 -192 593 -246 q 533 -64 533 -137 q 535 -27 533 -46 q 539 11 536 -8 q 333 49 425 11 q 176 155 242 88 q 76 311 111 222 q 42 500 42 400 q 76 690 42 601 q 176 845 111 778 q 333 951 242 913 q 538 989 425 989 q 742 952 650 989 q 899 849 833 915 q 999 698 964 783 q 1033 514 1033 613 l 1033 -39 q 1007 -172 1033 -111 q 926 -267 981 -232 q 789 -303 872 -303 m 776 -125 q 820 -102 806 -125 q 835 -42 835 -79 l 835 203 q 763 122 788 161 q 729 50 739 83 q 719 -7 719 17 q 718 -42 718 -31 q 726 -87 718 -68 q 747 -115 733 -106 q 776 -125 761 -125 m 538 186 q 575 188 557 186 q 611 194 593 190 q 667 267 635 231 q 740 338 699 303 q 835 404 782 372 l 835 514 q 813 633 835 578 q 750 728 790 688 q 656 791 710 768 q 538 814 601 814 q 419 790 474 814 q 325 724 365 767 q 263 624 285 682 q 240 500 240 567 q 263 376 240 433 q 325 276 285 318 q 419 210 365 233 q 538 186 474 186 m 260 -422 l 311 -275 q 260 -233 276 -264 q 243 -172 243 -203 q 275 -97 243 -128 q 351 -67 307 -67 q 431 -101 401 -67 q 460 -179 460 -135 q 438 -272 460 -217 l 376 -422 l 260 -422 z "},"Ġ":{"ha":1103,"x_min":42,"x_max":1033,"o":"m 789 -303 q 651 -274 708 -303 q 563 -192 593 -246 q 533 -64 533 -137 q 535 -27 533 -46 q 539 11 536 -8 q 333 49 425 11 q 176 155 242 88 q 76 311 111 222 q 42 500 42 400 q 76 690 42 601 q 176 845 111 778 q 333 951 242 913 q 538 989 425 989 q 742 952 650 989 q 899 849 833 915 q 999 698 964 783 q 1033 514 1033 613 l 1033 -39 q 1007 -172 1033 -111 q 926 -267 981 -232 q 789 -303 872 -303 m 776 -125 q 820 -102 806 -125 q 835 -42 835 -79 l 835 203 q 763 122 788 161 q 729 50 739 83 q 719 -7 719 17 q 718 -42 718 -31 q 726 -87 718 -68 q 747 -115 733 -106 q 776 -125 761 -125 m 538 186 q 575 188 557 186 q 611 194 593 190 q 667 267 635 231 q 740 338 699 303 q 835 404 782 372 l 835 514 q 813 633 835 578 q 750 728 790 688 q 656 791 710 768 q 538 814 601 814 q 419 790 474 814 q 325 724 365 767 q 263 624 285 682 q 240 500 240 567 q 263 376 240 433 q 325 276 285 318 q 419 210 365 233 q 538 186 474 186 m 544 1039 q 460 1074 496 1039 q 425 1158 425 1110 q 460 1242 425 1207 q 544 1278 496 1278 q 628 1242 593 1278 q 664 1158 664 1207 q 628 1074 664 1110 q 544 1039 593 1039 z "},"H":{"ha":1017,"x_min":97,"x_max":919,"o":"m 97 0 l 97 972 l 296 972 l 296 582 l 721 582 l 721 972 l 919 972 l 919 0 l 721 0 l 721 407 l 296 407 l 296 0 l 97 0 z "},"Ħ":{"ha":1017,"x_min":29,"x_max":988,"o":"m 29 715 l 29 825 l 988 825 l 988 715 l 29 715 m 97 0 l 97 972 l 296 972 l 296 582 l 721 582 l 721 972 l 919 972 l 919 0 l 721 0 l 721 407 l 296 407 l 296 0 l 97 0 z "},"Ĥ":{"ha":1017,"x_min":97,"x_max":919,"o":"m 97 0 l 97 972 l 296 972 l 296 582 l 721 582 l 721 972 l 919 972 l 919 0 l 721 0 l 721 407 l 296 407 l 296 0 l 97 0 m 292 1051 l 408 1222 l 613 1222 l 729 1051 l 575 1051 l 510 1146 l 446 1051 l 292 1051 z "},"I":{"ha":693,"x_min":72,"x_max":621,"o":"m 72 0 l 72 175 l 247 175 l 247 797 l 72 797 l 72 972 l 621 972 l 621 797 l 446 797 l 446 175 l 621 175 l 621 0 l 72 0 z "},"Ĳ":{"ha":1290,"x_min":72,"x_max":1193,"o":"m 72 0 l 72 175 l 247 175 l 247 797 l 72 797 l 72 972 l 621 972 l 621 797 l 446 797 l 446 175 l 621 175 l 621 0 l 72 0 m 949 -303 q 810 -274 868 -303 q 723 -192 753 -246 q 693 -64 693 -137 q 719 81 693 1 q 810 242 744 160 q 996 394 876 324 l 996 797 l 801 797 l 801 972 l 1193 972 l 1193 -39 q 1167 -172 1193 -111 q 1086 -267 1140 -232 q 949 -303 1032 -303 m 936 -125 q 969 -115 956 -125 q 988 -85 982 -104 q 994 -42 994 -67 l 994 193 q 908 92 932 140 q 881 8 883 43 q 878 -42 878 -28 q 895 -103 878 -82 q 936 -125 913 -125 z "},"Í":{"ha":693,"x_min":72,"x_max":621,"o":"m 72 0 l 72 175 l 247 175 l 247 797 l 72 797 l 72 972 l 621 972 l 621 797 l 446 797 l 446 175 l 621 175 l 621 0 l 72 0 m 244 1053 l 361 1224 l 540 1224 l 424 1053 l 244 1053 z "},"Ĭ":{"ha":693,"x_min":72,"x_max":621,"o":"m 72 0 l 72 175 l 247 175 l 247 797 l 72 797 l 72 972 l 621 972 l 621 797 l 446 797 l 446 175 l 621 175 l 621 0 l 72 0 m 379 1039 q 288 1063 329 1039 q 223 1128 247 1088 q 199 1219 199 1169 l 307 1219 q 328 1167 307 1189 q 379 1146 349 1146 q 432 1167 411 1146 q 453 1219 453 1189 l 558 1219 q 534 1128 558 1169 q 469 1063 510 1088 q 379 1039 429 1039 z "},"Ǐ":{"ha":693,"x_min":72,"x_max":621,"o":"m 72 0 l 72 175 l 247 175 l 247 797 l 72 797 l 72 972 l 621 972 l 621 797 l 446 797 l 446 175 l 621 175 l 621 0 l 72 0 m 242 1051 l 125 1222 l 279 1222 l 343 1128 l 408 1222 l 563 1222 l 446 1051 l 242 1051 z "},"Î":{"ha":693,"x_min":72,"x_max":621,"o":"m 72 0 l 72 175 l 247 175 l 247 797 l 72 797 l 72 972 l 621 972 l 621 797 l 446 797 l 446 175 l 621 175 l 621 0 l 72 0 m 129 1051 l 246 1222 l 450 1222 l 567 1051 l 413 1051 l 347 1146 l 283 1051 l 129 1051 z "},"Ȉ":{"ha":693,"x_min":65,"x_max":621,"o":"m 72 0 l 72 175 l 247 175 l 247 797 l 72 797 l 72 972 l 621 972 l 621 797 l 446 797 l 446 175 l 621 175 l 621 0 l 72 0 m 446 1051 l 313 1246 l 472 1246 l 606 1051 l 446 1051 m 199 1051 l 65 1246 l 225 1246 l 358 1051 l 199 1051 z "},"Ï":{"ha":693,"x_min":72,"x_max":621,"o":"m 72 0 l 72 175 l 247 175 l 247 797 l 72 797 l 72 972 l 621 972 l 621 797 l 446 797 l 446 175 l 621 175 l 621 0 l 72 0 z "},"İ":{"ha":693,"x_min":72,"x_max":621,"o":"m 72 0 l 72 175 l 247 175 l 247 797 l 72 797 l 72 972 l 621 972 l 621 797 l 446 797 l 446 175 l 621 175 l 621 0 l 72 0 m 346 1039 q 262 1074 297 1039 q 226 1158 226 1110 q 262 1242 226 1207 q 346 1278 297 1278 q 430 1242 394 1278 q 465 1158 465 1207 q 430 1074 465 1110 q 346 1039 394 1039 z "},"Ị":{"ha":693,"x_min":72,"x_max":621,"o":"m 72 0 l 72 175 l 247 175 l 247 797 l 72 797 l 72 972 l 621 972 l 621 797 l 446 797 l 446 175 l 621 175 l 621 0 l 72 0 z "},"Ì":{"ha":693,"x_min":72,"x_max":621,"o":"m 72 0 l 72 175 l 247 175 l 247 797 l 72 797 l 72 972 l 621 972 l 621 797 l 446 797 l 446 175 l 621 175 l 621 0 l 72 0 m 271 1051 l 154 1222 l 333 1222 l 450 1051 l 271 1051 z "},"Ỉ":{"ha":693,"x_min":72,"x_max":621,"o":"m 72 0 l 72 175 l 247 175 l 247 797 l 72 797 l 72 972 l 621 972 l 621 797 l 446 797 l 446 175 l 621 175 l 621 0 l 72 0 m 276 1038 l 276 1093 q 322 1100 301 1093 q 354 1119 342 1107 q 367 1147 367 1132 q 353 1174 367 1164 q 299 1183 339 1183 q 261 1181 276 1183 q 231 1172 246 1178 l 231 1289 q 269 1297 246 1293 q 318 1300 292 1300 q 442 1272 399 1300 q 485 1190 485 1244 q 450 1105 485 1139 q 366 1054 415 1071 q 276 1038 317 1038 z "},"Ȋ":{"ha":693,"x_min":72,"x_max":621,"o":"m 72 0 l 72 175 l 247 175 l 247 797 l 72 797 l 72 972 l 621 972 l 621 797 l 446 797 l 446 175 l 621 175 l 621 0 l 72 0 z "},"Ī":{"ha":693,"x_min":72,"x_max":621,"o":"m 72 0 l 72 175 l 247 175 l 247 797 l 72 797 l 72 972 l 621 972 l 621 797 l 446 797 l 446 175 l 621 175 l 621 0 l 72 0 m 125 1049 l 125 1171 l 542 1171 l 542 1049 l 125 1049 z "},"Į":{"ha":693,"x_min":72,"x_max":621,"o":"m 549 -303 q 420 -264 474 -303 q 367 -144 367 -225 q 390 -63 367 -107 q 443 21 413 -19 q 498 88 474 61 q 526 119 522 115 l 575 92 q 558 65 572 88 q 526 12 543 43 q 497 -52 510 -19 q 485 -111 485 -85 q 507 -165 485 -144 q 561 -186 529 -186 q 592 -183 576 -186 q 621 -175 607 -181 l 621 -293 q 585 -300 607 -297 q 549 -303 564 -303 m 72 0 l 72 175 l 247 175 l 247 797 l 72 797 l 72 972 l 621 972 l 621 797 l 446 797 l 446 175 l 621 175 l 621 0 l 72 0 z "},"Ĩ":{"ha":693,"x_min":72,"x_max":621,"o":"m 72 0 l 72 175 l 247 175 l 247 797 l 72 797 l 72 972 l 621 972 l 621 797 l 446 797 l 446 175 l 621 175 l 621 0 l 72 0 m 431 1038 q 369 1046 393 1038 q 329 1067 344 1054 q 300 1092 314 1081 q 277 1110 288 1103 q 256 1117 267 1117 q 236 1109 244 1117 q 228 1089 228 1101 l 228 1051 l 111 1051 l 111 1086 q 153 1194 111 1151 q 263 1236 196 1236 q 340 1217 310 1236 q 390 1182 369 1197 q 415 1165 403 1172 q 438 1157 426 1157 q 457 1164 449 1157 q 465 1185 465 1171 l 465 1222 l 582 1222 l 582 1188 q 540 1080 582 1122 q 431 1038 497 1038 z "},"J":{"ha":597,"x_min":0,"x_max":500,"o":"m 256 -303 q 117 -274 175 -303 q 30 -192 60 -246 q 0 -64 0 -137 q 26 81 0 1 q 117 242 51 160 q 303 394 183 324 l 303 797 l 108 797 l 108 972 l 500 972 l 500 -39 q 474 -172 500 -111 q 393 -267 447 -232 q 256 -303 339 -303 m 243 -125 q 276 -115 263 -125 q 295 -85 289 -104 q 301 -42 301 -67 l 301 193 q 215 92 239 140 q 188 8 190 43 q 185 -42 185 -28 q 202 -103 185 -82 q 243 -125 219 -125 z "},"Ĵ":{"ha":597,"x_min":0,"x_max":528,"o":"m 256 -303 q 117 -274 175 -303 q 30 -192 60 -246 q 0 -64 0 -137 q 26 81 0 1 q 117 242 51 160 q 303 394 183 324 l 303 797 l 108 797 l 108 972 l 500 972 l 500 -39 q 474 -172 500 -111 q 393 -267 447 -232 q 256 -303 339 -303 m 243 -125 q 276 -115 263 -125 q 295 -85 289 -104 q 301 -42 301 -67 l 301 193 q 215 92 239 140 q 188 8 190 43 q 185 -42 185 -28 q 202 -103 185 -82 q 243 -125 219 -125 m 90 1053 l 207 1224 l 411 1224 l 528 1053 l 374 1053 l 308 1147 l 244 1053 l 90 1053 z "},"K":{"ha":942,"x_min":97,"x_max":928,"o":"m 97 0 l 97 972 l 296 972 l 296 568 l 481 568 q 567 587 528 568 q 628 642 606 606 q 651 728 651 678 l 651 972 l 850 972 l 850 728 q 804 556 850 631 q 683 439 758 482 l 800 193 q 813 179 804 183 q 833 175 822 175 l 928 175 l 928 0 l 803 0 q 689 28 733 0 q 621 106 644 57 l 483 393 q 457 393 469 393 q 431 393 444 393 l 296 393 l 296 0 l 97 0 z "},"Ķ":{"ha":942,"x_min":97,"x_max":928,"o":"m 97 0 l 97 972 l 296 972 l 296 568 l 481 568 q 567 587 528 568 q 628 642 606 606 q 651 728 651 678 l 651 972 l 850 972 l 850 728 q 804 556 850 631 q 683 439 758 482 l 800 193 q 813 179 804 183 q 833 175 822 175 l 928 175 l 928 0 l 803 0 q 689 28 733 0 q 621 106 644 57 l 483 393 q 457 393 469 393 q 431 393 444 393 l 296 393 l 296 0 l 97 0 m 419 -422 l 471 -275 q 419 -233 436 -264 q 403 -172 403 -203 q 435 -97 403 -128 q 511 -67 467 -67 q 590 -101 561 -67 q 619 -179 619 -135 q 597 -272 619 -217 l 536 -422 l 419 -422 z "},"L":{"ha":654,"x_min":81,"x_max":626,"o":"m 369 0 q 218 40 283 0 q 117 145 153 79 q 81 290 81 211 l 81 972 l 279 972 l 279 267 q 306 202 279 229 q 369 175 332 175 l 626 175 l 626 0 l 369 0 z "},"Ǉ":{"ha":993,"x_min":81,"x_max":896,"o":"m 369 0 q 218 40 283 0 q 117 145 153 79 q 81 290 81 211 l 81 972 l 279 972 l 279 267 q 306 202 279 229 q 369 175 332 175 l 467 175 l 467 0 l 369 0 m 651 -303 q 513 -274 571 -303 q 426 -192 456 -246 q 396 -64 396 -137 q 422 81 396 1 q 513 242 447 160 q 699 394 579 324 l 699 797 l 504 797 l 504 972 l 896 972 l 896 -39 q 869 -172 896 -111 q 789 -267 843 -232 q 651 -303 735 -303 m 639 -125 q 672 -115 658 -125 q 691 -85 685 -104 q 697 -42 697 -67 l 697 193 q 610 92 635 140 q 583 8 586 43 q 581 -42 581 -28 q 598 -103 581 -82 q 639 -125 615 -125 z "},"Ĺ":{"ha":654,"x_min":81,"x_max":626,"o":"m 369 0 q 218 40 283 0 q 117 145 153 79 q 81 290 81 211 l 81 972 l 279 972 l 279 267 q 306 202 279 229 q 369 175 332 175 l 626 175 l 626 0 l 369 0 m 129 1053 l 246 1224 l 425 1224 l 308 1053 l 129 1053 z "},"Ľ":{"ha":654,"x_min":81,"x_max":626,"o":"m 369 0 q 218 40 283 0 q 117 145 153 79 q 81 290 81 211 l 81 972 l 279 972 l 279 267 q 306 202 279 229 q 369 175 332 175 l 626 175 l 626 0 l 369 0 m 388 768 l 439 915 q 388 957 404 926 q 371 1018 371 988 q 403 1093 371 1063 q 479 1124 435 1124 q 558 1090 529 1124 q 588 1011 588 1056 q 565 918 588 974 l 504 768 l 388 768 z "},"Ļ":{"ha":654,"x_min":81,"x_max":626,"o":"m 369 0 q 218 40 283 0 q 117 145 153 79 q 81 290 81 211 l 81 972 l 279 972 l 279 267 q 306 202 279 229 q 369 175 332 175 l 626 175 l 626 0 l 369 0 m 282 -422 l 333 -275 q 282 -233 299 -264 q 265 -172 265 -203 q 297 -97 265 -128 q 374 -67 329 -67 q 453 -101 424 -67 q 482 -179 482 -135 q 460 -272 482 -217 l 399 -422 l 282 -422 z "},"Ŀ":{"ha":638,"x_min":81,"x_max":631,"o":"m 501 428 q 410 466 449 428 q 372 557 372 504 q 410 648 372 610 q 501 686 449 686 q 592 648 554 686 q 631 557 631 610 q 592 466 631 504 q 501 428 554 428 m 369 0 q 218 40 283 0 q 117 145 153 79 q 81 290 81 211 l 81 972 l 279 972 l 279 267 q 306 202 279 229 q 369 175 332 175 l 467 175 l 467 0 l 369 0 z "},"ǈ":{"ha":893,"x_min":81,"x_max":803,"o":"m 369 0 q 218 40 283 0 q 117 145 153 79 q 81 290 81 211 l 81 972 l 279 972 l 279 267 q 306 202 279 229 q 369 175 332 175 l 467 175 l 467 0 l 369 0 z "},"Ł":{"ha":675,"x_min":1,"x_max":626,"o":"m 1 433 l 1 543 l 450 650 l 450 540 l 1 433 m 369 0 q 218 40 283 0 q 117 145 153 79 q 81 290 81 211 l 81 972 l 279 972 l 279 267 q 306 202 279 229 q 369 175 332 175 l 626 175 l 626 0 l 369 0 z "},"M":{"ha":1507,"x_min":83,"x_max":1424,"o":"m 753 -15 q 605 22 671 -15 q 501 125 539 60 q 464 275 464 190 l 464 722 q 451 768 464 747 q 418 801 439 789 q 372 814 397 814 q 327 801 347 814 q 294 768 307 789 q 282 722 282 747 l 282 0 l 83 0 l 83 699 q 119 844 83 779 q 221 949 156 910 q 372 989 286 989 q 525 949 460 989 q 626 844 590 910 q 663 699 663 779 l 663 251 q 675 206 663 226 q 708 172 688 185 q 753 160 728 160 q 799 172 778 160 q 832 206 819 185 q 844 251 844 226 l 844 699 q 881 844 844 779 q 983 949 917 910 q 1135 989 1049 989 q 1287 949 1222 989 q 1388 844 1351 910 q 1424 699 1424 779 l 1424 0 l 1225 0 l 1225 722 q 1213 768 1225 747 q 1181 801 1201 789 q 1135 814 1160 814 q 1089 801 1110 814 q 1056 768 1068 789 q 1043 722 1043 747 l 1043 275 q 1005 125 1043 190 q 901 22 967 60 q 753 -15 836 -15 z "},"N":{"ha":1126,"x_min":83,"x_max":1043,"o":"m 753 -17 q 601 23 667 -17 q 500 128 536 63 q 464 274 464 194 l 464 722 q 451 768 464 747 q 418 801 439 789 q 372 814 397 814 q 327 801 347 814 q 294 768 307 789 q 282 722 282 747 l 282 0 l 83 0 l 83 699 q 119 844 83 779 q 221 949 156 910 q 372 989 286 989 q 525 949 460 989 q 626 844 590 910 q 663 699 663 779 l 663 250 q 675 204 663 225 q 708 171 688 183 q 753 158 728 158 q 799 171 778 158 q 832 204 819 183 q 844 250 844 225 l 844 972 l 1043 972 l 1043 274 q 1007 128 1043 194 q 906 23 971 63 q 753 -17 840 -17 z "},"Ǌ":{"ha":1724,"x_min":83,"x_max":1626,"o":"m 753 -17 q 601 23 667 -17 q 500 128 536 63 q 464 274 464 194 l 464 722 q 451 768 464 747 q 418 801 439 789 q 372 814 397 814 q 327 801 347 814 q 294 768 307 789 q 282 722 282 747 l 282 0 l 83 0 l 83 699 q 119 844 83 779 q 221 949 156 910 q 372 989 286 989 q 525 949 460 989 q 626 844 590 910 q 663 699 663 779 l 663 250 q 675 204 663 225 q 708 171 688 183 q 753 158 728 158 q 799 171 778 158 q 832 204 819 183 q 844 250 844 225 l 844 972 l 1043 972 l 1043 274 q 1007 128 1043 194 q 906 23 971 63 q 753 -17 840 -17 m 1382 -303 q 1244 -274 1301 -303 q 1156 -192 1186 -246 q 1126 -64 1126 -137 q 1152 81 1126 1 q 1244 242 1178 160 q 1429 394 1310 324 l 1429 797 l 1235 797 l 1235 972 l 1626 972 l 1626 -39 q 1600 -172 1626 -111 q 1519 -267 1574 -232 q 1382 -303 1465 -303 m 1369 -125 q 1402 -115 1389 -125 q 1422 -85 1415 -104 q 1428 -42 1428 -67 l 1428 193 q 1341 92 1365 140 q 1314 8 1317 43 q 1311 -42 1311 -28 q 1328 -103 1311 -82 q 1369 -125 1346 -125 z "},"Ń":{"ha":1126,"x_min":83,"x_max":1043,"o":"m 753 -17 q 601 23 667 -17 q 500 128 536 63 q 464 274 464 194 l 464 722 q 451 768 464 747 q 418 801 439 789 q 372 814 397 814 q 327 801 347 814 q 294 768 307 789 q 282 722 282 747 l 282 0 l 83 0 l 83 699 q 119 844 83 779 q 221 949 156 910 q 372 989 286 989 q 525 949 460 989 q 626 844 590 910 q 663 699 663 779 l 663 250 q 675 204 663 225 q 708 171 688 183 q 753 158 728 158 q 799 171 778 158 q 832 204 819 183 q 844 250 844 225 l 844 972 l 1043 972 l 1043 274 q 1007 128 1043 194 q 906 23 971 63 q 753 -17 840 -17 m 526 1053 l 643 1224 l 822 1224 l 706 1053 l 526 1053 z "},"Ň":{"ha":1126,"x_min":83,"x_max":1043,"o":"m 753 -17 q 601 23 667 -17 q 500 128 536 63 q 464 274 464 194 l 464 722 q 451 768 464 747 q 418 801 439 789 q 372 814 397 814 q 327 801 347 814 q 294 768 307 789 q 282 722 282 747 l 282 0 l 83 0 l 83 699 q 119 844 83 779 q 221 949 156 910 q 372 989 286 989 q 525 949 460 989 q 626 844 590 910 q 663 699 663 779 l 663 250 q 675 204 663 225 q 708 171 688 183 q 753 158 728 158 q 799 171 778 158 q 832 204 819 183 q 844 250 844 225 l 844 972 l 1043 972 l 1043 274 q 1007 128 1043 194 q 906 23 971 63 q 753 -17 840 -17 m 483 1051 l 367 1222 l 521 1222 l 585 1128 l 650 1222 l 804 1222 l 688 1051 l 483 1051 z "},"Ņ":{"ha":1126,"x_min":83,"x_max":1043,"o":"m 753 -17 q 601 23 667 -17 q 500 128 536 63 q 464 274 464 194 l 464 722 q 451 768 464 747 q 418 801 439 789 q 372 814 397 814 q 327 801 347 814 q 294 768 307 789 q 282 722 282 747 l 282 0 l 83 0 l 83 699 q 119 844 83 779 q 221 949 156 910 q 372 989 286 989 q 525 949 460 989 q 626 844 590 910 q 663 699 663 779 l 663 250 q 675 204 663 225 q 708 171 688 183 q 753 158 728 158 q 799 171 778 158 q 832 204 819 183 q 844 250 844 225 l 844 972 l 1043 972 l 1043 274 q 1007 128 1043 194 q 906 23 971 63 q 753 -17 840 -17 m 490 -422 l 542 -275 q 490 -233 507 -264 q 474 -172 474 -203 q 506 -97 474 -128 q 582 -67 538 -67 q 661 -101 632 -67 q 690 -179 690 -135 q 668 -272 690 -217 l 607 -422 l 490 -422 z "},"Ŋ":{"ha":1126,"x_min":83,"x_max":1043,"o":"m 663 -300 l 663 -122 l 754 -122 q 819 -95 793 -122 q 844 -18 844 -68 l 844 394 l 1043 394 l 1043 -36 q 1017 -169 1043 -108 q 936 -265 990 -229 q 799 -300 882 -300 l 663 -300 m 753 -17 q 601 23 667 -17 q 500 128 536 63 q 464 274 464 194 l 464 722 q 451 768 464 747 q 418 801 439 789 q 372 814 397 814 q 327 801 347 814 q 294 768 307 789 q 282 722 282 747 l 282 0 l 83 0 l 83 699 q 119 844 83 779 q 221 949 156 910 q 372 989 286 989 q 525 949 460 989 q 626 844 590 910 q 663 699 663 779 l 663 250 q 675 204 663 225 q 708 171 688 183 q 753 158 728 158 q 799 171 778 158 q 832 204 819 183 q 844 250 844 225 l 844 972 l 1043 972 l 1043 274 q 1007 128 1043 194 q 906 23 971 63 q 753 -17 840 -17 z "},"ǋ":{"ha":1497,"x_min":83,"x_max":1431,"o":"m 753 -17 q 601 23 667 -17 q 500 128 536 63 q 464 274 464 194 l 464 722 q 451 768 464 747 q 418 801 439 789 q 372 814 397 814 q 327 801 347 814 q 294 768 307 789 q 282 722 282 747 l 282 0 l 83 0 l 83 699 q 119 844 83 779 q 221 949 156 910 q 372 989 286 989 q 525 949 460 989 q 626 844 590 910 q 663 699 663 779 l 663 250 q 675 204 663 225 q 708 171 688 183 q 753 158 728 158 q 799 171 778 158 q 832 204 819 183 q 844 250 844 225 l 844 972 l 1043 972 l 1043 274 q 1007 128 1043 194 q 906 23 971 63 q 753 -17 840 -17 z "},"Ñ":{"ha":1126,"x_min":83,"x_max":1043,"o":"m 753 -17 q 601 23 667 -17 q 500 128 536 63 q 464 274 464 194 l 464 722 q 451 768 464 747 q 418 801 439 789 q 372 814 397 814 q 327 801 347 814 q 294 768 307 789 q 282 722 282 747 l 282 0 l 83 0 l 83 699 q 119 844 83 779 q 221 949 156 910 q 372 989 286 989 q 525 949 460 989 q 626 844 590 910 q 663 699 663 779 l 663 250 q 675 204 663 225 q 708 171 688 183 q 753 158 728 158 q 799 171 778 158 q 832 204 819 183 q 844 250 844 225 l 844 972 l 1043 972 l 1043 274 q 1007 128 1043 194 q 906 23 971 63 q 753 -17 840 -17 m 663 1038 q 601 1046 625 1038 q 561 1067 576 1054 q 532 1092 546 1081 q 509 1110 519 1103 q 488 1117 499 1117 q 468 1109 476 1117 q 460 1089 460 1101 l 460 1051 l 343 1051 l 343 1086 q 385 1194 343 1151 q 494 1236 428 1236 q 572 1217 542 1236 q 622 1182 601 1197 q 647 1165 635 1172 q 669 1157 658 1157 q 689 1164 681 1157 q 697 1185 697 1171 l 697 1222 l 814 1222 l 814 1188 q 772 1080 814 1122 q 663 1038 729 1038 z "},"O":{"ha":1103,"x_min":42,"x_max":1061,"o":"m 551 -18 q 341 22 435 -18 q 181 131 247 61 q 78 292 114 200 q 42 488 42 383 q 78 683 42 592 q 181 843 114 774 q 341 951 247 913 q 551 990 435 990 q 762 951 668 990 q 922 843 856 913 q 1025 683 989 774 q 1061 488 1061 592 q 1025 292 1061 383 q 922 131 989 200 q 762 22 856 61 q 551 -18 668 -18 m 551 158 q 675 183 618 158 q 774 252 732 207 q 840 357 817 297 q 863 488 863 417 q 840 618 863 558 q 774 722 817 678 q 675 791 732 767 q 551 815 618 815 q 428 791 485 815 q 328 722 371 767 q 263 618 286 678 q 240 488 240 558 q 263 357 240 417 q 328 252 286 297 q 428 183 371 207 q 551 158 485 158 z "},"Ó":{"ha":1103,"x_min":42,"x_max":1061,"o":"m 551 -18 q 341 22 435 -18 q 181 131 247 61 q 78 292 114 200 q 42 488 42 383 q 78 683 42 592 q 181 843 114 774 q 341 951 247 913 q 551 990 435 990 q 762 951 668 990 q 922 843 856 913 q 1025 683 989 774 q 1061 488 1061 592 q 1025 292 1061 383 q 922 131 989 200 q 762 22 856 61 q 551 -18 668 -18 m 551 158 q 675 183 618 158 q 774 252 732 207 q 840 357 817 297 q 863 488 863 417 q 840 618 863 558 q 774 722 817 678 q 675 791 732 767 q 551 815 618 815 q 428 791 485 815 q 328 722 371 767 q 263 618 286 678 q 240 488 240 558 q 263 357 240 417 q 328 252 286 297 q 428 183 371 207 q 551 158 485 158 m 464 1051 l 581 1222 l 760 1222 l 643 1051 l 464 1051 z "},"Ŏ":{"ha":1103,"x_min":42,"x_max":1061,"o":"m 551 -18 q 341 22 435 -18 q 181 131 247 61 q 78 292 114 200 q 42 488 42 383 q 78 683 42 592 q 181 843 114 774 q 341 951 247 913 q 551 990 435 990 q 762 951 668 990 q 922 843 856 913 q 1025 683 989 774 q 1061 488 1061 592 q 1025 292 1061 383 q 922 131 989 200 q 762 22 856 61 q 551 -18 668 -18 m 551 158 q 675 183 618 158 q 774 252 732 207 q 840 357 817 297 q 863 488 863 417 q 840 618 863 558 q 774 722 817 678 q 675 791 732 767 q 551 815 618 815 q 428 791 485 815 q 328 722 371 767 q 263 618 286 678 q 240 488 240 558 q 263 357 240 417 q 328 252 286 297 q 428 183 371 207 q 551 158 485 158 m 569 1038 q 478 1062 519 1038 q 413 1127 438 1086 q 389 1218 389 1168 l 497 1218 q 518 1166 497 1188 q 569 1144 539 1144 q 622 1166 601 1144 q 643 1218 643 1188 l 749 1218 q 724 1127 749 1168 q 660 1062 700 1086 q 569 1038 619 1038 z "},"Ǒ":{"ha":1103,"x_min":42,"x_max":1061,"o":"m 551 -18 q 341 22 435 -18 q 181 131 247 61 q 78 292 114 200 q 42 488 42 383 q 78 683 42 592 q 181 843 114 774 q 341 951 247 913 q 551 990 435 990 q 762 951 668 990 q 922 843 856 913 q 1025 683 989 774 q 1061 488 1061 592 q 1025 292 1061 383 q 922 131 989 200 q 762 22 856 61 q 551 -18 668 -18 m 551 158 q 675 183 618 158 q 774 252 732 207 q 840 357 817 297 q 863 488 863 417 q 840 618 863 558 q 774 722 817 678 q 675 791 732 767 q 551 815 618 815 q 428 791 485 815 q 328 722 371 767 q 263 618 286 678 q 240 488 240 558 q 263 357 240 417 q 328 252 286 297 q 428 183 371 207 q 551 158 485 158 m 450 1051 l 333 1222 l 488 1222 l 551 1128 l 617 1222 l 771 1222 l 654 1051 l 450 1051 z "},"Ô":{"ha":1103,"x_min":42,"x_max":1061,"o":"m 551 -18 q 341 22 435 -18 q 181 131 247 61 q 78 292 114 200 q 42 488 42 383 q 78 683 42 592 q 181 843 114 774 q 341 951 247 913 q 551 990 435 990 q 762 951 668 990 q 922 843 856 913 q 1025 683 989 774 q 1061 488 1061 592 q 1025 292 1061 383 q 922 131 989 200 q 762 22 856 61 q 551 -18 668 -18 m 551 158 q 675 183 618 158 q 774 252 732 207 q 840 357 817 297 q 863 488 863 417 q 840 618 863 558 q 774 722 817 678 q 675 791 732 767 q 551 815 618 815 q 428 791 485 815 q 328 722 371 767 q 263 618 286 678 q 240 488 240 558 q 263 357 240 417 q 328 252 286 297 q 428 183 371 207 q 551 158 485 158 m 332 1051 l 449 1222 l 653 1222 l 769 1051 l 615 1051 l 550 1146 l 486 1051 l 332 1051 z "},"Ố":{"ha":1103,"x_min":42,"x_max":1061,"o":"m 551 -18 q 341 22 435 -18 q 181 131 247 61 q 78 292 114 200 q 42 488 42 383 q 78 683 42 592 q 181 843 114 774 q 341 951 247 913 q 551 990 435 990 q 762 951 668 990 q 922 843 856 913 q 1025 683 989 774 q 1061 488 1061 592 q 1025 292 1061 383 q 922 131 989 200 q 762 22 856 61 q 551 -18 668 -18 m 551 158 q 675 183 618 158 q 774 252 732 207 q 840 357 817 297 q 863 488 863 417 q 840 618 863 558 q 774 722 817 678 q 675 791 732 767 q 551 815 618 815 q 428 791 485 815 q 328 722 371 767 q 263 618 286 678 q 240 488 240 558 q 263 357 240 417 q 328 252 286 297 q 428 183 371 207 q 551 158 485 158 m 332 1051 l 449 1222 l 653 1222 l 769 1051 l 615 1051 l 550 1146 l 486 1051 l 332 1051 m 471 1264 l 588 1435 l 767 1435 l 650 1264 l 471 1264 z "},"Ộ":{"ha":1103,"x_min":42,"x_max":1061,"o":"m 551 -18 q 341 22 435 -18 q 181 131 247 61 q 78 292 114 200 q 42 488 42 383 q 78 683 42 592 q 181 843 114 774 q 341 951 247 913 q 551 990 435 990 q 762 951 668 990 q 922 843 856 913 q 1025 683 989 774 q 1061 488 1061 592 q 1025 292 1061 383 q 922 131 989 200 q 762 22 856 61 q 551 -18 668 -18 m 551 158 q 675 183 618 158 q 774 252 732 207 q 840 357 817 297 q 863 488 863 417 q 840 618 863 558 q 774 722 817 678 q 675 791 732 767 q 551 815 618 815 q 428 791 485 815 q 328 722 371 767 q 263 618 286 678 q 240 488 240 558 q 263 357 240 417 q 328 252 286 297 q 428 183 371 207 q 551 158 485 158 m 332 1051 l 449 1222 l 653 1222 l 769 1051 l 615 1051 l 550 1146 l 486 1051 l 332 1051 z "},"Ồ":{"ha":1103,"x_min":42,"x_max":1061,"o":"m 551 -18 q 341 22 435 -18 q 181 131 247 61 q 78 292 114 200 q 42 488 42 383 q 78 683 42 592 q 181 843 114 774 q 341 951 247 913 q 551 990 435 990 q 762 951 668 990 q 922 843 856 913 q 1025 683 989 774 q 1061 488 1061 592 q 1025 292 1061 383 q 922 131 989 200 q 762 22 856 61 q 551 -18 668 -18 m 551 158 q 675 183 618 158 q 774 252 732 207 q 840 357 817 297 q 863 488 863 417 q 840 618 863 558 q 774 722 817 678 q 675 791 732 767 q 551 815 618 815 q 428 791 485 815 q 328 722 371 767 q 263 618 286 678 q 240 488 240 558 q 263 357 240 417 q 328 252 286 297 q 428 183 371 207 q 551 158 485 158 m 332 1051 l 449 1222 l 653 1222 l 769 1051 l 615 1051 l 550 1146 l 486 1051 l 332 1051 m 438 1282 l 321 1453 l 500 1453 l 617 1282 l 438 1282 z "},"Ổ":{"ha":1103,"x_min":42,"x_max":1061,"o":"m 551 -18 q 341 22 435 -18 q 181 131 247 61 q 78 292 114 200 q 42 488 42 383 q 78 683 42 592 q 181 843 114 774 q 341 951 247 913 q 551 990 435 990 q 762 951 668 990 q 922 843 856 913 q 1025 683 989 774 q 1061 488 1061 592 q 1025 292 1061 383 q 922 131 989 200 q 762 22 856 61 q 551 -18 668 -18 m 551 158 q 675 183 618 158 q 774 252 732 207 q 840 357 817 297 q 863 488 863 417 q 840 618 863 558 q 774 722 817 678 q 675 791 732 767 q 551 815 618 815 q 428 791 485 815 q 328 722 371 767 q 263 618 286 678 q 240 488 240 558 q 263 357 240 417 q 328 252 286 297 q 428 183 371 207 q 551 158 485 158 m 332 1051 l 449 1222 l 653 1222 l 769 1051 l 615 1051 l 550 1146 l 486 1051 l 332 1051 m 485 1278 l 485 1333 q 530 1340 510 1333 q 563 1360 550 1347 q 575 1388 575 1372 q 561 1414 575 1404 q 507 1424 547 1424 q 469 1421 485 1424 q 439 1413 454 1418 l 439 1529 q 477 1537 454 1533 q 526 1540 500 1540 q 650 1513 607 1540 q 693 1431 693 1485 q 658 1345 693 1379 q 574 1294 624 1311 q 485 1278 525 1278 z "},"Ỗ":{"ha":1103,"x_min":42,"x_max":1061,"o":"m 551 -18 q 341 22 435 -18 q 181 131 247 61 q 78 292 114 200 q 42 488 42 383 q 78 683 42 592 q 181 843 114 774 q 341 951 247 913 q 551 990 435 990 q 762 951 668 990 q 922 843 856 913 q 1025 683 989 774 q 1061 488 1061 592 q 1025 292 1061 383 q 922 131 989 200 q 762 22 856 61 q 551 -18 668 -18 m 551 158 q 675 183 618 158 q 774 252 732 207 q 840 357 817 297 q 863 488 863 417 q 840 618 863 558 q 774 722 817 678 q 675 791 732 767 q 551 815 618 815 q 428 791 485 815 q 328 722 371 767 q 263 618 286 678 q 240 488 240 558 q 263 357 240 417 q 328 252 286 297 q 428 183 371 207 q 551 158 485 158 m 332 1051 l 449 1222 l 653 1222 l 769 1051 l 615 1051 l 550 1146 l 486 1051 l 332 1051 m 636 1282 q 574 1290 599 1282 q 535 1312 550 1299 q 506 1336 519 1325 q 483 1354 493 1347 q 461 1361 472 1361 q 442 1353 450 1361 q 433 1333 433 1346 l 433 1296 l 317 1296 l 317 1331 q 359 1438 317 1396 q 468 1481 401 1481 q 545 1461 515 1481 q 596 1426 575 1442 q 620 1409 608 1417 q 643 1401 632 1401 q 663 1408 654 1401 q 671 1429 671 1415 l 671 1467 l 788 1467 l 788 1432 q 745 1324 788 1367 q 636 1282 703 1282 z "},"Ȍ":{"ha":1103,"x_min":42,"x_max":1061,"o":"m 551 -18 q 341 22 435 -18 q 181 131 247 61 q 78 292 114 200 q 42 488 42 383 q 78 683 42 592 q 181 843 114 774 q 341 951 247 913 q 551 990 435 990 q 762 951 668 990 q 922 843 856 913 q 1025 683 989 774 q 1061 488 1061 592 q 1025 292 1061 383 q 922 131 989 200 q 762 22 856 61 q 551 -18 668 -18 m 551 158 q 675 183 618 158 q 774 252 732 207 q 840 357 817 297 q 863 488 863 417 q 840 618 863 558 q 774 722 817 678 q 675 791 732 767 q 551 815 618 815 q 428 791 485 815 q 328 722 371 767 q 263 618 286 678 q 240 488 240 558 q 263 357 240 417 q 328 252 286 297 q 428 183 371 207 q 551 158 485 158 m 633 1051 l 500 1246 l 660 1246 l 793 1051 l 633 1051 m 386 1051 l 253 1246 l 413 1246 l 546 1051 l 386 1051 z "},"Ö":{"ha":1103,"x_min":42,"x_max":1061,"o":"m 551 -18 q 341 22 435 -18 q 181 131 247 61 q 78 292 114 200 q 42 488 42 383 q 78 683 42 592 q 181 843 114 774 q 341 951 247 913 q 551 990 435 990 q 762 951 668 990 q 922 843 856 913 q 1025 683 989 774 q 1061 488 1061 592 q 1025 292 1061 383 q 922 131 989 200 q 762 22 856 61 q 551 -18 668 -18 m 551 158 q 675 183 618 158 q 774 252 732 207 q 840 357 817 297 q 863 488 863 417 q 840 618 863 558 q 774 722 817 678 q 675 791 732 767 q 551 815 618 815 q 428 791 485 815 q 328 722 371 767 q 263 618 286 678 q 240 488 240 558 q 263 357 240 417 q 328 252 286 297 q 428 183 371 207 q 551 158 485 158 z "},"Ȫ":{"ha":1103,"x_min":42,"x_max":1061,"o":"m 551 -18 q 341 22 435 -18 q 181 131 247 61 q 78 292 114 200 q 42 488 42 383 q 78 683 42 592 q 181 843 114 774 q 341 951 247 913 q 551 990 435 990 q 762 951 668 990 q 922 843 856 913 q 1025 683 989 774 q 1061 488 1061 592 q 1025 292 1061 383 q 922 131 989 200 q 762 22 856 61 q 551 -18 668 -18 m 551 158 q 675 183 618 158 q 774 252 732 207 q 840 357 817 297 q 863 488 863 417 q 840 618 863 558 q 774 722 817 678 q 675 791 732 767 q 551 815 618 815 q 428 791 485 815 q 328 722 371 767 q 263 618 286 678 q 240 488 240 558 q 263 357 240 417 q 328 252 286 297 q 428 183 371 207 q 551 158 485 158 m 328 1292 l 328 1414 l 744 1414 l 744 1292 l 328 1292 z "},"Ȱ":{"ha":1103,"x_min":42,"x_max":1061,"o":"m 551 -18 q 341 22 435 -18 q 181 131 247 61 q 78 292 114 200 q 42 488 42 383 q 78 683 42 592 q 181 843 114 774 q 341 951 247 913 q 551 990 435 990 q 762 951 668 990 q 922 843 856 913 q 1025 683 989 774 q 1061 488 1061 592 q 1025 292 1061 383 q 922 131 989 200 q 762 22 856 61 q 551 -18 668 -18 m 551 158 q 675 183 618 158 q 774 252 732 207 q 840 357 817 297 q 863 488 863 417 q 840 618 863 558 q 774 722 817 678 q 675 791 732 767 q 551 815 618 815 q 428 791 485 815 q 328 722 371 767 q 263 618 286 678 q 240 488 240 558 q 263 357 240 417 q 328 252 286 297 q 428 183 371 207 q 551 158 485 158 m 551 1039 q 467 1074 503 1039 q 432 1158 432 1110 q 467 1242 432 1207 q 551 1278 503 1278 q 635 1242 600 1278 q 671 1158 671 1207 q 635 1074 671 1110 q 551 1039 600 1039 m 343 1314 l 343 1436 l 760 1436 l 760 1314 l 343 1314 z "},"Ọ":{"ha":1103,"x_min":42,"x_max":1061,"o":"m 551 -18 q 341 22 435 -18 q 181 131 247 61 q 78 292 114 200 q 42 488 42 383 q 78 683 42 592 q 181 843 114 774 q 341 951 247 913 q 551 990 435 990 q 762 951 668 990 q 922 843 856 913 q 1025 683 989 774 q 1061 488 1061 592 q 1025 292 1061 383 q 922 131 989 200 q 762 22 856 61 q 551 -18 668 -18 m 551 158 q 675 183 618 158 q 774 252 732 207 q 840 357 817 297 q 863 488 863 417 q 840 618 863 558 q 774 722 817 678 q 675 791 732 767 q 551 815 618 815 q 428 791 485 815 q 328 722 371 767 q 263 618 286 678 q 240 488 240 558 q 263 357 240 417 q 328 252 286 297 q 428 183 371 207 q 551 158 485 158 z "},"Ò":{"ha":1103,"x_min":42,"x_max":1061,"o":"m 551 -18 q 341 22 435 -18 q 181 131 247 61 q 78 292 114 200 q 42 488 42 383 q 78 683 42 592 q 181 843 114 774 q 341 951 247 913 q 551 990 435 990 q 762 951 668 990 q 922 843 856 913 q 1025 683 989 774 q 1061 488 1061 592 q 1025 292 1061 383 q 922 131 989 200 q 762 22 856 61 q 551 -18 668 -18 m 551 158 q 675 183 618 158 q 774 252 732 207 q 840 357 817 297 q 863 488 863 417 q 840 618 863 558 q 774 722 817 678 q 675 791 732 767 q 551 815 618 815 q 428 791 485 815 q 328 722 371 767 q 263 618 286 678 q 240 488 240 558 q 263 357 240 417 q 328 252 286 297 q 428 183 371 207 q 551 158 485 158 m 481 1051 l 364 1222 l 543 1222 l 660 1051 l 481 1051 z "},"Ỏ":{"ha":1103,"x_min":42,"x_max":1061,"o":"m 551 -18 q 341 22 435 -18 q 181 131 247 61 q 78 292 114 200 q 42 488 42 383 q 78 683 42 592 q 181 843 114 774 q 341 951 247 913 q 551 990 435 990 q 762 951 668 990 q 922 843 856 913 q 1025 683 989 774 q 1061 488 1061 592 q 1025 292 1061 383 q 922 131 989 200 q 762 22 856 61 q 551 -18 668 -18 m 551 158 q 675 183 618 158 q 774 252 732 207 q 840 357 817 297 q 863 488 863 417 q 840 618 863 558 q 774 722 817 678 q 675 791 732 767 q 551 815 618 815 q 428 791 485 815 q 328 722 371 767 q 263 618 286 678 q 240 488 240 558 q 263 357 240 417 q 328 252 286 297 q 428 183 371 207 q 551 158 485 158 m 493 1042 l 493 1097 q 538 1104 518 1097 q 571 1124 558 1111 q 583 1151 583 1136 q 569 1178 583 1168 q 515 1188 556 1188 q 478 1185 493 1188 q 447 1176 463 1182 l 447 1293 q 485 1301 463 1297 q 535 1304 508 1304 q 658 1276 615 1304 q 701 1194 701 1249 q 667 1109 701 1143 q 583 1058 632 1075 q 493 1042 533 1042 z "},"Ơ":{"ha":1103,"x_min":42,"x_max":1103,"o":"m 551 -18 q 341 22 435 -18 q 181 131 247 61 q 78 292 114 200 q 42 488 42 383 q 78 683 42 592 q 181 843 114 774 q 341 951 247 913 q 551 990 435 990 q 762 951 668 990 q 922 843 856 913 q 1025 683 989 774 q 1061 488 1061 592 q 1025 292 1061 383 q 922 131 989 200 q 762 22 856 61 q 551 -18 668 -18 m 551 158 q 675 183 618 158 q 774 252 732 207 q 840 357 817 297 q 863 488 863 417 q 840 618 863 558 q 774 722 817 678 q 675 791 732 767 q 551 815 618 815 q 428 791 485 815 q 328 722 371 767 q 263 618 286 678 q 240 488 240 558 q 263 357 240 417 q 328 252 286 297 q 428 183 371 207 q 551 158 485 158 m 858 754 l 858 856 l 903 856 q 936 870 925 856 q 947 901 947 885 l 947 972 l 1103 972 l 1103 896 q 1061 789 1103 824 q 932 754 1019 754 l 858 754 z "},"Ớ":{"ha":1103,"x_min":42,"x_max":1103,"o":"m 551 -18 q 341 22 435 -18 q 181 131 247 61 q 78 292 114 200 q 42 488 42 383 q 78 683 42 592 q 181 843 114 774 q 341 951 247 913 q 551 990 435 990 q 762 951 668 990 q 922 843 856 913 q 1025 683 989 774 q 1061 488 1061 592 q 1025 292 1061 383 q 922 131 989 200 q 762 22 856 61 q 551 -18 668 -18 m 551 158 q 675 183 618 158 q 774 252 732 207 q 840 357 817 297 q 863 488 863 417 q 840 618 863 558 q 774 722 817 678 q 675 791 732 767 q 551 815 618 815 q 428 791 485 815 q 328 722 371 767 q 263 618 286 678 q 240 488 240 558 q 263 357 240 417 q 328 252 286 297 q 428 183 371 207 q 551 158 485 158 m 858 754 l 858 856 l 903 856 q 936 870 925 856 q 947 901 947 885 l 947 972 l 1103 972 l 1103 896 q 1061 789 1103 824 q 932 754 1019 754 l 858 754 m 469 1051 l 586 1222 l 765 1222 l 649 1051 l 469 1051 z "},"Ợ":{"ha":1103,"x_min":42,"x_max":1103,"o":"m 551 -18 q 341 22 435 -18 q 181 131 247 61 q 78 292 114 200 q 42 488 42 383 q 78 683 42 592 q 181 843 114 774 q 341 951 247 913 q 551 990 435 990 q 762 951 668 990 q 922 843 856 913 q 1025 683 989 774 q 1061 488 1061 592 q 1025 292 1061 383 q 922 131 989 200 q 762 22 856 61 q 551 -18 668 -18 m 551 158 q 675 183 618 158 q 774 252 732 207 q 840 357 817 297 q 863 488 863 417 q 840 618 863 558 q 774 722 817 678 q 675 791 732 767 q 551 815 618 815 q 428 791 485 815 q 328 722 371 767 q 263 618 286 678 q 240 488 240 558 q 263 357 240 417 q 328 252 286 297 q 428 183 371 207 q 551 158 485 158 m 858 754 l 858 856 l 903 856 q 936 870 925 856 q 947 901 947 885 l 947 972 l 1103 972 l 1103 896 q 1061 789 1103 824 q 932 754 1019 754 l 858 754 z "},"Ờ":{"ha":1103,"x_min":42,"x_max":1103,"o":"m 551 -18 q 341 22 435 -18 q 181 131 247 61 q 78 292 114 200 q 42 488 42 383 q 78 683 42 592 q 181 843 114 774 q 341 951 247 913 q 551 990 435 990 q 762 951 668 990 q 922 843 856 913 q 1025 683 989 774 q 1061 488 1061 592 q 1025 292 1061 383 q 922 131 989 200 q 762 22 856 61 q 551 -18 668 -18 m 551 158 q 675 183 618 158 q 774 252 732 207 q 840 357 817 297 q 863 488 863 417 q 840 618 863 558 q 774 722 817 678 q 675 791 732 767 q 551 815 618 815 q 428 791 485 815 q 328 722 371 767 q 263 618 286 678 q 240 488 240 558 q 263 357 240 417 q 328 252 286 297 q 428 183 371 207 q 551 158 485 158 m 858 754 l 858 856 l 903 856 q 936 870 925 856 q 947 901 947 885 l 947 972 l 1103 972 l 1103 896 q 1061 789 1103 824 q 932 754 1019 754 l 858 754 m 486 1051 l 369 1222 l 549 1222 l 665 1051 l 486 1051 z "},"Ở":{"ha":1103,"x_min":42,"x_max":1103,"o":"m 551 -18 q 341 22 435 -18 q 181 131 247 61 q 78 292 114 200 q 42 488 42 383 q 78 683 42 592 q 181 843 114 774 q 341 951 247 913 q 551 990 435 990 q 762 951 668 990 q 922 843 856 913 q 1025 683 989 774 q 1061 488 1061 592 q 1025 292 1061 383 q 922 131 989 200 q 762 22 856 61 q 551 -18 668 -18 m 551 158 q 675 183 618 158 q 774 252 732 207 q 840 357 817 297 q 863 488 863 417 q 840 618 863 558 q 774 722 817 678 q 675 791 732 767 q 551 815 618 815 q 428 791 485 815 q 328 722 371 767 q 263 618 286 678 q 240 488 240 558 q 263 357 240 417 q 328 252 286 297 q 428 183 371 207 q 551 158 485 158 m 858 754 l 858 856 l 903 856 q 936 870 925 856 q 947 901 947 885 l 947 972 l 1103 972 l 1103 896 q 1061 789 1103 824 q 932 754 1019 754 l 858 754 m 517 1053 l 517 1108 q 562 1115 542 1108 q 594 1135 582 1122 q 607 1163 607 1147 q 593 1189 607 1179 q 539 1199 579 1199 q 501 1196 517 1199 q 471 1188 486 1193 l 471 1304 q 509 1312 486 1308 q 558 1315 532 1315 q 682 1288 639 1315 q 725 1206 725 1260 q 690 1120 725 1154 q 606 1069 656 1086 q 517 1053 557 1053 z "},"Ỡ":{"ha":1103,"x_min":42,"x_max":1103,"o":"m 551 -18 q 341 22 435 -18 q 181 131 247 61 q 78 292 114 200 q 42 488 42 383 q 78 683 42 592 q 181 843 114 774 q 341 951 247 913 q 551 990 435 990 q 762 951 668 990 q 922 843 856 913 q 1025 683 989 774 q 1061 488 1061 592 q 1025 292 1061 383 q 922 131 989 200 q 762 22 856 61 q 551 -18 668 -18 m 551 158 q 675 183 618 158 q 774 252 732 207 q 840 357 817 297 q 863 488 863 417 q 840 618 863 558 q 774 722 817 678 q 675 791 732 767 q 551 815 618 815 q 428 791 485 815 q 328 722 371 767 q 263 618 286 678 q 240 488 240 558 q 263 357 240 417 q 328 252 286 297 q 428 183 371 207 q 551 158 485 158 m 858 754 l 858 856 l 903 856 q 936 870 925 856 q 947 901 947 885 l 947 972 l 1103 972 l 1103 896 q 1061 789 1103 824 q 932 754 1019 754 l 858 754 m 636 1039 q 574 1047 599 1039 q 535 1069 550 1056 q 506 1093 519 1082 q 483 1111 493 1104 q 461 1118 472 1118 q 442 1110 450 1118 q 433 1090 433 1103 l 433 1053 l 317 1053 l 317 1088 q 359 1195 317 1153 q 468 1238 401 1238 q 545 1218 515 1238 q 596 1183 575 1199 q 620 1166 608 1174 q 643 1158 632 1158 q 663 1165 654 1158 q 671 1186 671 1172 l 671 1224 l 788 1224 l 788 1189 q 745 1081 788 1124 q 636 1039 703 1039 z "},"Ő":{"ha":1103,"x_min":42,"x_max":1061,"o":"m 551 -18 q 341 22 435 -18 q 181 131 247 61 q 78 292 114 200 q 42 488 42 383 q 78 683 42 592 q 181 843 114 774 q 341 951 247 913 q 551 990 435 990 q 762 951 668 990 q 922 843 856 913 q 1025 683 989 774 q 1061 488 1061 592 q 1025 292 1061 383 q 922 131 989 200 q 762 22 856 61 q 551 -18 668 -18 m 551 158 q 675 183 618 158 q 774 252 732 207 q 840 357 817 297 q 863 488 863 417 q 840 618 863 558 q 774 722 817 678 q 675 791 732 767 q 551 815 618 815 q 428 791 485 815 q 328 722 371 767 q 263 618 286 678 q 240 488 240 558 q 263 357 240 417 q 328 252 286 297 q 428 183 371 207 q 551 158 485 158 m 586 1051 l 703 1222 l 863 1222 l 746 1051 l 586 1051 m 339 1051 l 456 1222 l 615 1222 l 499 1051 l 339 1051 z "},"Ȏ":{"ha":1103,"x_min":42,"x_max":1061,"o":"m 551 -18 q 341 22 435 -18 q 181 131 247 61 q 78 292 114 200 q 42 488 42 383 q 78 683 42 592 q 181 843 114 774 q 341 951 247 913 q 551 990 435 990 q 762 951 668 990 q 922 843 856 913 q 1025 683 989 774 q 1061 488 1061 592 q 1025 292 1061 383 q 922 131 989 200 q 762 22 856 61 q 551 -18 668 -18 m 551 158 q 675 183 618 158 q 774 252 732 207 q 840 357 817 297 q 863 488 863 417 q 840 618 863 558 q 774 722 817 678 q 675 791 732 767 q 551 815 618 815 q 428 791 485 815 q 328 722 371 767 q 263 618 286 678 q 240 488 240 558 q 263 357 240 417 q 328 252 286 297 q 428 183 371 207 q 551 158 485 158 z "},"Ō":{"ha":1103,"x_min":42,"x_max":1061,"o":"m 551 -18 q 341 22 435 -18 q 181 131 247 61 q 78 292 114 200 q 42 488 42 383 q 78 683 42 592 q 181 843 114 774 q 341 951 247 913 q 551 990 435 990 q 762 951 668 990 q 922 843 856 913 q 1025 683 989 774 q 1061 488 1061 592 q 1025 292 1061 383 q 922 131 989 200 q 762 22 856 61 q 551 -18 668 -18 m 551 158 q 675 183 618 158 q 774 252 732 207 q 840 357 817 297 q 863 488 863 417 q 840 618 863 558 q 774 722 817 678 q 675 791 732 767 q 551 815 618 815 q 428 791 485 815 q 328 722 371 767 q 263 618 286 678 q 240 488 240 558 q 263 357 240 417 q 328 252 286 297 q 428 183 371 207 q 551 158 485 158 m 329 1047 l 329 1169 l 746 1169 l 746 1047 l 329 1047 z "},"Ǫ":{"ha":1103,"x_min":42,"x_max":1061,"o":"m 625 -314 q 497 -275 550 -314 q 443 -156 443 -236 q 466 -74 443 -118 q 519 10 489 -31 q 574 77 550 50 q 603 108 599 104 l 651 81 q 634 54 649 76 q 603 1 619 32 q 574 -63 586 -31 q 561 -122 561 -96 q 583 -176 561 -156 q 638 -197 606 -197 q 668 -194 653 -197 q 697 -186 683 -192 l 697 -304 q 662 -311 683 -308 q 625 -314 640 -314 m 551 -18 q 341 22 435 -18 q 181 131 247 61 q 78 292 114 200 q 42 488 42 383 q 78 683 42 592 q 181 843 114 774 q 341 951 247 913 q 551 990 435 990 q 762 951 668 990 q 922 843 856 913 q 1025 683 989 774 q 1061 488 1061 592 q 1025 292 1061 383 q 922 131 989 200 q 762 22 856 61 q 551 -18 668 -18 m 551 158 q 675 183 618 158 q 774 252 732 207 q 840 357 817 297 q 863 488 863 417 q 840 618 863 558 q 774 722 817 678 q 675 791 732 767 q 551 815 618 815 q 428 791 485 815 q 328 722 371 767 q 263 618 286 678 q 240 488 240 558 q 263 357 240 417 q 328 252 286 297 q 428 183 371 207 q 551 158 485 158 z "},"Ø":{"ha":1103,"x_min":42,"x_max":1063,"o":"m 551 -17 q 405 4 475 -17 q 275 63 335 25 l 222 0 l 42 0 l 171 150 q 76 304 111 218 q 42 486 42 390 q 78 681 42 590 q 181 842 114 772 q 341 950 247 911 q 551 989 435 989 q 699 968 629 989 q 826 910 768 947 l 882 974 l 1063 974 l 931 821 q 1026 667 992 754 q 1061 486 1061 581 q 1025 291 1061 382 q 922 131 989 200 q 762 22 856 61 q 551 -17 668 -17 m 551 158 q 675 183 618 158 q 774 251 732 207 q 840 356 817 296 q 863 486 863 415 q 848 590 863 540 q 807 678 833 639 l 393 199 q 468 169 428 179 q 551 158 508 158 m 294 293 l 708 772 q 635 803 674 792 q 551 814 596 814 q 428 790 485 814 q 328 721 371 765 q 263 617 286 676 q 240 486 240 557 q 254 382 240 431 q 294 293 268 333 z "},"Ǿ":{"ha":1103,"x_min":42,"x_max":1063,"o":"m 551 -17 q 405 4 475 -17 q 275 63 335 25 l 222 0 l 42 0 l 171 150 q 76 304 111 218 q 42 486 42 390 q 78 681 42 590 q 181 842 114 772 q 341 950 247 911 q 551 989 435 989 q 699 968 629 989 q 826 910 768 947 l 882 974 l 1063 974 l 931 821 q 1026 667 992 754 q 1061 486 1061 581 q 1025 291 1061 382 q 922 131 989 200 q 762 22 856 61 q 551 -17 668 -17 m 551 158 q 675 183 618 158 q 774 251 732 207 q 840 356 817 296 q 863 486 863 415 q 848 590 863 540 q 807 678 833 639 l 393 199 q 468 169 428 179 q 551 158 508 158 m 294 293 l 708 772 q 635 803 674 792 q 551 814 596 814 q 428 790 485 814 q 328 721 371 765 q 263 617 286 676 q 240 486 240 557 q 254 382 240 431 q 294 293 268 333 m 467 1051 l 583 1222 l 763 1222 l 646 1051 l 467 1051 z "},"Õ":{"ha":1103,"x_min":42,"x_max":1061,"o":"m 551 -18 q 341 22 435 -18 q 181 131 247 61 q 78 292 114 200 q 42 488 42 383 q 78 683 42 592 q 181 843 114 774 q 341 951 247 913 q 551 990 435 990 q 762 951 668 990 q 922 843 856 913 q 1025 683 989 774 q 1061 488 1061 592 q 1025 292 1061 383 q 922 131 989 200 q 762 22 856 61 q 551 -18 668 -18 m 551 158 q 675 183 618 158 q 774 252 732 207 q 840 357 817 297 q 863 488 863 417 q 840 618 863 558 q 774 722 817 678 q 675 791 732 767 q 551 815 618 815 q 428 791 485 815 q 328 722 371 767 q 263 618 286 678 q 240 488 240 558 q 263 357 240 417 q 328 252 286 297 q 428 183 371 207 q 551 158 485 158 m 635 1038 q 573 1046 597 1038 q 533 1067 549 1054 q 504 1092 518 1081 q 481 1110 492 1103 q 460 1117 471 1117 q 440 1109 449 1117 q 432 1089 432 1101 l 432 1051 l 315 1051 l 315 1086 q 358 1194 315 1151 q 467 1236 400 1236 q 544 1217 514 1236 q 594 1182 574 1197 q 619 1165 607 1172 q 642 1157 631 1157 q 661 1164 653 1157 q 669 1185 669 1171 l 669 1222 l 786 1222 l 786 1188 q 744 1080 786 1122 q 635 1038 701 1038 z "},"Ȭ":{"ha":1103,"x_min":42,"x_max":1061,"o":"m 551 -18 q 341 22 435 -18 q 181 131 247 61 q 78 292 114 200 q 42 488 42 383 q 78 683 42 592 q 181 843 114 774 q 341 951 247 913 q 551 990 435 990 q 762 951 668 990 q 922 843 856 913 q 1025 683 989 774 q 1061 488 1061 592 q 1025 292 1061 383 q 922 131 989 200 q 762 22 856 61 q 551 -18 668 -18 m 551 158 q 675 183 618 158 q 774 252 732 207 q 840 357 817 297 q 863 488 863 417 q 840 618 863 558 q 774 722 817 678 q 675 791 732 767 q 551 815 618 815 q 428 791 485 815 q 328 722 371 767 q 263 618 286 678 q 240 488 240 558 q 263 357 240 417 q 328 252 286 297 q 428 183 371 207 q 551 158 485 158 m 635 1038 q 573 1046 597 1038 q 533 1067 549 1054 q 504 1092 518 1081 q 481 1110 492 1103 q 460 1117 471 1117 q 440 1109 449 1117 q 432 1089 432 1101 l 432 1051 l 315 1051 l 315 1086 q 358 1194 315 1151 q 467 1236 400 1236 q 544 1217 514 1236 q 594 1182 574 1197 q 619 1165 607 1172 q 642 1157 631 1157 q 661 1164 653 1157 q 669 1185 669 1171 l 669 1222 l 786 1222 l 786 1188 q 744 1080 786 1122 q 635 1038 701 1038 m 331 1285 l 331 1407 l 747 1407 l 747 1285 l 331 1285 z "},"Œ":{"ha":1518,"x_min":42,"x_max":1463,"o":"m 551 -17 q 341 22 435 -17 q 181 131 247 61 q 78 291 114 200 q 42 486 42 382 q 78 681 42 590 q 181 842 114 772 q 341 950 247 911 q 551 989 435 989 q 728 960 647 989 q 871 878 808 931 q 958 947 910 922 q 1063 972 1007 972 l 1463 972 l 1463 797 l 1085 797 q 1028 783 1054 797 q 986 746 1001 769 q 1046 582 1029 672 l 1415 582 l 1415 407 l 1047 407 q 1027 313 1042 358 q 989 228 1013 268 q 1032 190 1004 204 q 1093 175 1060 175 l 1463 175 l 1463 0 l 1069 0 q 963 26 1013 0 q 874 96 914 51 q 730 13 811 43 q 551 -17 649 -17 m 551 158 q 675 183 618 158 q 774 251 732 207 q 840 356 817 296 q 863 486 863 415 q 840 617 863 557 q 774 721 817 676 q 675 790 732 765 q 551 814 618 814 q 428 790 485 814 q 328 721 371 765 q 263 617 286 676 q 240 486 240 557 q 263 356 240 415 q 328 251 286 296 q 428 183 371 207 q 551 158 485 158 z "},"P":{"ha":885,"x_min":97,"x_max":850,"o":"m 97 0 l 97 972 l 504 972 q 678 928 600 972 q 803 807 757 885 q 850 626 850 729 q 803 447 850 525 q 678 324 757 368 q 504 281 600 281 l 296 281 l 296 0 l 97 0 m 296 456 l 481 456 q 567 476 528 456 q 628 534 606 496 q 651 626 651 572 q 628 719 651 681 q 567 777 606 757 q 481 797 528 797 l 296 797 l 296 456 z "},"Þ":{"ha":885,"x_min":97,"x_max":850,"o":"m 97 0 l 97 972 l 296 972 l 296 833 l 504 833 q 678 790 600 833 q 803 668 757 746 q 850 488 850 590 q 803 308 850 386 q 678 185 757 229 q 504 142 600 142 l 296 142 l 296 0 l 97 0 m 296 317 l 481 317 q 567 337 528 317 q 628 395 606 357 q 651 488 651 433 q 628 580 651 542 q 567 638 606 618 q 481 658 528 658 l 296 658 l 296 317 z "},"Q":{"ha":1103,"x_min":42,"x_max":1061,"o":"m 453 -282 l 453 14 l 650 14 l 650 -282 l 453 -282 m 551 -18 q 341 22 435 -18 q 181 131 247 61 q 78 292 114 200 q 42 488 42 383 q 78 683 42 592 q 181 843 114 774 q 341 951 247 913 q 551 990 435 990 q 762 951 668 990 q 922 843 856 913 q 1025 683 989 774 q 1061 488 1061 592 q 1025 292 1061 383 q 922 131 989 200 q 762 22 856 61 q 551 -18 668 -18 m 551 158 q 675 183 618 158 q 774 252 732 207 q 840 357 817 297 q 863 488 863 417 q 840 618 863 558 q 774 722 817 678 q 675 791 732 767 q 551 815 618 815 q 428 791 485 815 q 328 722 371 767 q 263 618 286 678 q 240 488 240 558 q 263 357 240 417 q 328 252 286 297 q 428 183 371 207 q 551 158 485 158 z "},"R":{"ha":949,"x_min":97,"x_max":928,"o":"m 97 0 l 97 972 l 532 972 q 706 930 628 972 q 831 813 785 888 q 878 638 878 738 q 832 466 878 540 q 711 349 786 392 l 800 193 q 814 180 806 185 q 833 175 822 175 l 928 175 l 928 0 l 803 0 q 697 29 744 0 q 621 106 649 58 l 511 303 q 485 303 499 303 q 460 303 472 303 l 296 303 l 296 0 l 97 0 m 296 478 l 508 478 q 594 497 556 478 q 656 551 633 515 q 679 638 679 588 q 656 724 679 688 q 594 778 632 760 q 508 797 556 797 l 296 797 l 296 478 z "},"Ŕ":{"ha":949,"x_min":97,"x_max":928,"o":"m 97 0 l 97 972 l 532 972 q 706 930 628 972 q 831 813 785 888 q 878 638 878 738 q 832 466 878 540 q 711 349 786 392 l 800 193 q 814 180 806 185 q 833 175 822 175 l 928 175 l 928 0 l 803 0 q 697 29 744 0 q 621 106 649 58 l 511 303 q 485 303 499 303 q 460 303 472 303 l 296 303 l 296 0 l 97 0 m 296 478 l 508 478 q 594 497 556 478 q 656 551 633 515 q 679 638 679 588 q 656 724 679 688 q 594 778 632 760 q 508 797 556 797 l 296 797 l 296 478 m 329 1053 l 446 1224 l 625 1224 l 508 1053 l 329 1053 z "},"Ř":{"ha":949,"x_min":97,"x_max":928,"o":"m 97 0 l 97 972 l 532 972 q 706 930 628 972 q 831 813 785 888 q 878 638 878 738 q 832 466 878 540 q 711 349 786 392 l 800 193 q 814 180 806 185 q 833 175 822 175 l 928 175 l 928 0 l 803 0 q 697 29 744 0 q 621 106 649 58 l 511 303 q 485 303 499 303 q 460 303 472 303 l 296 303 l 296 0 l 97 0 m 296 478 l 508 478 q 594 497 556 478 q 656 551 633 515 q 679 638 679 588 q 656 724 679 688 q 594 778 632 760 q 508 797 556 797 l 296 797 l 296 478 m 372 1051 l 256 1222 l 410 1222 l 474 1128 l 539 1222 l 693 1222 l 576 1051 l 372 1051 z "},"Ŗ":{"ha":949,"x_min":97,"x_max":928,"o":"m 97 0 l 97 972 l 532 972 q 706 930 628 972 q 831 813 785 888 q 878 638 878 738 q 832 466 878 540 q 711 349 786 392 l 800 193 q 814 180 806 185 q 833 175 822 175 l 928 175 l 928 0 l 803 0 q 697 29 744 0 q 621 106 649 58 l 511 303 q 485 303 499 303 q 460 303 472 303 l 296 303 l 296 0 l 97 0 m 296 478 l 508 478 q 594 497 556 478 q 656 551 633 515 q 679 638 679 588 q 656 724 679 688 q 594 778 632 760 q 508 797 556 797 l 296 797 l 296 478 m 401 -422 l 453 -275 q 401 -233 418 -264 q 385 -172 385 -203 q 417 -97 385 -128 q 493 -67 449 -67 q 572 -101 543 -67 q 601 -179 601 -135 q 579 -272 601 -217 l 518 -422 l 401 -422 z "},"Ȑ":{"ha":949,"x_min":97,"x_max":928,"o":"m 97 0 l 97 972 l 532 972 q 706 930 628 972 q 831 813 785 888 q 878 638 878 738 q 832 466 878 540 q 711 349 786 392 l 800 193 q 814 180 806 185 q 833 175 822 175 l 928 175 l 928 0 l 803 0 q 697 29 744 0 q 621 106 649 58 l 511 303 q 485 303 499 303 q 460 303 472 303 l 296 303 l 296 0 l 97 0 m 296 478 l 508 478 q 594 497 556 478 q 656 551 633 515 q 679 638 679 588 q 656 724 679 688 q 594 778 632 760 q 508 797 556 797 l 296 797 l 296 478 m 529 1051 l 396 1246 l 556 1246 l 689 1051 l 529 1051 m 282 1051 l 149 1246 l 308 1246 l 442 1051 l 282 1051 z "},"Ȓ":{"ha":949,"x_min":97,"x_max":928,"o":"m 97 0 l 97 972 l 532 972 q 706 930 628 972 q 831 813 785 888 q 878 638 878 738 q 832 466 878 540 q 711 349 786 392 l 800 193 q 814 180 806 185 q 833 175 822 175 l 928 175 l 928 0 l 803 0 q 697 29 744 0 q 621 106 649 58 l 511 303 q 485 303 499 303 q 460 303 472 303 l 296 303 l 296 0 l 97 0 m 296 478 l 508 478 q 594 497 556 478 q 656 551 633 515 q 679 638 679 588 q 656 724 679 688 q 594 778 632 760 q 508 797 556 797 l 296 797 l 296 478 z "},"S":{"ha":869,"x_min":56,"x_max":821,"o":"m 96 0 l 96 175 l 513 175 q 568 190 543 175 q 608 231 593 206 q 624 288 624 257 q 608 345 624 319 q 568 386 593 371 q 513 401 543 401 l 350 401 q 201 435 268 401 q 95 531 135 468 q 56 683 56 594 q 93 835 56 771 q 194 936 131 900 q 336 972 258 972 l 758 972 l 758 797 l 356 797 q 304 783 328 797 q 267 744 281 768 q 254 692 254 721 q 267 639 254 663 q 304 601 281 615 q 356 588 328 588 l 524 588 q 681 553 614 588 q 784 456 747 518 q 821 310 821 393 q 783 142 821 211 q 680 36 744 72 q 538 0 615 0 l 96 0 z "},"Ś":{"ha":869,"x_min":56,"x_max":821,"o":"m 96 0 l 96 175 l 513 175 q 568 190 543 175 q 608 231 593 206 q 624 288 624 257 q 608 345 624 319 q 568 386 593 371 q 513 401 543 401 l 350 401 q 201 435 268 401 q 95 531 135 468 q 56 683 56 594 q 93 835 56 771 q 194 936 131 900 q 336 972 258 972 l 758 972 l 758 797 l 356 797 q 304 783 328 797 q 267 744 281 768 q 254 692 254 721 q 267 639 254 663 q 304 601 281 615 q 356 588 328 588 l 524 588 q 681 553 614 588 q 784 456 747 518 q 821 310 821 393 q 783 142 821 211 q 680 36 744 72 q 538 0 615 0 l 96 0 m 332 1051 l 449 1222 l 628 1222 l 511 1051 l 332 1051 z "},"Š":{"ha":869,"x_min":56,"x_max":821,"o":"m 96 0 l 96 175 l 513 175 q 568 190 543 175 q 608 231 593 206 q 624 288 624 257 q 608 345 624 319 q 568 386 593 371 q 513 401 543 401 l 350 401 q 201 435 268 401 q 95 531 135 468 q 56 683 56 594 q 93 835 56 771 q 194 936 131 900 q 336 972 258 972 l 758 972 l 758 797 l 356 797 q 304 783 328 797 q 267 744 281 768 q 254 692 254 721 q 267 639 254 663 q 304 601 281 615 q 356 588 328 588 l 524 588 q 681 553 614 588 q 784 456 747 518 q 821 310 821 393 q 783 142 821 211 q 680 36 744 72 q 538 0 615 0 l 96 0 m 357 1051 l 240 1222 l 394 1222 l 458 1128 l 524 1222 l 678 1222 l 561 1051 l 357 1051 z "},"Ş":{"ha":869,"x_min":56,"x_max":821,"o":"m 96 0 l 96 175 l 513 175 q 568 190 543 175 q 608 231 593 206 q 624 288 624 257 q 608 345 624 319 q 568 386 593 371 q 513 401 543 401 l 350 401 q 201 435 268 401 q 95 531 135 468 q 56 683 56 594 q 93 835 56 771 q 194 936 131 900 q 336 972 258 972 l 758 972 l 758 797 l 356 797 q 304 783 328 797 q 267 744 281 768 q 254 692 254 721 q 267 639 254 663 q 304 601 281 615 q 356 588 328 588 l 524 588 q 681 553 614 588 q 784 456 747 518 q 821 310 821 393 q 783 142 821 211 q 680 36 744 72 q 538 0 615 0 l 96 0 m 249 -282 l 383 33 l 565 33 l 431 -282 l 249 -282 z "},"Ŝ":{"ha":869,"x_min":56,"x_max":821,"o":"m 96 0 l 96 175 l 513 175 q 568 190 543 175 q 608 231 593 206 q 624 288 624 257 q 608 345 624 319 q 568 386 593 371 q 513 401 543 401 l 350 401 q 201 435 268 401 q 95 531 135 468 q 56 683 56 594 q 93 835 56 771 q 194 936 131 900 q 336 972 258 972 l 758 972 l 758 797 l 356 797 q 304 783 328 797 q 267 744 281 768 q 254 692 254 721 q 267 639 254 663 q 304 601 281 615 q 356 588 328 588 l 524 588 q 681 553 614 588 q 784 456 747 518 q 821 310 821 393 q 783 142 821 211 q 680 36 744 72 q 538 0 615 0 l 96 0 m 214 1051 l 331 1222 l 535 1222 l 651 1051 l 497 1051 l 432 1146 l 368 1051 l 214 1051 z "},"Ș":{"ha":869,"x_min":56,"x_max":821,"o":"m 96 0 l 96 175 l 513 175 q 568 190 543 175 q 608 231 593 206 q 624 288 624 257 q 608 345 624 319 q 568 386 593 371 q 513 401 543 401 l 350 401 q 201 435 268 401 q 95 531 135 468 q 56 683 56 594 q 93 835 56 771 q 194 936 131 900 q 336 972 258 972 l 758 972 l 758 797 l 356 797 q 304 783 328 797 q 267 744 281 768 q 254 692 254 721 q 267 639 254 663 q 304 601 281 615 q 356 588 328 588 l 524 588 q 681 553 614 588 q 784 456 747 518 q 821 310 821 393 q 783 142 821 211 q 680 36 744 72 q 538 0 615 0 l 96 0 m 361 -422 l 413 -275 q 361 -233 378 -264 q 344 -172 344 -203 q 376 -97 344 -128 q 453 -67 408 -67 q 532 -101 503 -67 q 561 -179 561 -135 q 539 -272 561 -217 l 478 -422 l 361 -422 z "},"ẞ":{"ha":975,"x_min":90,"x_max":919,"o":"m 90 0 l 90 603 q 138 806 90 719 q 274 941 186 893 q 476 989 361 989 q 662 948 583 989 q 789 842 740 907 q 853 700 838 776 l 688 551 q 865 444 811 518 q 919 281 919 371 q 884 137 919 200 q 790 37 849 74 q 660 0 732 0 l 443 0 l 443 174 l 603 175 q 663 192 636 175 q 705 239 689 210 q 721 303 721 268 q 705 366 721 338 q 653 412 689 394 q 556 429 617 429 l 482 429 l 482 522 l 649 701 q 574 786 618 758 q 475 814 531 814 q 376 787 418 814 q 312 715 335 760 q 289 615 289 671 l 289 0 l 90 0 z "},"Ə":{"ha":975,"x_min":49,"x_max":926,"o":"m 475 -17 q 251 35 347 -17 q 102 197 156 88 q 49 481 49 307 q 50 519 49 500 q 53 557 51 539 l 728 557 q 668 681 711 629 q 558 759 625 732 q 404 786 492 786 l 172 786 l 172 972 l 397 972 q 678 913 560 972 q 862 746 797 854 q 926 489 926 638 q 869 222 926 335 q 711 46 813 108 q 475 -17 610 -17 m 469 161 q 597 192 543 161 q 684 275 651 224 q 725 386 717 326 l 238 386 q 267 277 240 329 q 344 193 293 225 q 469 161 394 161 z "},"T":{"ha":782,"x_min":21,"x_max":761,"o":"m 581 0 q 429 40 494 0 q 328 145 364 79 q 292 290 292 211 l 292 797 l 21 797 l 21 972 l 761 972 l 761 797 l 490 797 l 490 267 q 517 202 490 229 q 581 175 543 175 l 650 175 l 650 0 l 581 0 z "},"Ŧ":{"ha":782,"x_min":21,"x_max":761,"o":"m 581 0 q 429 40 494 0 q 328 145 364 79 q 292 290 292 211 l 292 479 l 122 479 l 122 601 l 292 601 l 292 797 l 21 797 l 21 972 l 761 972 l 761 797 l 490 797 l 490 601 l 696 601 l 696 479 l 490 479 l 490 267 q 517 202 490 229 q 581 175 543 175 l 650 175 l 650 0 l 581 0 z "},"Ť":{"ha":782,"x_min":21,"x_max":761,"o":"m 581 0 q 429 40 494 0 q 328 145 364 79 q 292 290 292 211 l 292 797 l 21 797 l 21 972 l 761 972 l 761 797 l 490 797 l 490 267 q 517 202 490 229 q 581 175 543 175 l 650 175 l 650 0 l 581 0 m 286 1051 l 169 1222 l 324 1222 l 388 1128 l 453 1222 l 607 1222 l 490 1051 l 286 1051 z "},"Ţ":{"ha":782,"x_min":21,"x_max":761,"o":"m 349 -282 l 492 51 l 650 35 l 650 0 l 531 -282 l 349 -282 m 581 0 q 429 40 494 0 q 328 145 364 79 q 292 290 292 211 l 292 797 l 21 797 l 21 972 l 761 972 l 761 797 l 490 797 l 490 267 q 517 202 490 229 q 581 175 543 175 l 650 175 l 650 0 l 581 0 z "},"Ț":{"ha":782,"x_min":21,"x_max":761,"o":"m 581 0 q 429 40 494 0 q 328 145 364 79 q 292 290 292 211 l 292 797 l 21 797 l 21 972 l 761 972 l 761 797 l 490 797 l 490 267 q 517 202 490 229 q 581 175 543 175 l 650 175 l 650 0 l 581 0 m 329 -442 l 381 -294 q 329 -253 346 -283 q 313 -192 313 -222 q 344 -117 313 -147 q 421 -86 376 -86 q 500 -120 471 -86 q 529 -199 529 -154 q 507 -292 529 -236 l 446 -442 l 329 -442 z "},"U":{"ha":989,"x_min":90,"x_max":899,"o":"m 494 -17 q 285 32 376 -17 q 142 170 194 81 q 90 383 90 260 l 90 972 l 289 972 l 289 371 q 314 265 289 313 q 385 188 339 217 q 494 158 432 158 q 604 188 558 158 q 675 265 650 217 q 700 371 700 313 l 700 972 l 899 972 l 899 383 q 847 170 899 260 q 703 32 794 81 q 494 -17 613 -17 z "},"Ú":{"ha":989,"x_min":90,"x_max":899,"o":"m 494 -17 q 285 32 376 -17 q 142 170 194 81 q 90 383 90 260 l 90 972 l 289 972 l 289 371 q 314 265 289 313 q 385 188 339 217 q 494 158 432 158 q 604 188 558 158 q 675 265 650 217 q 700 371 700 313 l 700 972 l 899 972 l 899 383 q 847 170 899 260 q 703 32 794 81 q 494 -17 613 -17 m 403 1051 l 519 1222 l 699 1222 l 582 1051 l 403 1051 z "},"Ŭ":{"ha":989,"x_min":90,"x_max":899,"o":"m 494 -17 q 285 32 376 -17 q 142 170 194 81 q 90 383 90 260 l 90 972 l 289 972 l 289 371 q 314 265 289 313 q 385 188 339 217 q 494 158 432 158 q 604 188 558 158 q 675 265 650 217 q 700 371 700 313 l 700 972 l 899 972 l 899 383 q 847 170 899 260 q 703 32 794 81 q 494 -17 613 -17 m 533 1051 q 442 1076 483 1051 q 377 1141 401 1100 q 353 1232 353 1182 l 461 1232 q 482 1180 461 1201 q 533 1158 503 1158 q 586 1180 565 1158 q 607 1232 607 1201 l 713 1232 q 688 1141 713 1182 q 624 1076 664 1100 q 533 1051 583 1051 z "},"Ǔ":{"ha":989,"x_min":90,"x_max":899,"o":"m 494 -17 q 285 32 376 -17 q 142 170 194 81 q 90 383 90 260 l 90 972 l 289 972 l 289 371 q 314 265 289 313 q 385 188 339 217 q 494 158 432 158 q 604 188 558 158 q 675 265 650 217 q 700 371 700 313 l 700 972 l 899 972 l 899 383 q 847 170 899 260 q 703 32 794 81 q 494 -17 613 -17 m 381 1051 l 264 1222 l 418 1222 l 482 1128 l 547 1222 l 701 1222 l 585 1051 l 381 1051 z "},"Û":{"ha":989,"x_min":90,"x_max":899,"o":"m 494 -17 q 285 32 376 -17 q 142 170 194 81 q 90 383 90 260 l 90 972 l 289 972 l 289 371 q 314 265 289 313 q 385 188 339 217 q 494 158 432 158 q 604 188 558 158 q 675 265 650 217 q 700 371 700 313 l 700 972 l 899 972 l 899 383 q 847 170 899 260 q 703 32 794 81 q 494 -17 613 -17 m 276 1051 l 393 1222 l 597 1222 l 714 1051 l 560 1051 l 494 1146 l 431 1051 l 276 1051 z "},"Ȕ":{"ha":989,"x_min":90,"x_max":899,"o":"m 494 -17 q 285 32 376 -17 q 142 170 194 81 q 90 383 90 260 l 90 972 l 289 972 l 289 371 q 314 265 289 313 q 385 188 339 217 q 494 158 432 158 q 604 188 558 158 q 675 265 650 217 q 700 371 700 313 l 700 972 l 899 972 l 899 383 q 847 170 899 260 q 703 32 794 81 q 494 -17 613 -17 m 564 1051 l 431 1246 l 590 1246 l 724 1051 l 564 1051 m 317 1051 l 183 1246 l 343 1246 l 476 1051 l 317 1051 z "},"Ü":{"ha":989,"x_min":90,"x_max":899,"o":"m 494 -17 q 285 32 376 -17 q 142 170 194 81 q 90 383 90 260 l 90 972 l 289 972 l 289 371 q 314 265 289 313 q 385 188 339 217 q 494 158 432 158 q 604 188 558 158 q 675 265 650 217 q 700 371 700 313 l 700 972 l 899 972 l 899 383 q 847 170 899 260 q 703 32 794 81 q 494 -17 613 -17 z "},"Ǘ":{"ha":989,"x_min":90,"x_max":899,"o":"m 494 -17 q 285 32 376 -17 q 142 170 194 81 q 90 383 90 260 l 90 972 l 289 972 l 289 371 q 314 265 289 313 q 385 188 339 217 q 494 158 432 158 q 604 188 558 158 q 675 265 650 217 q 700 371 700 313 l 700 972 l 899 972 l 899 383 q 847 170 899 260 q 703 32 794 81 q 494 -17 613 -17 m 408 1296 l 525 1467 l 704 1467 l 588 1296 l 408 1296 z "},"Ǚ":{"ha":989,"x_min":90,"x_max":899,"o":"m 494 -17 q 285 32 376 -17 q 142 170 194 81 q 90 383 90 260 l 90 972 l 289 972 l 289 371 q 314 265 289 313 q 385 188 339 217 q 494 158 432 158 q 604 188 558 158 q 675 265 650 217 q 700 371 700 313 l 700 972 l 899 972 l 899 383 q 847 170 899 260 q 703 32 794 81 q 494 -17 613 -17 z "},"Ǜ":{"ha":989,"x_min":90,"x_max":899,"o":"m 494 -17 q 285 32 376 -17 q 142 170 194 81 q 90 383 90 260 l 90 972 l 289 972 l 289 371 q 314 265 289 313 q 385 188 339 217 q 494 158 432 158 q 604 188 558 158 q 675 265 650 217 q 700 371 700 313 l 700 972 l 899 972 l 899 383 q 847 170 899 260 q 703 32 794 81 q 494 -17 613 -17 m 422 1294 l 306 1465 l 485 1465 l 601 1294 l 422 1294 z "},"Ǖ":{"ha":989,"x_min":90,"x_max":899,"o":"m 494 -17 q 285 32 376 -17 q 142 170 194 81 q 90 383 90 260 l 90 972 l 289 972 l 289 371 q 314 265 289 313 q 385 188 339 217 q 494 158 432 158 q 604 188 558 158 q 675 265 650 217 q 700 371 700 313 l 700 972 l 899 972 l 899 383 q 847 170 899 260 q 703 32 794 81 q 494 -17 613 -17 m 272 1292 l 272 1414 l 689 1414 l 689 1292 l 272 1292 z "},"Ụ":{"ha":989,"x_min":90,"x_max":899,"o":"m 494 -17 q 285 32 376 -17 q 142 170 194 81 q 90 383 90 260 l 90 972 l 289 972 l 289 371 q 314 265 289 313 q 385 188 339 217 q 494 158 432 158 q 604 188 558 158 q 675 265 650 217 q 700 371 700 313 l 700 972 l 899 972 l 899 383 q 847 170 899 260 q 703 32 794 81 q 494 -17 613 -17 z "},"Ù":{"ha":989,"x_min":90,"x_max":899,"o":"m 494 -17 q 285 32 376 -17 q 142 170 194 81 q 90 383 90 260 l 90 972 l 289 972 l 289 371 q 314 265 289 313 q 385 188 339 217 q 494 158 432 158 q 604 188 558 158 q 675 265 650 217 q 700 371 700 313 l 700 972 l 899 972 l 899 383 q 847 170 899 260 q 703 32 794 81 q 494 -17 613 -17 m 428 1051 l 311 1222 l 490 1222 l 607 1051 l 428 1051 z "},"Ủ":{"ha":989,"x_min":90,"x_max":899,"o":"m 494 -17 q 285 32 376 -17 q 142 170 194 81 q 90 383 90 260 l 90 972 l 289 972 l 289 371 q 314 265 289 313 q 385 188 339 217 q 494 158 432 158 q 604 188 558 158 q 675 265 650 217 q 700 371 700 313 l 700 972 l 899 972 l 899 383 q 847 170 899 260 q 703 32 794 81 q 494 -17 613 -17 m 431 1043 l 431 1099 q 476 1106 456 1099 q 508 1125 496 1113 q 521 1153 521 1138 q 507 1179 521 1169 q 453 1189 493 1189 q 415 1186 431 1189 q 385 1178 400 1183 l 385 1294 q 423 1302 400 1299 q 472 1306 446 1306 q 596 1278 553 1306 q 639 1196 639 1250 q 604 1110 639 1144 q 520 1060 569 1076 q 431 1043 471 1043 z "},"Ư":{"ha":1018,"x_min":90,"x_max":1053,"o":"m 494 -17 q 285 32 376 -17 q 142 170 194 81 q 90 383 90 260 l 90 972 l 289 972 l 289 371 q 314 265 289 313 q 385 188 339 217 q 494 158 432 158 q 604 188 558 158 q 675 265 650 217 q 700 371 700 313 l 700 972 l 899 972 l 899 383 q 847 170 899 260 q 703 32 794 81 q 494 -17 613 -17 m 808 871 l 808 972 l 853 972 q 886 987 875 972 q 897 1018 897 1001 l 897 1089 l 1053 1089 l 1053 1013 q 1011 906 1053 940 q 882 871 969 871 l 808 871 z "},"Ứ":{"ha":1018,"x_min":90,"x_max":1053,"o":"m 494 -17 q 285 32 376 -17 q 142 170 194 81 q 90 383 90 260 l 90 972 l 289 972 l 289 371 q 314 265 289 313 q 385 188 339 217 q 494 158 432 158 q 604 188 558 158 q 675 265 650 217 q 700 371 700 313 l 700 972 l 899 972 l 899 383 q 847 170 899 260 q 703 32 794 81 q 494 -17 613 -17 m 808 871 l 808 972 l 853 972 q 886 987 875 972 q 897 1018 897 1001 l 897 1089 l 1053 1089 l 1053 1013 q 1011 906 1053 940 q 882 871 969 871 l 808 871 m 404 1051 l 521 1222 l 700 1222 l 583 1051 l 404 1051 z "},"Ự":{"ha":1018,"x_min":90,"x_max":1053,"o":"m 494 -17 q 285 32 376 -17 q 142 170 194 81 q 90 383 90 260 l 90 972 l 289 972 l 289 371 q 314 265 289 313 q 385 188 339 217 q 494 158 432 158 q 604 188 558 158 q 675 265 650 217 q 700 371 700 313 l 700 972 l 899 972 l 899 383 q 847 170 899 260 q 703 32 794 81 q 494 -17 613 -17 m 808 871 l 808 972 l 853 972 q 886 987 875 972 q 897 1018 897 1001 l 897 1089 l 1053 1089 l 1053 1013 q 1011 906 1053 940 q 882 871 969 871 l 808 871 z "},"Ừ":{"ha":1018,"x_min":90,"x_max":1053,"o":"m 494 -17 q 285 32 376 -17 q 142 170 194 81 q 90 383 90 260 l 90 972 l 289 972 l 289 371 q 314 265 289 313 q 385 188 339 217 q 494 158 432 158 q 604 188 558 158 q 675 265 650 217 q 700 371 700 313 l 700 972 l 899 972 l 899 383 q 847 170 899 260 q 703 32 794 81 q 494 -17 613 -17 m 808 871 l 808 972 l 853 972 q 886 987 875 972 q 897 1018 897 1001 l 897 1089 l 1053 1089 l 1053 1013 q 1011 906 1053 940 q 882 871 969 871 l 808 871 m 435 1051 l 318 1222 l 497 1222 l 614 1051 l 435 1051 z "},"Ử":{"ha":1018,"x_min":90,"x_max":1053,"o":"m 494 -17 q 285 32 376 -17 q 142 170 194 81 q 90 383 90 260 l 90 972 l 289 972 l 289 371 q 314 265 289 313 q 385 188 339 217 q 494 158 432 158 q 604 188 558 158 q 675 265 650 217 q 700 371 700 313 l 700 972 l 899 972 l 899 383 q 847 170 899 260 q 703 32 794 81 q 494 -17 613 -17 m 808 871 l 808 972 l 853 972 q 886 987 875 972 q 897 1018 897 1001 l 897 1089 l 1053 1089 l 1053 1013 q 1011 906 1053 940 q 882 871 969 871 l 808 871 m 431 1038 l 431 1093 q 476 1100 456 1093 q 508 1119 496 1107 q 521 1147 521 1132 q 507 1174 521 1164 q 453 1183 493 1183 q 415 1181 431 1183 q 385 1172 400 1178 l 385 1289 q 423 1297 400 1293 q 472 1300 446 1300 q 596 1272 553 1300 q 639 1190 639 1244 q 604 1105 639 1139 q 520 1054 569 1071 q 431 1038 471 1038 z "},"Ữ":{"ha":1018,"x_min":90,"x_max":1053,"o":"m 494 -17 q 285 32 376 -17 q 142 170 194 81 q 90 383 90 260 l 90 972 l 289 972 l 289 371 q 314 265 289 313 q 385 188 339 217 q 494 158 432 158 q 604 188 558 158 q 675 265 650 217 q 700 371 700 313 l 700 972 l 899 972 l 899 383 q 847 170 899 260 q 703 32 794 81 q 494 -17 613 -17 m 808 871 l 808 972 l 853 972 q 886 987 875 972 q 897 1018 897 1001 l 897 1089 l 1053 1089 l 1053 1013 q 1011 906 1053 940 q 882 871 969 871 l 808 871 m 578 1038 q 516 1046 540 1038 q 476 1067 492 1054 q 447 1092 461 1081 q 424 1110 435 1103 q 403 1117 414 1117 q 383 1109 392 1117 q 375 1089 375 1101 l 375 1051 l 258 1051 l 258 1086 q 301 1194 258 1151 q 410 1236 343 1236 q 487 1217 457 1236 q 538 1182 517 1197 q 562 1165 550 1172 q 585 1157 574 1157 q 604 1164 596 1157 q 613 1185 613 1171 l 613 1222 l 729 1222 l 729 1188 q 687 1080 729 1122 q 578 1038 644 1038 z "},"Ű":{"ha":1019,"x_min":90,"x_max":899,"o":"m 494 -17 q 285 32 376 -17 q 142 170 194 81 q 90 383 90 260 l 90 972 l 289 972 l 289 371 q 314 265 289 313 q 385 188 339 217 q 494 158 432 158 q 604 188 558 158 q 675 265 650 217 q 700 371 700 313 l 700 972 l 899 972 l 899 383 q 847 170 899 260 q 703 32 794 81 q 494 -17 613 -17 m 533 1051 l 650 1222 l 810 1222 l 693 1051 l 533 1051 m 286 1051 l 403 1222 l 563 1222 l 446 1051 l 286 1051 z "},"Ȗ":{"ha":989,"x_min":90,"x_max":899,"o":"m 494 -17 q 285 32 376 -17 q 142 170 194 81 q 90 383 90 260 l 90 972 l 289 972 l 289 371 q 314 265 289 313 q 385 188 339 217 q 494 158 432 158 q 604 188 558 158 q 675 265 650 217 q 700 371 700 313 l 700 972 l 899 972 l 899 383 q 847 170 899 260 q 703 32 794 81 q 494 -17 613 -17 z "},"Ū":{"ha":989,"x_min":90,"x_max":899,"o":"m 494 -17 q 285 32 376 -17 q 142 170 194 81 q 90 383 90 260 l 90 972 l 289 972 l 289 371 q 314 265 289 313 q 385 188 339 217 q 494 158 432 158 q 604 188 558 158 q 675 265 650 217 q 700 371 700 313 l 700 972 l 899 972 l 899 383 q 847 170 899 260 q 703 32 794 81 q 494 -17 613 -17 m 272 1047 l 272 1169 l 689 1169 l 689 1047 l 272 1047 z "},"Ų":{"ha":989,"x_min":90,"x_max":899,"o":"m 494 -17 q 285 32 376 -17 q 142 170 194 81 q 90 383 90 260 l 90 972 l 289 972 l 289 371 q 314 265 289 313 q 385 188 339 217 q 494 158 432 158 q 604 188 558 158 q 675 265 650 217 q 700 371 700 313 l 700 972 l 899 972 l 899 383 q 847 170 899 260 q 703 32 794 81 q 494 -17 613 -17 m 758 -303 q 630 -264 683 -303 q 576 -144 576 -225 q 599 -63 576 -107 q 653 21 622 -19 q 708 88 683 61 q 736 119 732 115 l 785 92 q 767 65 782 88 q 736 12 753 43 q 707 -52 719 -19 q 694 -111 694 -85 q 717 -165 694 -144 q 771 -186 739 -186 q 801 -183 786 -186 q 831 -175 817 -181 l 831 -293 q 795 -300 817 -297 q 758 -303 774 -303 z "},"Ů":{"ha":989,"x_min":90,"x_max":899,"o":"m 494 -17 q 285 32 376 -17 q 142 170 194 81 q 90 383 90 260 l 90 972 l 289 972 l 289 371 q 314 265 289 313 q 385 188 339 217 q 494 158 432 158 q 604 188 558 158 q 675 265 650 217 q 700 371 700 313 l 700 972 l 899 972 l 899 383 q 847 170 899 260 q 703 32 794 81 q 494 -17 613 -17 m 497 1039 q 403 1077 442 1039 q 365 1171 365 1115 q 403 1265 365 1226 q 497 1303 442 1303 q 591 1265 553 1303 q 629 1171 629 1226 q 591 1077 629 1115 q 497 1039 553 1039 m 497 1117 q 536 1133 521 1117 q 551 1171 551 1149 q 536 1210 551 1194 q 497 1225 521 1225 q 459 1210 475 1225 q 443 1171 443 1194 q 459 1133 443 1149 q 497 1117 475 1117 z "},"Ũ":{"ha":989,"x_min":90,"x_max":899,"o":"m 494 -17 q 285 32 376 -17 q 142 170 194 81 q 90 383 90 260 l 90 972 l 289 972 l 289 371 q 314 265 289 313 q 385 188 339 217 q 494 158 432 158 q 604 188 558 158 q 675 265 650 217 q 700 371 700 313 l 700 972 l 899 972 l 899 383 q 847 170 899 260 q 703 32 794 81 q 494 -17 613 -17 m 576 1039 q 515 1047 539 1039 q 475 1069 490 1056 q 446 1093 460 1082 q 423 1111 433 1104 q 401 1118 413 1118 q 382 1110 390 1118 q 374 1090 374 1103 l 374 1053 l 257 1053 l 257 1088 q 299 1195 257 1153 q 408 1238 342 1238 q 485 1218 456 1238 q 536 1183 515 1199 q 560 1166 549 1174 q 583 1158 572 1158 q 603 1165 594 1158 q 611 1186 611 1172 l 611 1224 l 728 1224 l 728 1189 q 685 1081 728 1124 q 576 1039 643 1039 z "},"V":{"ha":957,"x_min":0,"x_max":957,"o":"m 479 -17 q 365 13 415 -17 q 290 107 314 43 l 0 972 l 221 972 l 456 189 q 465 175 458 179 q 479 171 471 171 q 494 175 488 171 q 503 189 500 179 l 746 972 l 957 972 l 668 108 q 594 15 646 46 q 479 -17 543 -17 z "},"W":{"ha":1501,"x_min":83,"x_max":1418,"o":"m 467 -17 q 268 30 354 -17 q 133 163 182 76 q 83 369 83 250 l 83 972 l 282 972 l 282 357 q 304 258 282 303 q 368 185 326 213 q 467 158 410 158 q 565 185 524 158 q 629 258 607 213 q 651 357 651 303 l 651 972 l 850 972 l 850 357 q 872 258 850 303 q 936 185 894 213 q 1035 158 978 158 q 1133 185 1092 158 q 1197 258 1175 213 q 1219 357 1219 303 l 1219 972 l 1418 972 l 1418 369 q 1369 163 1418 250 q 1233 30 1319 76 q 1035 -17 1147 -17 q 924 -2 976 -17 q 828 42 871 13 q 750 111 785 71 q 673 42 717 71 q 577 -1 629 14 q 467 -17 525 -17 z "},"Ẃ":{"ha":1501,"x_min":83,"x_max":1418,"o":"m 467 -17 q 268 30 354 -17 q 133 163 182 76 q 83 369 83 250 l 83 972 l 282 972 l 282 357 q 304 258 282 303 q 368 185 326 213 q 467 158 410 158 q 565 185 524 158 q 629 258 607 213 q 651 357 651 303 l 651 972 l 850 972 l 850 357 q 872 258 850 303 q 936 185 894 213 q 1035 158 978 158 q 1133 185 1092 158 q 1197 258 1175 213 q 1219 357 1219 303 l 1219 972 l 1418 972 l 1418 369 q 1369 163 1418 250 q 1233 30 1319 76 q 1035 -17 1147 -17 q 924 -2 976 -17 q 828 42 871 13 q 750 111 785 71 q 673 42 717 71 q 577 -1 629 14 q 467 -17 525 -17 m 656 1051 l 772 1222 l 951 1222 l 835 1051 l 656 1051 z "},"Ŵ":{"ha":1501,"x_min":83,"x_max":1418,"o":"m 467 -17 q 268 30 354 -17 q 133 163 182 76 q 83 369 83 250 l 83 972 l 282 972 l 282 357 q 304 258 282 303 q 368 185 326 213 q 467 158 410 158 q 565 185 524 158 q 629 258 607 213 q 651 357 651 303 l 651 972 l 850 972 l 850 357 q 872 258 850 303 q 936 185 894 213 q 1035 158 978 158 q 1133 185 1092 158 q 1197 258 1175 213 q 1219 357 1219 303 l 1219 972 l 1418 972 l 1418 369 q 1369 163 1418 250 q 1233 30 1319 76 q 1035 -17 1147 -17 q 924 -2 976 -17 q 828 42 871 13 q 750 111 785 71 q 673 42 717 71 q 577 -1 629 14 q 467 -17 525 -17 m 532 1051 l 649 1222 l 853 1222 l 969 1051 l 815 1051 l 750 1146 l 686 1051 l 532 1051 z "},"Ẅ":{"ha":1501,"x_min":83,"x_max":1418,"o":"m 467 -17 q 268 30 354 -17 q 133 163 182 76 q 83 369 83 250 l 83 972 l 282 972 l 282 357 q 304 258 282 303 q 368 185 326 213 q 467 158 410 158 q 565 185 524 158 q 629 258 607 213 q 651 357 651 303 l 651 972 l 850 972 l 850 357 q 872 258 850 303 q 936 185 894 213 q 1035 158 978 158 q 1133 185 1092 158 q 1197 258 1175 213 q 1219 357 1219 303 l 1219 972 l 1418 972 l 1418 369 q 1369 163 1418 250 q 1233 30 1319 76 q 1035 -17 1147 -17 q 924 -2 976 -17 q 828 42 871 13 q 750 111 785 71 q 673 42 717 71 q 577 -1 629 14 q 467 -17 525 -17 z "},"Ẁ":{"ha":1501,"x_min":83,"x_max":1418,"o":"m 467 -17 q 268 30 354 -17 q 133 163 182 76 q 83 369 83 250 l 83 972 l 282 972 l 282 357 q 304 258 282 303 q 368 185 326 213 q 467 158 410 158 q 565 185 524 158 q 629 258 607 213 q 651 357 651 303 l 651 972 l 850 972 l 850 357 q 872 258 850 303 q 936 185 894 213 q 1035 158 978 158 q 1133 185 1092 158 q 1197 258 1175 213 q 1219 357 1219 303 l 1219 972 l 1418 972 l 1418 369 q 1369 163 1418 250 q 1233 30 1319 76 q 1035 -17 1147 -17 q 924 -2 976 -17 q 828 42 871 13 q 750 111 785 71 q 673 42 717 71 q 577 -1 629 14 q 467 -17 525 -17 m 699 1039 l 582 1210 l 761 1210 l 878 1039 l 699 1039 z "},"X":{"ha":976,"x_min":81,"x_max":918,"o":"m 81 0 l 335 421 q 216 492 267 446 q 138 606 165 539 q 110 757 110 672 l 110 972 l 308 972 l 308 744 q 326 665 308 701 q 378 604 344 628 q 456 575 411 581 l 690 972 l 914 972 l 660 560 q 796 493 738 540 q 886 376 854 446 q 918 215 918 306 l 918 0 l 719 0 l 719 228 q 673 349 719 300 q 540 399 626 399 l 304 0 l 81 0 z "},"Y":{"ha":989,"x_min":90,"x_max":899,"o":"m 394 0 l 394 268 q 235 339 304 288 q 128 472 167 390 q 90 658 90 553 l 90 972 l 289 972 l 289 646 q 314 540 289 588 q 385 463 339 492 q 494 433 432 433 q 604 463 558 433 q 675 540 650 492 q 700 646 700 588 l 700 972 l 899 972 l 899 658 q 860 472 899 553 q 753 338 822 390 q 593 268 685 286 l 593 0 l 394 0 z "},"Ý":{"ha":989,"x_min":90,"x_max":899,"o":"m 394 0 l 394 268 q 235 339 304 288 q 128 472 167 390 q 90 658 90 553 l 90 972 l 289 972 l 289 646 q 314 540 289 588 q 385 463 339 492 q 494 433 432 433 q 604 463 558 433 q 675 540 650 492 q 700 646 700 588 l 700 972 l 899 972 l 899 658 q 860 472 899 553 q 753 338 822 390 q 593 268 685 286 l 593 0 l 394 0 m 407 1051 l 524 1222 l 703 1222 l 586 1051 l 407 1051 z "},"Ŷ":{"ha":989,"x_min":90,"x_max":899,"o":"m 394 0 l 394 268 q 235 339 304 288 q 128 472 167 390 q 90 658 90 553 l 90 972 l 289 972 l 289 646 q 314 540 289 588 q 385 463 339 492 q 494 433 432 433 q 604 463 558 433 q 675 540 650 492 q 700 646 700 588 l 700 972 l 899 972 l 899 658 q 860 472 899 553 q 753 338 822 390 q 593 268 685 286 l 593 0 l 394 0 m 276 1051 l 393 1222 l 597 1222 l 714 1051 l 560 1051 l 494 1146 l 431 1051 l 276 1051 z "},"Ÿ":{"ha":989,"x_min":90,"x_max":899,"o":"m 394 0 l 394 268 q 235 339 304 288 q 128 472 167 390 q 90 658 90 553 l 90 972 l 289 972 l 289 646 q 314 540 289 588 q 385 463 339 492 q 494 433 432 433 q 604 463 558 433 q 675 540 650 492 q 700 646 700 588 l 700 972 l 899 972 l 899 658 q 860 472 899 553 q 753 338 822 390 q 593 268 685 286 l 593 0 l 394 0 z "},"Ỵ":{"ha":989,"x_min":90,"x_max":899,"o":"m 394 0 l 394 268 q 235 339 304 288 q 128 472 167 390 q 90 658 90 553 l 90 972 l 289 972 l 289 646 q 314 540 289 588 q 385 463 339 492 q 494 433 432 433 q 604 463 558 433 q 675 540 650 492 q 700 646 700 588 l 700 972 l 899 972 l 899 658 q 860 472 899 553 q 753 338 822 390 q 593 268 685 286 l 593 0 l 394 0 z "},"Ỳ":{"ha":989,"x_min":90,"x_max":899,"o":"m 394 0 l 394 268 q 235 339 304 288 q 128 472 167 390 q 90 658 90 553 l 90 972 l 289 972 l 289 646 q 314 540 289 588 q 385 463 339 492 q 494 433 432 433 q 604 463 558 433 q 675 540 650 492 q 700 646 700 588 l 700 972 l 899 972 l 899 658 q 860 472 899 553 q 753 338 822 390 q 593 268 685 286 l 593 0 l 394 0 m 436 1049 l 319 1219 l 499 1219 l 615 1049 l 436 1049 z "},"Ỷ":{"ha":989,"x_min":90,"x_max":899,"o":"m 394 0 l 394 268 q 235 339 304 288 q 128 472 167 390 q 90 658 90 553 l 90 972 l 289 972 l 289 646 q 314 540 289 588 q 385 463 339 492 q 494 433 432 433 q 604 463 558 433 q 675 540 650 492 q 700 646 700 588 l 700 972 l 899 972 l 899 658 q 860 472 899 553 q 753 338 822 390 q 593 268 685 286 l 593 0 l 394 0 m 426 1036 l 426 1092 q 472 1099 451 1092 q 504 1118 492 1106 q 517 1146 517 1131 q 503 1172 517 1163 q 449 1182 489 1182 q 411 1179 426 1182 q 381 1171 396 1176 l 381 1288 q 419 1295 396 1292 q 468 1299 442 1299 q 592 1271 549 1299 q 635 1189 635 1243 q 600 1103 635 1138 q 516 1053 565 1069 q 426 1036 467 1036 z "},"Ȳ":{"ha":989,"x_min":90,"x_max":899,"o":"m 394 0 l 394 268 q 235 339 304 288 q 128 472 167 390 q 90 658 90 553 l 90 972 l 289 972 l 289 646 q 314 540 289 588 q 385 463 339 492 q 494 433 432 433 q 604 463 558 433 q 675 540 650 492 q 700 646 700 588 l 700 972 l 899 972 l 899 658 q 860 472 899 553 q 753 338 822 390 q 593 268 685 286 l 593 0 l 394 0 m 272 1047 l 272 1169 l 689 1169 l 689 1047 l 272 1047 z "},"Ỹ":{"ha":989,"x_min":90,"x_max":899,"o":"m 394 0 l 394 268 q 235 339 304 288 q 128 472 167 390 q 90 658 90 553 l 90 972 l 289 972 l 289 646 q 314 540 289 588 q 385 463 339 492 q 494 433 432 433 q 604 463 558 433 q 675 540 650 492 q 700 646 700 588 l 700 972 l 899 972 l 899 658 q 860 472 899 553 q 753 338 822 390 q 593 268 685 286 l 593 0 l 394 0 m 569 1038 q 508 1046 532 1038 q 468 1067 483 1054 q 439 1092 453 1081 q 416 1110 426 1103 q 394 1117 406 1117 q 375 1109 383 1117 q 367 1089 367 1101 l 367 1051 l 250 1051 l 250 1086 q 292 1194 250 1151 q 401 1236 335 1236 q 478 1217 449 1236 q 529 1182 508 1197 q 553 1165 542 1172 q 576 1157 565 1157 q 596 1164 588 1157 q 604 1185 604 1171 l 604 1222 l 721 1222 l 721 1188 q 678 1080 721 1122 q 569 1038 636 1038 z "},"Z":{"ha":833,"x_min":49,"x_max":785,"o":"m 256 0 q 106 58 163 0 q 49 206 49 115 q 65 289 49 250 q 121 363 82 328 l 561 754 q 566 761 564 757 q 568 771 568 765 q 564 784 568 778 q 554 794 560 790 q 542 797 549 797 l 72 797 l 72 972 l 571 972 q 680 946 633 972 q 752 874 726 919 q 778 767 778 828 q 762 684 778 724 q 710 613 746 644 l 264 218 q 260 214 263 217 q 258 208 258 211 q 257 201 257 206 q 260 188 257 194 q 270 178 264 182 q 283 175 276 175 l 785 175 l 785 0 l 256 0 z "},"Ź":{"ha":833,"x_min":49,"x_max":785,"o":"m 256 0 q 106 58 163 0 q 49 206 49 115 q 65 289 49 250 q 121 363 82 328 l 561 754 q 566 761 564 757 q 568 771 568 765 q 564 784 568 778 q 554 794 560 790 q 542 797 549 797 l 72 797 l 72 972 l 571 972 q 680 946 633 972 q 752 874 726 919 q 778 767 778 828 q 762 684 778 724 q 710 613 746 644 l 264 218 q 260 214 263 217 q 258 208 258 211 q 257 201 257 206 q 260 188 257 194 q 270 178 264 182 q 283 175 276 175 l 785 175 l 785 0 l 256 0 m 311 1051 l 428 1222 l 607 1222 l 490 1051 l 311 1051 z "},"Ž":{"ha":833,"x_min":49,"x_max":785,"o":"m 256 0 q 106 58 163 0 q 49 206 49 115 q 65 289 49 250 q 121 363 82 328 l 561 754 q 566 761 564 757 q 568 771 568 765 q 564 784 568 778 q 554 794 560 790 q 542 797 549 797 l 72 797 l 72 972 l 571 972 q 680 946 633 972 q 752 874 726 919 q 778 767 778 828 q 762 684 778 724 q 710 613 746 644 l 264 218 q 260 214 263 217 q 258 208 258 211 q 257 201 257 206 q 260 188 257 194 q 270 178 264 182 q 283 175 276 175 l 785 175 l 785 0 l 256 0 m 311 1051 l 194 1222 l 349 1222 l 413 1128 l 478 1222 l 632 1222 l 515 1051 l 311 1051 z "},"Ż":{"ha":833,"x_min":49,"x_max":785,"o":"m 256 0 q 106 58 163 0 q 49 206 49 115 q 65 289 49 250 q 121 363 82 328 l 561 754 q 566 761 564 757 q 568 771 568 765 q 564 784 568 778 q 554 794 560 790 q 542 797 549 797 l 72 797 l 72 972 l 571 972 q 680 946 633 972 q 752 874 726 919 q 778 767 778 828 q 762 684 778 724 q 710 613 746 644 l 264 218 q 260 214 263 217 q 258 208 258 211 q 257 201 257 206 q 260 188 257 194 q 270 178 264 182 q 283 175 276 175 l 785 175 l 785 0 l 256 0 m 438 1039 q 353 1074 389 1039 q 318 1158 318 1110 q 353 1242 318 1207 q 438 1278 389 1278 q 522 1242 486 1278 q 557 1158 557 1207 q 522 1074 557 1110 q 438 1039 486 1039 z "},"a":{"ha":886,"x_min":49,"x_max":796,"o":"m 369 -17 q 200 33 272 -17 q 88 167 128 83 q 49 353 49 251 q 94 542 49 457 q 224 676 139 626 q 426 725 308 725 q 628 675 546 725 q 753 540 710 625 q 796 353 796 456 l 796 0 l 606 0 l 606 118 l 603 118 q 551 50 582 81 q 475 1 519 19 q 369 -17 431 -17 m 424 146 q 519 174 479 146 q 581 249 560 201 q 603 356 603 297 q 581 460 603 414 q 519 535 560 507 q 424 563 479 563 q 326 535 367 563 q 263 460 285 507 q 242 356 242 414 q 263 249 242 297 q 326 174 285 201 q 424 146 367 146 z "},"á":{"ha":886,"x_min":49,"x_max":796,"o":"m 369 -17 q 200 33 272 -17 q 88 167 128 83 q 49 353 49 251 q 94 542 49 457 q 224 676 139 626 q 426 725 308 725 q 628 675 546 725 q 753 540 710 625 q 796 353 796 456 l 796 0 l 606 0 l 606 118 l 603 118 q 551 50 582 81 q 475 1 519 19 q 369 -17 431 -17 m 424 146 q 519 174 479 146 q 581 249 560 201 q 603 356 603 297 q 581 460 603 414 q 519 535 560 507 q 424 563 479 563 q 326 535 367 563 q 263 460 285 507 q 242 356 242 414 q 263 249 242 297 q 326 174 285 201 q 424 146 367 146 m 339 801 l 456 972 l 635 972 l 518 801 l 339 801 z "},"ă":{"ha":886,"x_min":49,"x_max":796,"o":"m 369 -17 q 200 33 272 -17 q 88 167 128 83 q 49 353 49 251 q 94 542 49 457 q 224 676 139 626 q 426 725 308 725 q 628 675 546 725 q 753 540 710 625 q 796 353 796 456 l 796 0 l 606 0 l 606 118 l 603 118 q 551 50 582 81 q 475 1 519 19 q 369 -17 431 -17 m 424 146 q 519 174 479 146 q 581 249 560 201 q 603 356 603 297 q 581 460 603 414 q 519 535 560 507 q 424 563 479 563 q 326 535 367 563 q 263 460 285 507 q 242 356 242 414 q 263 249 242 297 q 326 174 285 201 q 424 146 367 146 m 446 792 q 355 816 396 792 q 290 881 314 840 q 265 972 265 922 l 374 972 q 394 920 374 942 q 446 899 415 899 q 499 920 478 899 q 519 972 519 942 l 625 972 q 601 881 625 922 q 536 816 576 840 q 446 792 496 792 z "},"ắ":{"ha":886,"x_min":49,"x_max":796,"o":"m 369 -17 q 200 33 272 -17 q 88 167 128 83 q 49 353 49 251 q 94 542 49 457 q 224 676 139 626 q 426 725 308 725 q 628 675 546 725 q 753 540 710 625 q 796 353 796 456 l 796 0 l 606 0 l 606 118 l 603 118 q 551 50 582 81 q 475 1 519 19 q 369 -17 431 -17 m 424 146 q 519 174 479 146 q 581 249 560 201 q 603 356 603 297 q 581 460 603 414 q 519 535 560 507 q 424 563 479 563 q 326 535 367 563 q 263 460 285 507 q 242 356 242 414 q 263 249 242 297 q 326 174 285 201 q 424 146 367 146 m 446 792 q 355 816 396 792 q 290 881 314 840 q 265 972 265 922 l 374 972 q 394 920 374 942 q 446 899 415 899 q 499 920 478 899 q 519 972 519 942 l 625 972 q 601 881 625 922 q 536 816 576 840 q 446 792 496 792 m 347 1025 l 464 1196 l 643 1196 l 526 1025 l 347 1025 z "},"ặ":{"ha":886,"x_min":49,"x_max":796,"o":"m 369 -17 q 200 33 272 -17 q 88 167 128 83 q 49 353 49 251 q 94 542 49 457 q 224 676 139 626 q 426 725 308 725 q 628 675 546 725 q 753 540 710 625 q 796 353 796 456 l 796 0 l 606 0 l 606 118 l 603 118 q 551 50 582 81 q 475 1 519 19 q 369 -17 431 -17 m 424 146 q 519 174 479 146 q 581 249 560 201 q 603 356 603 297 q 581 460 603 414 q 519 535 560 507 q 424 563 479 563 q 326 535 367 563 q 263 460 285 507 q 242 356 242 414 q 263 249 242 297 q 326 174 285 201 q 424 146 367 146 m 446 792 q 355 816 396 792 q 290 881 314 840 q 265 972 265 922 l 374 972 q 394 920 374 942 q 446 899 415 899 q 499 920 478 899 q 519 972 519 942 l 625 972 q 601 881 625 922 q 536 816 576 840 q 446 792 496 792 z "},"ằ":{"ha":886,"x_min":49,"x_max":796,"o":"m 369 -17 q 200 33 272 -17 q 88 167 128 83 q 49 353 49 251 q 94 542 49 457 q 224 676 139 626 q 426 725 308 725 q 628 675 546 725 q 753 540 710 625 q 796 353 796 456 l 796 0 l 606 0 l 606 118 l 603 118 q 551 50 582 81 q 475 1 519 19 q 369 -17 431 -17 m 424 146 q 519 174 479 146 q 581 249 560 201 q 603 356 603 297 q 581 460 603 414 q 519 535 560 507 q 424 563 479 563 q 326 535 367 563 q 263 460 285 507 q 242 356 242 414 q 263 249 242 297 q 326 174 285 201 q 424 146 367 146 m 446 792 q 355 816 396 792 q 290 881 314 840 q 265 972 265 922 l 374 972 q 394 920 374 942 q 446 899 415 899 q 499 920 478 899 q 519 972 519 942 l 625 972 q 601 881 625 922 q 536 816 576 840 q 446 792 496 792 m 371 1025 l 254 1196 l 433 1196 l 550 1025 l 371 1025 z "},"ẳ":{"ha":886,"x_min":49,"x_max":796,"o":"m 369 -17 q 200 33 272 -17 q 88 167 128 83 q 49 353 49 251 q 94 542 49 457 q 224 676 139 626 q 426 725 308 725 q 628 675 546 725 q 753 540 710 625 q 796 353 796 456 l 796 0 l 606 0 l 606 118 l 603 118 q 551 50 582 81 q 475 1 519 19 q 369 -17 431 -17 m 424 146 q 519 174 479 146 q 581 249 560 201 q 603 356 603 297 q 581 460 603 414 q 519 535 560 507 q 424 563 479 563 q 326 535 367 563 q 263 460 285 507 q 242 356 242 414 q 263 249 242 297 q 326 174 285 201 q 424 146 367 146 m 446 792 q 355 816 396 792 q 290 881 314 840 q 265 972 265 922 l 374 972 q 394 920 374 942 q 446 899 415 899 q 499 920 478 899 q 519 972 519 942 l 625 972 q 601 881 625 922 q 536 816 576 840 q 446 792 496 792 m 383 1010 l 383 1065 q 428 1072 408 1065 q 461 1092 449 1079 q 474 1119 474 1104 q 460 1146 474 1136 q 406 1156 446 1156 q 368 1153 383 1156 q 338 1144 353 1150 l 338 1261 q 376 1269 353 1265 q 425 1272 399 1272 q 549 1244 506 1272 q 592 1163 592 1217 q 557 1077 592 1111 q 473 1026 522 1043 q 383 1010 424 1010 z "},"ẵ":{"ha":886,"x_min":49,"x_max":796,"o":"m 369 -17 q 200 33 272 -17 q 88 167 128 83 q 49 353 49 251 q 94 542 49 457 q 224 676 139 626 q 426 725 308 725 q 628 675 546 725 q 753 540 710 625 q 796 353 796 456 l 796 0 l 606 0 l 606 118 l 603 118 q 551 50 582 81 q 475 1 519 19 q 369 -17 431 -17 m 424 146 q 519 174 479 146 q 581 249 560 201 q 603 356 603 297 q 581 460 603 414 q 519 535 560 507 q 424 563 479 563 q 326 535 367 563 q 263 460 285 507 q 242 356 242 414 q 263 249 242 297 q 326 174 285 201 q 424 146 367 146 m 446 792 q 355 816 396 792 q 290 881 314 840 q 265 972 265 922 l 374 972 q 394 920 374 942 q 446 899 415 899 q 499 920 478 899 q 519 972 519 942 l 625 972 q 601 881 625 922 q 536 816 576 840 q 446 792 496 792 m 528 1024 q 466 1032 490 1024 q 426 1053 442 1040 q 397 1078 411 1067 q 374 1096 385 1089 q 353 1103 364 1103 q 333 1095 342 1103 q 325 1075 325 1088 l 325 1038 l 208 1038 l 208 1072 q 251 1180 208 1138 q 360 1222 293 1222 q 437 1203 407 1222 q 488 1168 467 1183 q 512 1151 500 1158 q 535 1143 524 1143 q 554 1150 546 1143 q 563 1171 563 1157 l 563 1208 l 679 1208 l 679 1174 q 637 1066 679 1108 q 528 1024 594 1024 z "},"ǎ":{"ha":886,"x_min":49,"x_max":796,"o":"m 369 -17 q 200 33 272 -17 q 88 167 128 83 q 49 353 49 251 q 94 542 49 457 q 224 676 139 626 q 426 725 308 725 q 628 675 546 725 q 753 540 710 625 q 796 353 796 456 l 796 0 l 606 0 l 606 118 l 603 118 q 551 50 582 81 q 475 1 519 19 q 369 -17 431 -17 m 424 146 q 519 174 479 146 q 581 249 560 201 q 603 356 603 297 q 581 460 603 414 q 519 535 560 507 q 424 563 479 563 q 326 535 367 563 q 263 460 285 507 q 242 356 242 414 q 263 249 242 297 q 326 174 285 201 q 424 146 367 146 m 325 801 l 208 972 l 363 972 l 426 878 l 492 972 l 646 972 l 529 801 l 325 801 z "},"â":{"ha":886,"x_min":49,"x_max":796,"o":"m 369 -17 q 200 33 272 -17 q 88 167 128 83 q 49 353 49 251 q 94 542 49 457 q 224 676 139 626 q 426 725 308 725 q 628 675 546 725 q 753 540 710 625 q 796 353 796 456 l 796 0 l 606 0 l 606 118 l 603 118 q 551 50 582 81 q 475 1 519 19 q 369 -17 431 -17 m 424 146 q 519 174 479 146 q 581 249 560 201 q 603 356 603 297 q 581 460 603 414 q 519 535 560 507 q 424 563 479 563 q 326 535 367 563 q 263 460 285 507 q 242 356 242 414 q 263 249 242 297 q 326 174 285 201 q 424 146 367 146 m 211 801 l 328 972 l 532 972 l 649 801 l 494 801 l 429 896 l 365 801 l 211 801 z "},"ấ":{"ha":886,"x_min":49,"x_max":796,"o":"m 369 -17 q 200 33 272 -17 q 88 167 128 83 q 49 353 49 251 q 94 542 49 457 q 224 676 139 626 q 426 725 308 725 q 628 675 546 725 q 753 540 710 625 q 796 353 796 456 l 796 0 l 606 0 l 606 118 l 603 118 q 551 50 582 81 q 475 1 519 19 q 369 -17 431 -17 m 424 146 q 519 174 479 146 q 581 249 560 201 q 603 356 603 297 q 581 460 603 414 q 519 535 560 507 q 424 563 479 563 q 326 535 367 563 q 263 460 285 507 q 242 356 242 414 q 263 249 242 297 q 326 174 285 201 q 424 146 367 146 m 211 801 l 328 972 l 532 972 l 649 801 l 494 801 l 429 896 l 365 801 l 211 801 m 350 1039 l 467 1210 l 646 1210 l 529 1039 l 350 1039 z "},"ậ":{"ha":886,"x_min":49,"x_max":796,"o":"m 369 -17 q 200 33 272 -17 q 88 167 128 83 q 49 353 49 251 q 94 542 49 457 q 224 676 139 626 q 426 725 308 725 q 628 675 546 725 q 753 540 710 625 q 796 353 796 456 l 796 0 l 606 0 l 606 118 l 603 118 q 551 50 582 81 q 475 1 519 19 q 369 -17 431 -17 m 424 146 q 519 174 479 146 q 581 249 560 201 q 603 356 603 297 q 581 460 603 414 q 519 535 560 507 q 424 563 479 563 q 326 535 367 563 q 263 460 285 507 q 242 356 242 414 q 263 249 242 297 q 326 174 285 201 q 424 146 367 146 m 211 801 l 328 972 l 532 972 l 649 801 l 494 801 l 429 896 l 365 801 l 211 801 z "},"ầ":{"ha":886,"x_min":49,"x_max":796,"o":"m 369 -17 q 200 33 272 -17 q 88 167 128 83 q 49 353 49 251 q 94 542 49 457 q 224 676 139 626 q 426 725 308 725 q 628 675 546 725 q 753 540 710 625 q 796 353 796 456 l 796 0 l 606 0 l 606 118 l 603 118 q 551 50 582 81 q 475 1 519 19 q 369 -17 431 -17 m 424 146 q 519 174 479 146 q 581 249 560 201 q 603 356 603 297 q 581 460 603 414 q 519 535 560 507 q 424 563 479 563 q 326 535 367 563 q 263 460 285 507 q 242 356 242 414 q 263 249 242 297 q 326 174 285 201 q 424 146 367 146 m 211 801 l 328 972 l 532 972 l 649 801 l 494 801 l 429 896 l 365 801 l 211 801 m 343 1039 l 226 1210 l 406 1210 l 522 1039 l 343 1039 z "},"ẩ":{"ha":886,"x_min":49,"x_max":796,"o":"m 369 -17 q 200 33 272 -17 q 88 167 128 83 q 49 353 49 251 q 94 542 49 457 q 224 676 139 626 q 426 725 308 725 q 628 675 546 725 q 753 540 710 625 q 796 353 796 456 l 796 0 l 606 0 l 606 118 l 603 118 q 551 50 582 81 q 475 1 519 19 q 369 -17 431 -17 m 424 146 q 519 174 479 146 q 581 249 560 201 q 603 356 603 297 q 581 460 603 414 q 519 535 560 507 q 424 563 479 563 q 326 535 367 563 q 263 460 285 507 q 242 356 242 414 q 263 249 242 297 q 326 174 285 201 q 424 146 367 146 m 211 801 l 328 972 l 532 972 l 649 801 l 494 801 l 429 896 l 365 801 l 211 801 m 363 1025 l 363 1081 q 408 1088 388 1081 q 440 1107 428 1094 q 453 1135 453 1119 q 439 1161 453 1151 q 385 1171 425 1171 q 347 1168 363 1171 q 317 1160 332 1165 l 317 1276 q 355 1284 332 1281 q 404 1288 378 1288 q 528 1260 485 1288 q 571 1178 571 1232 q 536 1092 571 1126 q 452 1042 501 1058 q 363 1025 403 1025 z "},"ẫ":{"ha":886,"x_min":49,"x_max":796,"o":"m 369 -17 q 200 33 272 -17 q 88 167 128 83 q 49 353 49 251 q 94 542 49 457 q 224 676 139 626 q 426 725 308 725 q 628 675 546 725 q 753 540 710 625 q 796 353 796 456 l 796 0 l 606 0 l 606 118 l 603 118 q 551 50 582 81 q 475 1 519 19 q 369 -17 431 -17 m 424 146 q 519 174 479 146 q 581 249 560 201 q 603 356 603 297 q 581 460 603 414 q 519 535 560 507 q 424 563 479 563 q 326 535 367 563 q 263 460 285 507 q 242 356 242 414 q 263 249 242 297 q 326 174 285 201 q 424 146 367 146 m 211 801 l 328 972 l 532 972 l 649 801 l 494 801 l 429 896 l 365 801 l 211 801 m 528 1038 q 466 1046 490 1038 q 426 1067 442 1054 q 397 1092 411 1081 q 374 1110 385 1103 q 353 1117 364 1117 q 333 1109 342 1117 q 325 1089 325 1101 l 325 1051 l 208 1051 l 208 1086 q 251 1194 208 1151 q 360 1236 293 1236 q 437 1217 407 1236 q 488 1182 467 1197 q 512 1165 500 1172 q 535 1157 524 1157 q 554 1164 546 1157 q 563 1185 563 1171 l 563 1222 l 679 1222 l 679 1188 q 637 1080 679 1122 q 528 1038 594 1038 z "},"ȁ":{"ha":886,"x_min":49,"x_max":796,"o":"m 369 -17 q 200 33 272 -17 q 88 167 128 83 q 49 353 49 251 q 94 542 49 457 q 224 676 139 626 q 426 725 308 725 q 628 675 546 725 q 753 540 710 625 q 796 353 796 456 l 796 0 l 606 0 l 606 118 l 603 118 q 551 50 582 81 q 475 1 519 19 q 369 -17 431 -17 m 424 146 q 519 174 479 146 q 581 249 560 201 q 603 356 603 297 q 581 460 603 414 q 519 535 560 507 q 424 563 479 563 q 326 535 367 563 q 263 460 285 507 q 242 356 242 414 q 263 249 242 297 q 326 174 285 201 q 424 146 367 146 m 499 801 l 365 996 l 525 996 l 658 801 l 499 801 m 251 801 l 118 996 l 278 996 l 411 801 l 251 801 z "},"ä":{"ha":886,"x_min":49,"x_max":796,"o":"m 369 -17 q 200 33 272 -17 q 88 167 128 83 q 49 353 49 251 q 94 542 49 457 q 224 676 139 626 q 426 725 308 725 q 628 675 546 725 q 753 540 710 625 q 796 353 796 456 l 796 0 l 606 0 l 606 118 l 603 118 q 551 50 582 81 q 475 1 519 19 q 369 -17 431 -17 m 424 146 q 519 174 479 146 q 581 249 560 201 q 603 356 603 297 q 581 460 603 414 q 519 535 560 507 q 424 563 479 563 q 326 535 367 563 q 263 460 285 507 q 242 356 242 414 q 263 249 242 297 q 326 174 285 201 q 424 146 367 146 z "},"ạ":{"ha":886,"x_min":49,"x_max":796,"o":"m 369 -17 q 200 33 272 -17 q 88 167 128 83 q 49 353 49 251 q 94 542 49 457 q 224 676 139 626 q 426 725 308 725 q 628 675 546 725 q 753 540 710 625 q 796 353 796 456 l 796 0 l 606 0 l 606 118 l 603 118 q 551 50 582 81 q 475 1 519 19 q 369 -17 431 -17 m 424 146 q 519 174 479 146 q 581 249 560 201 q 603 356 603 297 q 581 460 603 414 q 519 535 560 507 q 424 563 479 563 q 326 535 367 563 q 263 460 285 507 q 242 356 242 414 q 263 249 242 297 q 326 174 285 201 q 424 146 367 146 z "},"à":{"ha":886,"x_min":49,"x_max":796,"o":"m 369 -17 q 200 33 272 -17 q 88 167 128 83 q 49 353 49 251 q 94 542 49 457 q 224 676 139 626 q 426 725 308 725 q 628 675 546 725 q 753 540 710 625 q 796 353 796 456 l 796 0 l 606 0 l 606 118 l 603 118 q 551 50 582 81 q 475 1 519 19 q 369 -17 431 -17 m 424 146 q 519 174 479 146 q 581 249 560 201 q 603 356 603 297 q 581 460 603 414 q 519 535 560 507 q 424 563 479 563 q 326 535 367 563 q 263 460 285 507 q 242 356 242 414 q 263 249 242 297 q 326 174 285 201 q 424 146 367 146 m 363 801 l 246 972 l 425 972 l 542 801 l 363 801 z "},"ả":{"ha":886,"x_min":49,"x_max":796,"o":"m 369 -17 q 200 33 272 -17 q 88 167 128 83 q 49 353 49 251 q 94 542 49 457 q 224 676 139 626 q 426 725 308 725 q 628 675 546 725 q 753 540 710 625 q 796 353 796 456 l 796 0 l 606 0 l 606 118 l 603 118 q 551 50 582 81 q 475 1 519 19 q 369 -17 431 -17 m 424 146 q 519 174 479 146 q 581 249 560 201 q 603 356 603 297 q 581 460 603 414 q 519 535 560 507 q 424 563 479 563 q 326 535 367 563 q 263 460 285 507 q 242 356 242 414 q 263 249 242 297 q 326 174 285 201 q 424 146 367 146 m 363 790 l 363 846 q 408 853 388 846 q 440 872 428 860 q 453 900 453 885 q 439 926 453 917 q 385 936 425 936 q 347 933 363 936 q 317 925 332 931 l 317 1042 q 355 1049 332 1046 q 404 1053 378 1053 q 528 1025 485 1053 q 571 943 571 997 q 536 858 571 892 q 452 807 501 824 q 363 790 403 790 z "},"ȃ":{"ha":886,"x_min":49,"x_max":796,"o":"m 369 -17 q 200 33 272 -17 q 88 167 128 83 q 49 353 49 251 q 94 542 49 457 q 224 676 139 626 q 426 725 308 725 q 628 675 546 725 q 753 540 710 625 q 796 353 796 456 l 796 0 l 606 0 l 606 118 l 603 118 q 551 50 582 81 q 475 1 519 19 q 369 -17 431 -17 m 424 146 q 519 174 479 146 q 581 249 560 201 q 603 356 603 297 q 581 460 603 414 q 519 535 560 507 q 424 563 479 563 q 326 535 367 563 q 263 460 285 507 q 242 356 242 414 q 263 249 242 297 q 326 174 285 201 q 424 146 367 146 z "},"ā":{"ha":886,"x_min":49,"x_max":796,"o":"m 369 -17 q 200 33 272 -17 q 88 167 128 83 q 49 353 49 251 q 94 542 49 457 q 224 676 139 626 q 426 725 308 725 q 628 675 546 725 q 753 540 710 625 q 796 353 796 456 l 796 0 l 606 0 l 606 118 l 603 118 q 551 50 582 81 q 475 1 519 19 q 369 -17 431 -17 m 424 146 q 519 174 479 146 q 581 249 560 201 q 603 356 603 297 q 581 460 603 414 q 519 535 560 507 q 424 563 479 563 q 326 535 367 563 q 263 460 285 507 q 242 356 242 414 q 263 249 242 297 q 326 174 285 201 q 424 146 367 146 m 207 797 l 207 919 l 624 919 l 624 797 l 207 797 z "},"ą":{"ha":886,"x_min":49,"x_max":796,"o":"m 724 -303 q 595 -264 649 -303 q 542 -144 542 -225 q 565 -63 542 -107 q 618 21 588 -19 q 673 88 649 61 q 701 119 697 115 l 750 92 q 733 65 747 88 q 701 12 718 43 q 672 -52 685 -19 q 660 -111 660 -85 q 682 -165 660 -144 q 736 -186 704 -186 q 767 -183 751 -186 q 796 -175 782 -181 l 796 -293 q 760 -300 782 -297 q 724 -303 739 -303 m 369 -17 q 200 33 272 -17 q 88 167 128 83 q 49 353 49 251 q 94 542 49 457 q 224 676 139 626 q 426 725 308 725 q 628 675 546 725 q 753 540 710 625 q 796 353 796 456 l 796 0 l 606 0 l 606 118 l 603 118 q 551 50 582 81 q 475 1 519 19 q 369 -17 431 -17 m 424 146 q 519 174 479 146 q 581 249 560 201 q 603 356 603 297 q 581 460 603 414 q 519 535 560 507 q 424 563 479 563 q 326 535 367 563 q 263 460 285 507 q 242 356 242 414 q 263 249 242 297 q 326 174 285 201 q 424 146 367 146 z "},"å":{"ha":886,"x_min":49,"x_max":796,"o":"m 369 -17 q 200 33 272 -17 q 88 167 128 83 q 49 353 49 251 q 94 542 49 457 q 224 676 139 626 q 426 725 308 725 q 628 675 546 725 q 753 540 710 625 q 796 353 796 456 l 796 0 l 606 0 l 606 118 l 603 118 q 551 50 582 81 q 475 1 519 19 q 369 -17 431 -17 m 424 146 q 519 174 479 146 q 581 249 560 201 q 603 356 603 297 q 581 460 603 414 q 519 535 560 507 q 424 563 479 563 q 326 535 367 563 q 263 460 285 507 q 242 356 242 414 q 263 249 242 297 q 326 174 285 201 q 424 146 367 146 m 428 782 q 334 820 372 782 q 296 914 296 858 q 334 1008 296 969 q 428 1046 372 1046 q 522 1008 483 1046 q 560 914 560 969 q 522 820 560 858 q 428 782 483 782 m 428 860 q 467 876 451 860 q 482 914 482 892 q 467 953 482 938 q 428 968 451 968 q 390 953 406 968 q 374 914 374 938 q 390 876 374 892 q 428 860 406 860 z "},"ǻ":{"ha":886,"x_min":49,"x_max":796,"o":"m 369 -17 q 200 33 272 -17 q 88 167 128 83 q 49 353 49 251 q 94 542 49 457 q 224 676 139 626 q 426 725 308 725 q 628 675 546 725 q 753 540 710 625 q 796 353 796 456 l 796 0 l 606 0 l 606 118 l 603 118 q 551 50 582 81 q 475 1 519 19 q 369 -17 431 -17 m 424 146 q 519 174 479 146 q 581 249 560 201 q 603 356 603 297 q 581 460 603 414 q 519 535 560 507 q 424 563 479 563 q 326 535 367 563 q 263 460 285 507 q 242 356 242 414 q 263 249 242 297 q 326 174 285 201 q 424 146 367 146 m 428 782 q 334 820 372 782 q 296 914 296 858 q 334 1008 296 969 q 428 1046 372 1046 q 522 1008 483 1046 q 560 914 560 969 q 522 820 560 858 q 428 782 483 782 m 428 860 q 467 876 451 860 q 482 914 482 892 q 467 953 482 938 q 428 968 451 968 q 390 953 406 968 q 374 914 374 938 q 390 876 374 892 q 428 860 406 860 m 338 1115 l 454 1286 l 633 1286 l 517 1115 l 338 1115 z "},"ã":{"ha":886,"x_min":49,"x_max":796,"o":"m 369 -17 q 200 33 272 -17 q 88 167 128 83 q 49 353 49 251 q 94 542 49 457 q 224 676 139 626 q 426 725 308 725 q 628 675 546 725 q 753 540 710 625 q 796 353 796 456 l 796 0 l 606 0 l 606 118 l 603 118 q 551 50 582 81 q 475 1 519 19 q 369 -17 431 -17 m 424 146 q 519 174 479 146 q 581 249 560 201 q 603 356 603 297 q 581 460 603 414 q 519 535 560 507 q 424 563 479 563 q 326 535 367 563 q 263 460 285 507 q 242 356 242 414 q 263 249 242 297 q 326 174 285 201 q 424 146 367 146 m 513 788 q 451 796 475 788 q 411 817 426 804 q 382 842 396 831 q 359 860 369 853 q 338 867 349 867 q 318 859 326 867 q 310 839 310 851 l 310 801 l 193 801 l 193 836 q 235 944 193 901 q 344 986 278 986 q 422 967 392 986 q 472 932 451 947 q 497 915 485 922 q 519 907 508 907 q 539 914 531 907 q 547 935 547 921 l 547 972 l 664 972 l 664 938 q 622 830 664 872 q 513 788 579 788 z "},"æ":{"ha":1244,"x_min":56,"x_max":1200,"o":"m 268 0 q 162 29 210 0 q 85 106 114 58 q 56 213 56 154 q 85 326 56 281 q 162 397 114 372 q 268 421 210 421 l 526 421 l 526 496 q 510 532 526 518 q 474 546 494 546 l 124 546 l 124 708 l 492 708 q 574 690 536 708 q 642 639 613 671 q 742 702 686 679 q 863 725 799 725 q 1056 675 982 725 q 1165 541 1131 625 q 1200 354 1200 457 q 1199 322 1200 340 q 1194 293 1197 303 l 715 293 q 753 221 726 250 q 822 177 781 192 q 914 163 863 163 l 1111 163 l 1111 0 l 911 0 q 770 22 835 0 q 656 85 706 44 q 581 23 625 46 q 486 0 538 0 l 268 0 m 311 163 l 468 163 q 510 178 493 163 q 526 217 526 193 l 526 293 l 311 293 q 263 273 283 293 q 243 225 243 253 q 252 192 243 207 q 277 170 261 178 q 311 163 293 163 m 714 421 l 1010 421 q 1000 470 1007 447 q 981 511 993 493 q 951 542 968 529 q 913 561 935 554 q 864 568 890 568 q 802 556 829 568 q 757 522 775 543 q 728 475 739 501 q 714 421 718 449 z "},"ǽ":{"ha":1244,"x_min":56,"x_max":1200,"o":"m 268 0 q 162 29 210 0 q 85 106 114 58 q 56 213 56 154 q 85 326 56 281 q 162 397 114 372 q 268 421 210 421 l 526 421 l 526 496 q 510 532 526 518 q 474 546 494 546 l 124 546 l 124 708 l 492 708 q 574 690 536 708 q 642 639 613 671 q 742 702 686 679 q 863 725 799 725 q 1056 675 982 725 q 1165 541 1131 625 q 1200 354 1200 457 q 1199 322 1200 340 q 1194 293 1197 303 l 715 293 q 753 221 726 250 q 822 177 781 192 q 914 163 863 163 l 1111 163 l 1111 0 l 911 0 q 770 22 835 0 q 656 85 706 44 q 581 23 625 46 q 486 0 538 0 l 268 0 m 311 163 l 468 163 q 510 178 493 163 q 526 217 526 193 l 526 293 l 311 293 q 263 273 283 293 q 243 225 243 253 q 252 192 243 207 q 277 170 261 178 q 311 163 293 163 m 714 421 l 1010 421 q 1000 470 1007 447 q 981 511 993 493 q 951 542 968 529 q 913 561 935 554 q 864 568 890 568 q 802 556 829 568 q 757 522 775 543 q 728 475 739 501 q 714 421 718 449 m 544 801 l 661 972 l 840 972 l 724 801 l 544 801 z "},"b":{"ha":879,"x_min":83,"x_max":831,"o":"m 457 -17 q 259 31 343 -17 q 129 165 175 78 q 83 368 83 251 l 83 1014 l 274 1014 l 274 621 l 275 621 q 330 676 297 653 q 403 713 363 700 q 489 725 444 725 q 669 679 593 725 q 788 553 746 633 q 831 368 831 474 q 806 215 831 285 q 733 92 781 144 q 617 12 686 40 q 457 -17 547 -17 m 457 146 q 554 174 514 146 q 616 249 594 201 q 638 354 638 296 q 616 460 638 413 q 554 535 594 507 q 457 563 514 563 q 360 535 401 563 q 298 460 319 507 q 276 354 276 413 q 298 249 276 296 q 360 174 319 201 q 457 146 401 146 z "},"c":{"ha":561,"x_min":49,"x_max":519,"o":"m 431 0 q 235 47 321 0 q 99 174 149 94 q 49 354 49 254 q 99 534 49 454 q 235 661 149 614 q 431 708 321 708 l 519 708 l 519 546 l 431 546 q 330 521 372 546 q 265 452 288 496 q 242 354 242 408 q 265 256 242 300 q 330 188 288 213 q 431 163 372 163 l 519 163 l 519 0 l 431 0 z "},"ć":{"ha":571,"x_min":49,"x_max":529,"o":"m 431 0 q 235 47 321 0 q 99 174 149 94 q 49 354 49 254 q 99 534 49 454 q 235 661 149 614 q 431 708 321 708 l 519 708 l 519 546 l 431 546 q 330 521 372 546 q 265 452 288 496 q 242 354 242 408 q 265 256 242 300 q 330 188 288 213 q 431 163 372 163 l 519 163 l 519 0 l 431 0 m 233 801 l 350 972 l 529 972 l 413 801 l 233 801 z "},"č":{"ha":600,"x_min":49,"x_max":558,"o":"m 431 0 q 235 47 321 0 q 99 174 149 94 q 49 354 49 254 q 99 534 49 454 q 235 661 149 614 q 431 708 321 708 l 519 708 l 519 546 l 431 546 q 330 521 372 546 q 265 452 288 496 q 242 354 242 408 q 265 256 242 300 q 330 188 288 213 q 431 163 372 163 l 519 163 l 519 0 l 431 0 m 238 801 l 121 972 l 275 972 l 339 878 l 404 972 l 558 972 l 442 801 l 238 801 z "},"ç":{"ha":561,"x_min":49,"x_max":519,"o":"m 431 0 q 235 47 321 0 q 99 174 149 94 q 49 354 49 254 q 99 534 49 454 q 235 661 149 614 q 431 708 321 708 l 519 708 l 519 546 l 431 546 q 330 521 372 546 q 265 452 288 496 q 242 354 242 408 q 265 256 242 300 q 330 188 288 213 q 431 163 372 163 l 519 163 l 519 0 l 431 0 m 139 -282 l 274 33 l 456 33 l 321 -282 l 139 -282 z "},"ĉ":{"ha":600,"x_min":49,"x_max":558,"o":"m 431 0 q 235 47 321 0 q 99 174 149 94 q 49 354 49 254 q 99 534 49 454 q 235 661 149 614 q 431 708 321 708 l 519 708 l 519 546 l 431 546 q 330 521 372 546 q 265 452 288 496 q 242 354 242 408 q 265 256 242 300 q 330 188 288 213 q 431 163 372 163 l 519 163 l 519 0 l 431 0 m 121 801 l 238 972 l 442 972 l 558 801 l 404 801 l 339 896 l 275 801 l 121 801 z "},"ċ":{"ha":561,"x_min":49,"x_max":519,"o":"m 431 0 q 235 47 321 0 q 99 174 149 94 q 49 354 49 254 q 99 534 49 454 q 235 661 149 614 q 431 708 321 708 l 519 708 l 519 546 l 431 546 q 330 521 372 546 q 265 452 288 496 q 242 354 242 408 q 265 256 242 300 q 330 188 288 213 q 431 163 372 163 l 519 163 l 519 0 l 431 0 m 396 793 q 312 828 347 793 q 276 913 276 864 q 312 997 276 961 q 396 1032 347 1032 q 480 997 444 1032 q 515 913 515 961 q 480 828 515 864 q 396 793 444 793 z "},"d":{"ha":879,"x_min":49,"x_max":796,"o":"m 422 -17 q 620 31 536 -17 q 750 165 704 78 q 796 368 796 251 l 796 1014 l 606 1014 l 606 621 l 604 621 q 549 676 582 653 q 476 713 517 700 q 390 725 435 725 q 210 679 286 725 q 91 553 133 633 q 49 368 49 474 q 74 215 49 285 q 146 92 99 144 q 263 12 193 40 q 422 -17 332 -17 m 422 146 q 325 174 365 146 q 263 249 285 201 q 242 354 242 296 q 263 460 242 413 q 325 535 285 507 q 422 563 365 563 q 519 535 478 563 q 581 460 560 507 q 603 354 603 413 q 581 249 603 296 q 519 174 560 201 q 422 146 478 146 z "},"ð":{"ha":844,"x_min":49,"x_max":796,"o":"m 422 -17 q 263 12 333 -17 q 146 91 193 40 q 74 209 99 142 q 49 354 49 276 q 93 543 49 464 q 208 666 138 622 q 358 710 279 710 q 423 701 390 710 q 479 676 456 692 l 482 678 l 383 822 l 222 797 l 222 910 l 314 924 l 253 1014 l 479 1014 l 518 954 l 672 976 l 672 865 l 583 851 l 668 718 q 735 603 706 660 q 780 489 764 547 q 796 368 796 431 q 750 165 796 251 q 621 31 704 78 q 422 -17 538 -17 m 422 146 q 519 174 479 146 q 581 249 560 201 q 603 354 603 296 q 580 465 603 418 q 517 537 557 511 q 426 563 478 563 q 326 533 368 563 q 263 457 285 504 q 242 354 242 410 q 263 249 242 296 q 326 174 285 201 q 422 146 367 146 z "},"ď":{"ha":1128,"x_min":49,"x_max":1111,"o":"m 422 -17 q 620 31 536 -17 q 750 165 704 78 q 796 368 796 251 l 796 1014 l 606 1014 l 606 621 l 604 621 q 549 676 582 653 q 476 713 517 700 q 390 725 435 725 q 210 679 286 725 q 91 553 133 633 q 49 368 49 474 q 74 215 49 285 q 146 92 99 144 q 263 12 193 40 q 422 -17 332 -17 m 422 146 q 325 174 365 146 q 263 249 285 201 q 242 354 242 296 q 263 460 242 413 q 325 535 285 507 q 422 563 365 563 q 519 535 478 563 q 581 460 560 507 q 603 354 603 413 q 581 249 603 296 q 519 174 560 201 q 422 146 478 146 z "},"đ":{"ha":879,"x_min":49,"x_max":879,"o":"m 335 801 l 335 911 l 879 911 l 879 801 l 335 801 m 422 -17 q 263 12 333 -17 q 146 92 193 40 q 74 215 99 144 q 49 368 49 285 q 91 553 49 474 q 210 679 133 633 q 390 725 288 725 q 476 713 435 725 q 550 676 517 700 q 604 621 583 653 l 606 621 l 606 1014 l 796 1014 l 796 368 q 750 165 796 251 q 621 31 704 78 q 422 -17 538 -17 m 422 146 q 519 174 479 146 q 581 249 560 201 q 603 354 603 296 q 581 460 603 413 q 519 535 560 507 q 422 563 479 563 q 326 535 367 563 q 263 460 285 507 q 242 354 242 413 q 263 249 242 296 q 326 174 285 201 q 422 146 367 146 z "},"ǆ":{"ha":1589,"x_min":49,"x_max":1515,"o":"m 422 -17 q 620 31 536 -17 q 750 165 704 78 q 796 368 796 251 l 796 1014 l 606 1014 l 606 621 l 604 621 q 549 676 582 653 q 476 713 517 700 q 390 725 435 725 q 210 679 286 725 q 91 553 133 633 q 49 368 49 474 q 74 215 49 285 q 146 92 99 144 q 263 12 193 40 q 422 -17 332 -17 m 422 146 q 325 174 365 146 q 263 249 285 201 q 242 354 242 296 q 263 460 242 413 q 325 535 285 507 q 422 563 365 563 q 519 535 478 563 q 581 460 560 507 q 603 354 603 413 q 581 249 603 296 q 519 174 560 201 q 422 146 478 146 z "},"e":{"ha":781,"x_min":49,"x_max":736,"o":"m 447 0 q 237 47 326 0 q 98 174 147 93 q 49 354 49 254 q 94 550 49 467 q 219 679 140 633 q 399 725 299 725 q 592 675 518 725 q 701 541 667 625 q 736 354 736 457 q 735 322 736 340 q 731 293 733 303 l 251 293 q 290 221 263 250 q 358 177 317 192 q 450 163 399 163 l 647 163 l 647 0 l 447 0 m 250 421 l 546 421 q 536 470 543 447 q 517 511 529 493 q 488 542 504 529 q 449 561 471 554 q 400 568 426 568 q 338 556 365 568 q 293 522 311 543 q 265 475 275 501 q 250 421 254 449 z "},"é":{"ha":781,"x_min":49,"x_max":736,"o":"m 447 0 q 237 47 326 0 q 98 174 147 93 q 49 354 49 254 q 94 550 49 467 q 219 679 140 633 q 399 725 299 725 q 592 675 518 725 q 701 541 667 625 q 736 354 736 457 q 735 322 736 340 q 731 293 733 303 l 251 293 q 290 221 263 250 q 358 177 317 192 q 450 163 399 163 l 647 163 l 647 0 l 447 0 m 250 421 l 546 421 q 536 470 543 447 q 517 511 529 493 q 488 542 504 529 q 449 561 471 554 q 400 568 426 568 q 338 556 365 568 q 293 522 311 543 q 265 475 275 501 q 250 421 254 449 m 319 801 l 436 972 l 615 972 l 499 801 l 319 801 z "},"ĕ":{"ha":781,"x_min":49,"x_max":736,"o":"m 447 0 q 237 47 326 0 q 98 174 147 93 q 49 354 49 254 q 94 550 49 467 q 219 679 140 633 q 399 725 299 725 q 592 675 518 725 q 701 541 667 625 q 736 354 736 457 q 735 322 736 340 q 731 293 733 303 l 251 293 q 290 221 263 250 q 358 177 317 192 q 450 163 399 163 l 647 163 l 647 0 l 447 0 m 250 421 l 546 421 q 536 470 543 447 q 517 511 529 493 q 488 542 504 529 q 449 561 471 554 q 400 568 426 568 q 338 556 365 568 q 293 522 311 543 q 265 475 275 501 q 250 421 254 449 m 444 792 q 353 816 394 792 q 288 881 313 840 q 264 972 264 922 l 372 972 q 393 920 372 942 q 444 899 414 899 q 497 920 476 899 q 518 972 518 942 l 624 972 q 599 881 624 922 q 535 816 575 840 q 444 792 494 792 z "},"ě":{"ha":781,"x_min":49,"x_max":736,"o":"m 447 0 q 237 47 326 0 q 98 174 147 93 q 49 354 49 254 q 94 550 49 467 q 219 679 140 633 q 399 725 299 725 q 592 675 518 725 q 701 541 667 625 q 736 354 736 457 q 735 322 736 340 q 731 293 733 303 l 251 293 q 290 221 263 250 q 358 177 317 192 q 450 163 399 163 l 647 163 l 647 0 l 447 0 m 250 421 l 546 421 q 536 470 543 447 q 517 511 529 493 q 488 542 504 529 q 449 561 471 554 q 400 568 426 568 q 338 556 365 568 q 293 522 311 543 q 265 475 275 501 q 250 421 254 449 m 310 801 l 193 972 l 347 972 l 411 878 l 476 972 l 631 972 l 514 801 l 310 801 z "},"ê":{"ha":781,"x_min":49,"x_max":736,"o":"m 447 0 q 237 47 326 0 q 98 174 147 93 q 49 354 49 254 q 94 550 49 467 q 219 679 140 633 q 399 725 299 725 q 592 675 518 725 q 701 541 667 625 q 736 354 736 457 q 735 322 736 340 q 731 293 733 303 l 251 293 q 290 221 263 250 q 358 177 317 192 q 450 163 399 163 l 647 163 l 647 0 l 447 0 m 250 421 l 546 421 q 536 470 543 447 q 517 511 529 493 q 488 542 504 529 q 449 561 471 554 q 400 568 426 568 q 338 556 365 568 q 293 522 311 543 q 265 475 275 501 q 250 421 254 449 m 189 801 l 306 972 l 510 972 l 626 801 l 472 801 l 407 896 l 343 801 l 189 801 z "},"ế":{"ha":781,"x_min":49,"x_max":736,"o":"m 447 0 q 237 47 326 0 q 98 174 147 93 q 49 354 49 254 q 94 550 49 467 q 219 679 140 633 q 399 725 299 725 q 592 675 518 725 q 701 541 667 625 q 736 354 736 457 q 735 322 736 340 q 731 293 733 303 l 251 293 q 290 221 263 250 q 358 177 317 192 q 450 163 399 163 l 647 163 l 647 0 l 447 0 m 250 421 l 546 421 q 536 470 543 447 q 517 511 529 493 q 488 542 504 529 q 449 561 471 554 q 400 568 426 568 q 338 556 365 568 q 293 522 311 543 q 265 475 275 501 q 250 421 254 449 m 189 801 l 306 972 l 510 972 l 626 801 l 472 801 l 407 896 l 343 801 l 189 801 m 326 1051 l 443 1222 l 622 1222 l 506 1051 l 326 1051 z "},"ệ":{"ha":783,"x_min":49,"x_max":736,"o":"m 447 0 q 237 47 326 0 q 98 174 147 93 q 49 354 49 254 q 94 550 49 467 q 219 679 140 633 q 399 725 299 725 q 592 675 518 725 q 701 541 667 625 q 736 354 736 457 q 735 322 736 340 q 731 293 733 303 l 251 293 q 290 221 263 250 q 358 177 317 192 q 450 163 399 163 l 647 163 l 647 0 l 447 0 m 250 421 l 546 421 q 536 470 543 447 q 517 511 529 493 q 488 542 504 529 q 449 561 471 554 q 400 568 426 568 q 338 556 365 568 q 293 522 311 543 q 265 475 275 501 q 250 421 254 449 m 189 801 l 306 972 l 510 972 l 626 801 l 472 801 l 407 896 l 343 801 l 189 801 z "},"ề":{"ha":781,"x_min":49,"x_max":736,"o":"m 447 0 q 237 47 326 0 q 98 174 147 93 q 49 354 49 254 q 94 550 49 467 q 219 679 140 633 q 399 725 299 725 q 592 675 518 725 q 701 541 667 625 q 736 354 736 457 q 735 322 736 340 q 731 293 733 303 l 251 293 q 290 221 263 250 q 358 177 317 192 q 450 163 399 163 l 647 163 l 647 0 l 447 0 m 250 421 l 546 421 q 536 470 543 447 q 517 511 529 493 q 488 542 504 529 q 449 561 471 554 q 400 568 426 568 q 338 556 365 568 q 293 522 311 543 q 265 475 275 501 q 250 421 254 449 m 189 801 l 306 972 l 510 972 l 626 801 l 472 801 l 407 896 l 343 801 l 189 801 m 326 1051 l 210 1222 l 389 1222 l 506 1051 l 326 1051 z "},"ể":{"ha":781,"x_min":49,"x_max":736,"o":"m 447 0 q 237 47 326 0 q 98 174 147 93 q 49 354 49 254 q 94 550 49 467 q 219 679 140 633 q 399 725 299 725 q 592 675 518 725 q 701 541 667 625 q 736 354 736 457 q 735 322 736 340 q 731 293 733 303 l 251 293 q 290 221 263 250 q 358 177 317 192 q 450 163 399 163 l 647 163 l 647 0 l 447 0 m 250 421 l 546 421 q 536 470 543 447 q 517 511 529 493 q 488 542 504 529 q 449 561 471 554 q 400 568 426 568 q 338 556 365 568 q 293 522 311 543 q 265 475 275 501 q 250 421 254 449 m 189 801 l 306 972 l 510 972 l 626 801 l 472 801 l 407 896 l 343 801 l 189 801 m 338 1038 l 338 1093 q 383 1100 363 1093 q 415 1119 403 1107 q 428 1147 428 1132 q 414 1174 428 1164 q 360 1183 400 1183 q 322 1181 338 1183 q 292 1172 307 1178 l 292 1289 q 330 1297 307 1293 q 379 1300 353 1300 q 503 1272 460 1300 q 546 1190 546 1244 q 511 1105 546 1139 q 427 1054 476 1071 q 338 1038 378 1038 z "},"ễ":{"ha":781,"x_min":49,"x_max":736,"o":"m 447 0 q 237 47 326 0 q 98 174 147 93 q 49 354 49 254 q 94 550 49 467 q 219 679 140 633 q 399 725 299 725 q 592 675 518 725 q 701 541 667 625 q 736 354 736 457 q 735 322 736 340 q 731 293 733 303 l 251 293 q 290 221 263 250 q 358 177 317 192 q 450 163 399 163 l 647 163 l 647 0 l 447 0 m 250 421 l 546 421 q 536 470 543 447 q 517 511 529 493 q 488 542 504 529 q 449 561 471 554 q 400 568 426 568 q 338 556 365 568 q 293 522 311 543 q 265 475 275 501 q 250 421 254 449 m 189 801 l 306 972 l 510 972 l 626 801 l 472 801 l 407 896 l 343 801 l 189 801 m 497 1038 q 435 1046 460 1038 q 396 1067 411 1054 q 367 1092 381 1081 q 344 1110 354 1103 q 322 1117 333 1117 q 303 1109 311 1117 q 294 1089 294 1101 l 294 1051 l 178 1051 l 178 1086 q 220 1194 178 1151 q 329 1236 263 1236 q 406 1217 376 1236 q 457 1182 436 1197 q 481 1165 469 1172 q 504 1157 493 1157 q 524 1164 515 1157 q 532 1185 532 1171 l 532 1222 l 649 1222 l 649 1188 q 606 1080 649 1122 q 497 1038 564 1038 z "},"ȅ":{"ha":781,"x_min":49,"x_max":736,"o":"m 447 0 q 237 47 326 0 q 98 174 147 93 q 49 354 49 254 q 94 550 49 467 q 219 679 140 633 q 399 725 299 725 q 592 675 518 725 q 701 541 667 625 q 736 354 736 457 q 735 322 736 340 q 731 293 733 303 l 251 293 q 290 221 263 250 q 358 177 317 192 q 450 163 399 163 l 647 163 l 647 0 l 447 0 m 250 421 l 546 421 q 536 470 543 447 q 517 511 529 493 q 488 542 504 529 q 449 561 471 554 q 400 568 426 568 q 338 556 365 568 q 293 522 311 543 q 265 475 275 501 q 250 421 254 449 m 481 801 l 347 996 l 507 996 l 640 801 l 481 801 m 233 801 l 100 996 l 260 996 l 393 801 l 233 801 z "},"ë":{"ha":781,"x_min":49,"x_max":736,"o":"m 447 0 q 237 47 326 0 q 98 174 147 93 q 49 354 49 254 q 94 550 49 467 q 219 679 140 633 q 399 725 299 725 q 592 675 518 725 q 701 541 667 625 q 736 354 736 457 q 735 322 736 340 q 731 293 733 303 l 251 293 q 290 221 263 250 q 358 177 317 192 q 450 163 399 163 l 647 163 l 647 0 l 447 0 m 250 421 l 546 421 q 536 470 543 447 q 517 511 529 493 q 488 542 504 529 q 449 561 471 554 q 400 568 426 568 q 338 556 365 568 q 293 522 311 543 q 265 475 275 501 q 250 421 254 449 z "},"ė":{"ha":781,"x_min":49,"x_max":736,"o":"m 447 0 q 237 47 326 0 q 98 174 147 93 q 49 354 49 254 q 94 550 49 467 q 219 679 140 633 q 399 725 299 725 q 592 675 518 725 q 701 541 667 625 q 736 354 736 457 q 735 322 736 340 q 731 293 733 303 l 251 293 q 290 221 263 250 q 358 177 317 192 q 450 163 399 163 l 647 163 l 647 0 l 447 0 m 250 421 l 546 421 q 536 470 543 447 q 517 511 529 493 q 488 542 504 529 q 449 561 471 554 q 400 568 426 568 q 338 556 365 568 q 293 522 311 543 q 265 475 275 501 q 250 421 254 449 m 404 793 q 320 828 356 793 q 285 913 285 864 q 320 997 285 961 q 404 1032 356 1032 q 488 997 453 1032 q 524 913 524 961 q 488 828 524 864 q 404 793 453 793 z "},"ẹ":{"ha":781,"x_min":49,"x_max":736,"o":"m 447 0 q 237 47 326 0 q 98 174 147 93 q 49 354 49 254 q 94 550 49 467 q 219 679 140 633 q 399 725 299 725 q 592 675 518 725 q 701 541 667 625 q 736 354 736 457 q 735 322 736 340 q 731 293 733 303 l 251 293 q 290 221 263 250 q 358 177 317 192 q 450 163 399 163 l 647 163 l 647 0 l 447 0 m 250 421 l 546 421 q 536 470 543 447 q 517 511 529 493 q 488 542 504 529 q 449 561 471 554 q 400 568 426 568 q 338 556 365 568 q 293 522 311 543 q 265 475 275 501 q 250 421 254 449 z "},"è":{"ha":781,"x_min":49,"x_max":736,"o":"m 447 0 q 237 47 326 0 q 98 174 147 93 q 49 354 49 254 q 94 550 49 467 q 219 679 140 633 q 399 725 299 725 q 592 675 518 725 q 701 541 667 625 q 736 354 736 457 q 735 322 736 340 q 731 293 733 303 l 251 293 q 290 221 263 250 q 358 177 317 192 q 450 163 399 163 l 647 163 l 647 0 l 447 0 m 250 421 l 546 421 q 536 470 543 447 q 517 511 529 493 q 488 542 504 529 q 449 561 471 554 q 400 568 426 568 q 338 556 365 568 q 293 522 311 543 q 265 475 275 501 q 250 421 254 449 m 332 801 l 215 972 l 394 972 l 511 801 l 332 801 z "},"ẻ":{"ha":781,"x_min":49,"x_max":736,"o":"m 447 0 q 237 47 326 0 q 98 174 147 93 q 49 354 49 254 q 94 550 49 467 q 219 679 140 633 q 399 725 299 725 q 592 675 518 725 q 701 541 667 625 q 736 354 736 457 q 735 322 736 340 q 731 293 733 303 l 251 293 q 290 221 263 250 q 358 177 317 192 q 450 163 399 163 l 647 163 l 647 0 l 447 0 m 250 421 l 546 421 q 536 470 543 447 q 517 511 529 493 q 488 542 504 529 q 449 561 471 554 q 400 568 426 568 q 338 556 365 568 q 293 522 311 543 q 265 475 275 501 q 250 421 254 449 m 343 788 l 343 843 q 388 850 368 843 q 421 869 408 857 q 433 897 433 882 q 419 924 433 914 q 365 933 406 933 q 328 931 343 933 q 297 922 313 928 l 297 1039 q 335 1047 313 1043 q 385 1050 358 1050 q 508 1022 465 1050 q 551 940 551 994 q 517 855 551 889 q 433 804 482 821 q 343 788 383 788 z "},"ȇ":{"ha":781,"x_min":49,"x_max":736,"o":"m 447 0 q 237 47 326 0 q 98 174 147 93 q 49 354 49 254 q 94 550 49 467 q 219 679 140 633 q 399 725 299 725 q 592 675 518 725 q 701 541 667 625 q 736 354 736 457 q 735 322 736 340 q 731 293 733 303 l 251 293 q 290 221 263 250 q 358 177 317 192 q 450 163 399 163 l 647 163 l 647 0 l 447 0 m 250 421 l 546 421 q 536 470 543 447 q 517 511 529 493 q 488 542 504 529 q 449 561 471 554 q 400 568 426 568 q 338 556 365 568 q 293 522 311 543 q 265 475 275 501 q 250 421 254 449 z "},"ē":{"ha":781,"x_min":49,"x_max":736,"o":"m 447 0 q 237 47 326 0 q 98 174 147 93 q 49 354 49 254 q 94 550 49 467 q 219 679 140 633 q 399 725 299 725 q 592 675 518 725 q 701 541 667 625 q 736 354 736 457 q 735 322 736 340 q 731 293 733 303 l 251 293 q 290 221 263 250 q 358 177 317 192 q 450 163 399 163 l 647 163 l 647 0 l 447 0 m 250 421 l 546 421 q 536 470 543 447 q 517 511 529 493 q 488 542 504 529 q 449 561 471 554 q 400 568 426 568 q 338 556 365 568 q 293 522 311 543 q 265 475 275 501 q 250 421 254 449 m 186 810 l 186 932 l 603 932 l 603 810 l 186 810 z "},"ę":{"ha":781,"x_min":49,"x_max":736,"o":"m 660 -303 q 531 -263 585 -303 q 478 -143 478 -224 q 498 -74 478 -111 q 547 -2 518 -37 q 603 63 575 33 q 647 107 631 92 l 647 53 l 647 0 q 623 -38 635 -18 q 603 -76 611 -58 q 596 -111 596 -94 q 618 -165 596 -144 q 672 -186 640 -186 q 703 -183 688 -186 q 732 -175 718 -181 l 732 -293 q 697 -300 718 -297 q 660 -303 675 -303 m 447 0 q 237 47 326 0 q 98 174 147 93 q 49 354 49 254 q 94 550 49 467 q 219 679 140 633 q 399 725 299 725 q 592 675 518 725 q 701 541 667 625 q 736 354 736 457 q 735 322 736 340 q 731 293 733 303 l 251 293 q 290 221 263 250 q 358 177 317 192 q 450 163 399 163 l 647 163 l 647 0 l 447 0 m 250 421 l 546 421 q 536 470 543 447 q 517 511 529 493 q 488 542 504 529 q 449 561 471 554 q 400 568 426 568 q 338 556 365 568 q 293 522 311 543 q 265 475 275 501 q 250 421 254 449 z "},"ẽ":{"ha":781,"x_min":49,"x_max":736,"o":"m 447 0 q 237 47 326 0 q 98 174 147 93 q 49 354 49 254 q 94 550 49 467 q 219 679 140 633 q 399 725 299 725 q 592 675 518 725 q 701 541 667 625 q 736 354 736 457 q 735 322 736 340 q 731 293 733 303 l 251 293 q 290 221 263 250 q 358 177 317 192 q 450 163 399 163 l 647 163 l 647 0 l 447 0 m 250 421 l 546 421 q 536 470 543 447 q 517 511 529 493 q 488 542 504 529 q 449 561 471 554 q 400 568 426 568 q 338 556 365 568 q 293 522 311 543 q 265 475 275 501 q 250 421 254 449 m 493 788 q 431 796 456 788 q 392 817 407 804 q 363 842 376 831 q 340 860 350 853 q 318 867 329 867 q 299 859 307 867 q 290 839 290 851 l 290 801 l 174 801 l 174 836 q 216 944 174 901 q 325 986 258 986 q 402 967 372 986 q 453 932 432 947 q 477 915 465 922 q 500 907 489 907 q 519 914 511 907 q 528 935 528 921 l 528 972 l 644 972 l 644 938 q 602 830 644 872 q 493 788 560 788 z "},"ə":{"ha":783,"x_min":49,"x_max":736,"o":"m 338 708 q 548 662 458 708 q 687 535 638 615 q 736 354 736 454 q 690 158 736 242 q 565 29 644 75 q 386 -17 486 -17 q 192 33 267 -17 q 83 167 118 83 q 49 354 49 251 q 50 387 49 368 q 54 415 51 406 l 533 415 q 495 488 522 458 q 427 531 468 517 q 335 546 386 546 l 138 546 l 138 708 l 338 708 m 535 288 l 239 288 q 249 238 242 261 q 268 197 256 215 q 297 167 281 179 q 336 147 314 154 q 385 140 358 140 q 447 153 419 140 q 492 186 474 165 q 520 233 510 207 q 535 288 531 260 z "},"f":{"ha":568,"x_min":14,"x_max":540,"o":"m 138 0 l 138 546 l 14 546 l 14 708 l 138 708 l 138 813 q 191 960 138 907 q 339 1014 244 1014 l 540 1014 l 540 851 l 372 851 q 341 839 354 851 q 328 807 328 826 l 328 708 l 510 708 l 510 546 l 328 546 l 328 0 l 138 0 z "},"g":{"ha":879,"x_min":49,"x_max":796,"o":"m 197 -282 l 197 -119 l 561 -119 q 593 -106 581 -119 q 606 -75 606 -93 l 606 99 l 604 99 q 539 40 572 63 q 467 8 506 18 q 383 -3 429 -3 q 213 42 289 -3 q 93 169 138 88 q 49 360 49 251 q 92 545 49 463 q 219 676 136 628 q 422 725 303 725 q 621 678 538 725 q 750 544 704 631 q 796 340 796 458 l 796 -81 q 742 -228 796 -174 q 594 -282 689 -282 l 197 -282 m 422 160 q 519 186 479 160 q 581 256 560 213 q 603 354 603 300 q 581 460 603 413 q 519 535 560 507 q 422 563 479 563 q 326 535 367 563 q 263 463 285 508 q 242 360 242 417 q 263 259 242 304 q 326 187 285 214 q 422 160 367 160 z "},"ğ":{"ha":879,"x_min":49,"x_max":796,"o":"m 197 -282 l 197 -119 l 561 -119 q 593 -106 581 -119 q 606 -75 606 -93 l 606 99 l 604 99 q 539 40 572 63 q 467 8 506 18 q 383 -3 429 -3 q 213 42 289 -3 q 93 169 138 88 q 49 360 49 251 q 92 545 49 463 q 219 676 136 628 q 422 725 303 725 q 621 678 538 725 q 750 544 704 631 q 796 340 796 458 l 796 -81 q 742 -228 796 -174 q 594 -282 689 -282 l 197 -282 m 422 160 q 519 186 479 160 q 581 256 560 213 q 603 354 603 300 q 581 460 603 413 q 519 535 560 507 q 422 563 479 563 q 326 535 367 563 q 263 463 285 508 q 242 360 242 417 q 263 259 242 304 q 326 187 285 214 q 422 160 367 160 m 472 792 q 381 816 422 792 q 316 881 340 840 q 292 972 292 922 l 400 972 q 421 920 400 942 q 472 899 442 899 q 525 920 504 899 q 546 972 546 942 l 651 972 q 627 881 651 922 q 563 816 603 840 q 472 792 522 792 z "},"ǧ":{"ha":879,"x_min":49,"x_max":796,"o":"m 197 -282 l 197 -119 l 561 -119 q 593 -106 581 -119 q 606 -75 606 -93 l 606 99 l 604 99 q 539 40 572 63 q 467 8 506 18 q 383 -3 429 -3 q 213 42 289 -3 q 93 169 138 88 q 49 360 49 251 q 92 545 49 463 q 219 676 136 628 q 422 725 303 725 q 621 678 538 725 q 750 544 704 631 q 796 340 796 458 l 796 -81 q 742 -228 796 -174 q 594 -282 689 -282 l 197 -282 m 422 160 q 519 186 479 160 q 581 256 560 213 q 603 354 603 300 q 581 460 603 413 q 519 535 560 507 q 422 563 479 563 q 326 535 367 563 q 263 463 285 508 q 242 360 242 417 q 263 259 242 304 q 326 187 285 214 q 422 160 367 160 m 338 801 l 221 972 l 375 972 l 439 878 l 504 972 l 658 972 l 542 801 l 338 801 z "},"ĝ":{"ha":879,"x_min":49,"x_max":796,"o":"m 197 -282 l 197 -119 l 561 -119 q 593 -106 581 -119 q 606 -75 606 -93 l 606 99 l 604 99 q 539 40 572 63 q 467 8 506 18 q 383 -3 429 -3 q 213 42 289 -3 q 93 169 138 88 q 49 360 49 251 q 92 545 49 463 q 219 676 136 628 q 422 725 303 725 q 621 678 538 725 q 750 544 704 631 q 796 340 796 458 l 796 -81 q 742 -228 796 -174 q 594 -282 689 -282 l 197 -282 m 422 160 q 519 186 479 160 q 581 256 560 213 q 603 354 603 300 q 581 460 603 413 q 519 535 560 507 q 422 563 479 563 q 326 535 367 563 q 263 463 285 508 q 242 360 242 417 q 263 259 242 304 q 326 187 285 214 q 422 160 367 160 m 221 801 l 338 972 l 542 972 l 658 801 l 504 801 l 439 896 l 375 801 l 221 801 z "},"ģ":{"ha":879,"x_min":49,"x_max":796,"o":"m 197 -282 l 197 -119 l 561 -119 q 593 -106 581 -119 q 606 -75 606 -93 l 606 99 l 604 99 q 539 40 572 63 q 467 8 506 18 q 383 -3 429 -3 q 213 42 289 -3 q 93 169 138 88 q 49 360 49 251 q 92 545 49 463 q 219 676 136 628 q 422 725 303 725 q 621 678 538 725 q 750 544 704 631 q 796 340 796 458 l 796 -81 q 742 -228 796 -174 q 594 -282 689 -282 l 197 -282 m 422 160 q 519 186 479 160 q 581 256 560 213 q 603 354 603 300 q 581 460 603 413 q 519 535 560 507 q 422 563 479 563 q 326 535 367 563 q 263 463 285 508 q 242 360 242 417 q 263 259 242 304 q 326 187 285 214 q 422 160 367 160 z "},"ġ":{"ha":879,"x_min":49,"x_max":796,"o":"m 197 -282 l 197 -119 l 561 -119 q 593 -106 581 -119 q 606 -75 606 -93 l 606 99 l 604 99 q 539 40 572 63 q 467 8 506 18 q 383 -3 429 -3 q 213 42 289 -3 q 93 169 138 88 q 49 360 49 251 q 92 545 49 463 q 219 676 136 628 q 422 725 303 725 q 621 678 538 725 q 750 544 704 631 q 796 340 796 458 l 796 -81 q 742 -228 796 -174 q 594 -282 689 -282 l 197 -282 m 422 160 q 519 186 479 160 q 581 256 560 213 q 603 354 603 300 q 581 460 603 413 q 519 535 560 507 q 422 563 479 563 q 326 535 367 563 q 263 463 285 508 q 242 360 242 417 q 263 259 242 304 q 326 187 285 214 q 422 160 367 160 m 425 793 q 341 828 376 793 q 306 913 306 864 q 341 997 306 961 q 425 1032 376 1032 q 509 997 474 1032 q 544 913 544 961 q 509 828 544 864 q 425 793 474 793 z "},"h":{"ha":872,"x_min":90,"x_max":782,"o":"m 90 0 l 90 1014 l 281 1014 l 281 658 q 376 710 325 694 q 478 725 428 725 q 648 682 581 725 q 749 567 715 639 q 782 407 782 494 l 782 0 l 592 0 l 592 407 q 571 485 592 450 q 515 542 550 521 q 436 563 479 563 q 359 542 394 563 q 302 488 324 522 q 281 413 281 454 l 281 0 l 90 0 z "},"ħ":{"ha":872,"x_min":7,"x_max":782,"o":"m 7 801 l 7 911 l 551 911 l 551 801 l 7 801 m 90 0 l 90 1014 l 281 1014 l 281 658 q 376 710 325 694 q 478 725 428 725 q 648 682 581 725 q 749 567 715 639 q 782 407 782 494 l 782 0 l 592 0 l 592 407 q 571 485 592 450 q 515 542 550 521 q 436 563 479 563 q 359 542 394 563 q 302 488 324 522 q 281 413 281 454 l 281 0 l 90 0 z "},"ĥ":{"ha":872,"x_min":-36,"x_max":782,"o":"m 90 0 l 90 1014 l 281 1014 l 281 658 q 376 710 325 694 q 478 725 428 725 q 648 682 581 725 q 749 567 715 639 q 782 407 782 494 l 782 0 l 592 0 l 592 407 q 571 485 592 450 q 515 542 550 521 q 436 563 479 563 q 359 542 394 563 q 302 488 324 522 q 281 413 281 454 l 281 0 l 90 0 z "},"i":{"ha":371,"x_min":67,"x_max":306,"o":"m 90 0 l 90 708 l 282 708 l 282 0 l 90 0 m 186 793 q 102 828 138 793 q 67 913 67 864 q 102 997 67 961 q 186 1032 138 1032 q 270 997 235 1032 q 306 913 306 961 q 270 828 306 864 q 186 793 235 793 z "},"ı":{"ha":371,"x_min":90,"x_max":282,"o":"m 90 0 l 90 708 l 282 708 l 282 0 l 90 0 z "},"í":{"ha":371,"x_min":81,"x_max":376,"o":"m 90 0 l 90 708 l 282 708 l 282 0 l 90 0 m 81 801 l 197 972 l 376 972 l 260 801 l 81 801 z "},"ĭ":{"ha":371,"x_min":38,"x_max":397,"o":"m 90 0 l 90 708 l 282 708 l 282 0 l 90 0 m 218 792 q 127 816 168 792 q 62 881 86 840 q 38 972 38 922 l 146 972 q 167 920 146 942 q 218 899 188 899 q 271 920 250 899 q 292 972 292 942 l 397 972 q 373 881 397 922 q 308 816 349 840 q 218 792 268 792 z "},"ǐ":{"ha":371,"x_min":-33,"x_max":404,"o":"m 90 0 l 90 708 l 282 708 l 282 0 l 90 0 m 83 801 l -33 972 l 121 972 l 185 878 l 250 972 l 404 972 l 288 801 l 83 801 z "},"î":{"ha":371,"x_min":-33,"x_max":404,"o":"m 90 0 l 90 708 l 282 708 l 282 0 l 90 0 m -33 801 l 83 972 l 288 972 l 404 801 l 250 801 l 185 896 l 121 801 l -33 801 z "},"ȉ":{"ha":371,"x_min":-126,"x_max":414,"o":"m 90 0 l 90 708 l 282 708 l 282 0 l 90 0 m 254 801 l 121 996 l 281 996 l 414 801 l 254 801 m 7 801 l -126 996 l 33 996 l 167 801 l 7 801 z "},"ï":{"ha":371,"x_min":-61,"x_max":432,"o":"m 90 0 l 90 708 l 282 708 l 282 0 l 90 0 z "},"ị":{"ha":371,"x_min":67,"x_max":307,"o":"m 90 0 l 90 708 l 282 708 l 282 0 l 90 0 m 186 793 q 102 828 138 793 q 67 913 67 864 q 102 997 67 961 q 186 1032 138 1032 q 270 997 235 1032 q 306 913 306 961 q 270 828 306 864 q 186 793 235 793 z "},"ì":{"ha":371,"x_min":-12,"x_max":283,"o":"m 90 0 l 90 708 l 282 708 l 282 0 l 90 0 m 104 801 l -12 972 l 167 972 l 283 801 l 104 801 z "},"ỉ":{"ha":371,"x_min":78,"x_max":332,"o":"m 90 0 l 90 708 l 282 708 l 282 0 l 90 0 m 124 792 l 124 847 q 169 854 149 847 q 201 874 189 861 q 214 901 214 886 q 200 928 214 918 q 146 938 186 938 q 108 935 124 938 q 78 926 93 932 l 78 1043 q 116 1051 93 1047 q 165 1054 139 1054 q 289 1026 246 1054 q 332 944 332 999 q 297 859 332 893 q 213 808 263 825 q 124 792 164 792 z "},"ȋ":{"ha":371,"x_min":8,"x_max":368,"o":"m 90 0 l 90 708 l 282 708 l 282 0 l 90 0 m 186 793 q 102 828 138 793 q 67 913 67 864 q 102 997 67 961 q 186 1032 138 1032 q 270 997 235 1032 q 306 913 306 961 q 270 828 306 864 q 186 793 235 793 z "},"ĳ":{"ha":742,"x_min":67,"x_max":675,"o":"m 90 0 l 90 708 l 282 708 l 282 0 l 90 0 m 186 793 q 102 828 138 793 q 67 913 67 864 q 102 997 67 961 q 186 1032 138 1032 q 270 997 235 1032 q 306 913 306 961 q 270 828 306 864 q 186 793 235 793 z "},"ī":{"ha":371,"x_min":-36,"x_max":381,"o":"m 90 0 l 90 708 l 282 708 l 282 0 l 90 0 m -36 810 l -36 932 l 381 932 l 381 810 l -36 810 z "},"į":{"ha":371,"x_min":25,"x_max":306,"o":"m 207 -303 q 78 -264 132 -303 q 25 -144 25 -225 q 48 -63 25 -107 q 101 21 71 -19 q 156 88 132 61 q 185 119 181 115 l 233 92 q 216 65 231 88 q 185 12 201 43 q 156 -52 168 -19 q 143 -111 143 -85 q 165 -165 143 -144 q 219 -186 188 -186 q 250 -183 235 -186 q 279 -175 265 -181 l 279 -293 q 244 -300 265 -297 q 207 -303 222 -303 m 90 0 l 90 708 l 282 708 l 282 0 l 90 0 m 186 793 q 102 828 138 793 q 67 913 67 864 q 102 997 67 961 q 186 1032 138 1032 q 270 997 235 1032 q 306 913 306 961 q 270 828 306 864 q 186 793 235 793 z "},"ĩ":{"ha":371,"x_min":-50,"x_max":421,"o":"m 90 0 l 90 708 l 282 708 l 282 0 l 90 0 m 269 788 q 208 796 232 788 q 168 817 183 804 q 139 842 153 831 q 116 860 126 853 q 94 867 106 867 q 75 859 83 867 q 67 839 67 851 l 67 801 l -50 801 l -50 836 q -8 944 -50 901 q 101 986 35 986 q 178 967 149 986 q 229 932 208 947 q 253 915 242 922 q 276 907 265 907 q 296 914 288 907 q 304 935 304 921 l 304 972 l 421 972 l 421 938 q 378 830 421 872 q 269 788 336 788 z "},"j":{"ha":371,"x_min":-107,"x_max":304,"o":"m -107 -282 l -107 -119 l 47 -119 q 79 -106 67 -119 q 92 -75 92 -93 l 92 708 l 282 708 l 282 -81 q 228 -228 282 -174 q 81 -282 175 -282 l -107 -282 m 185 794 q 101 830 136 794 q 65 914 65 865 q 101 998 65 963 q 185 1033 136 1033 q 269 998 233 1033 q 304 914 304 963 q 269 830 304 865 q 185 794 233 794 z "},"ȷ":{"ha":371,"x_min":-107,"x_max":282,"o":"m -107 -282 l -107 -119 l 47 -119 q 79 -106 67 -119 q 92 -75 92 -93 l 92 708 l 282 708 l 282 -81 q 228 -228 282 -174 q 81 -282 175 -282 l -107 -282 z "},"ĵ":{"ha":371,"x_min":-107,"x_max":404,"o":"m -107 -282 l -107 -119 l 47 -119 q 79 -106 67 -119 q 92 -75 92 -93 l 92 708 l 282 708 l 282 -81 q 228 -228 282 -174 q 81 -282 175 -282 l -107 -282 m 185 794 q 101 830 136 794 q 65 914 65 865 q 101 998 65 963 q 185 1033 136 1033 q 269 998 233 1033 q 304 914 304 963 q 269 830 304 865 q 185 794 233 794 m -33 1071 l 83 1242 l 288 1242 l 404 1071 l 250 1071 l 185 1165 l 121 1071 l -33 1071 z "},"k":{"ha":831,"x_min":90,"x_max":772,"o":"m 90 0 l 90 1014 l 281 1014 l 281 438 l 393 438 l 564 708 l 772 708 l 578 408 q 718 293 668 371 q 768 119 768 215 l 768 0 l 578 0 l 578 119 q 556 198 578 163 q 500 254 535 233 q 422 275 465 275 l 281 275 l 281 0 l 90 0 z "},"ķ":{"ha":831,"x_min":90,"x_max":772,"o":"m 90 0 l 90 1014 l 281 1014 l 281 438 l 393 438 l 564 708 l 772 708 l 578 408 q 718 293 668 371 q 768 119 768 215 l 768 0 l 578 0 l 578 119 q 556 198 578 163 q 500 254 535 233 q 422 275 465 275 l 281 275 l 281 0 l 90 0 m 322 -422 l 374 -275 q 322 -233 339 -264 q 306 -172 306 -203 q 338 -97 306 -128 q 414 -67 369 -67 q 493 -101 464 -67 q 522 -179 522 -135 q 500 -272 522 -217 l 439 -422 l 322 -422 z "},"ĸ":{"ha":831,"x_min":90,"x_max":782,"o":"m 90 0 l 90 708 l 281 708 l 281 438 l 390 438 l 471 576 q 530 655 500 626 q 599 696 560 683 q 693 708 638 708 l 782 708 l 782 546 l 732 546 q 680 538 704 546 q 637 512 656 529 q 604 468 618 494 l 575 410 q 717 296 665 374 q 768 119 768 218 l 768 0 l 578 0 l 578 119 q 556 198 578 163 q 500 254 535 233 q 422 275 465 275 l 281 275 l 281 0 l 90 0 z "},"l":{"ha":371,"x_min":90,"x_max":281,"o":"m 90 0 l 90 1014 l 281 1014 l 281 0 l 90 0 z "},"ĺ":{"ha":363,"x_min":82,"x_max":378,"o":"m 90 0 l 90 1014 l 281 1014 l 281 0 l 90 0 m 82 1051 l 199 1222 l 378 1222 l 261 1051 l 82 1051 z "},"ľ":{"ha":554,"x_min":90,"x_max":558,"o":"m 90 0 l 90 1014 l 281 1014 l 281 0 l 90 0 m 358 665 l 410 813 q 358 854 375 824 q 342 915 342 885 q 374 990 342 960 q 450 1021 406 1021 q 529 987 500 1021 q 558 908 558 953 q 536 815 558 871 l 475 665 l 358 665 z "},"ļ":{"ha":363,"x_min":69,"x_max":286,"o":"m 90 0 l 90 1014 l 281 1014 l 281 0 l 90 0 m 86 -424 l 138 -276 q 86 -235 103 -265 q 69 -174 69 -204 q 101 -99 69 -129 q 178 -68 133 -68 q 257 -102 228 -68 q 286 -181 286 -136 q 264 -274 286 -218 l 203 -424 l 86 -424 z "},"ŀ":{"ha":554,"x_min":90,"x_max":576,"o":"m 90 0 l 90 1014 l 281 1014 l 281 0 l 90 0 m 457 464 q 373 499 408 464 q 338 583 338 535 q 373 667 338 632 q 457 703 408 703 q 541 667 506 703 q 576 583 576 632 q 541 499 576 535 q 457 464 506 464 z "},"ǉ":{"ha":742,"x_min":90,"x_max":675,"o":"m 90 0 l 90 1014 l 281 1014 l 281 0 l 90 0 m 264 -282 l 264 -119 l 418 -119 q 450 -106 438 -119 q 463 -75 463 -93 l 463 708 l 653 708 l 653 -81 q 599 -228 653 -174 q 451 -282 546 -282 l 264 -282 m 556 794 q 472 830 507 794 q 436 914 436 865 q 472 998 436 963 q 556 1033 507 1033 q 640 998 604 1033 q 675 914 675 963 q 640 830 675 865 q 556 794 604 794 z "},"ł":{"ha":371,"x_min":0,"x_max":371,"o":"m 0 419 l 0 529 l 371 660 l 371 550 l 0 419 m 90 0 l 90 1014 l 281 1014 l 281 0 l 90 0 z "},"m":{"ha":1346,"x_min":90,"x_max":1256,"o":"m 90 0 l 90 421 q 131 574 90 504 q 247 684 171 643 q 429 725 322 725 q 524 713 481 725 q 606 679 568 701 q 671 626 643 657 l 672 626 q 739 679 701 657 q 821 713 776 701 q 917 725 865 725 q 1099 684 1024 725 q 1215 574 1175 643 q 1256 421 1256 504 l 1256 0 l 1065 0 l 1065 421 q 1045 492 1065 460 q 992 543 1025 524 q 917 563 958 563 q 842 543 876 563 q 788 492 808 524 q 768 421 768 460 l 768 0 l 578 0 l 578 421 q 558 492 578 460 q 504 543 538 524 q 429 563 471 563 q 355 543 389 563 q 301 492 321 524 q 281 421 281 460 l 281 0 l 90 0 z "},"n":{"ha":872,"x_min":90,"x_max":782,"o":"m 90 0 l 90 407 q 131 567 90 494 q 250 682 172 639 q 436 725 328 725 q 623 682 546 725 q 741 567 700 639 q 782 407 782 494 l 782 0 l 592 0 l 592 407 q 571 485 592 450 q 515 542 550 521 q 436 563 479 563 q 358 542 393 563 q 301 485 322 521 q 281 407 281 450 l 281 0 l 90 0 z "},"ń":{"ha":871,"x_min":90,"x_max":782,"o":"m 90 0 l 90 407 q 131 567 90 494 q 250 682 172 639 q 436 725 328 725 q 623 682 546 725 q 741 567 700 639 q 782 407 782 494 l 782 0 l 592 0 l 592 407 q 571 485 592 450 q 515 542 550 521 q 436 563 479 563 q 358 542 393 563 q 301 485 322 521 q 281 407 281 450 l 281 0 l 90 0 m 343 801 l 460 972 l 639 972 l 522 801 l 343 801 z "},"ŉ":{"ha":978,"x_min":-36,"x_max":889,"o":"m 197 0 l 197 407 q 238 567 197 494 q 357 682 279 639 q 543 725 435 725 q 730 682 653 725 q 848 567 807 639 q 889 407 889 494 l 889 0 l 699 0 l 699 407 q 678 485 699 450 q 622 542 657 521 q 543 563 586 563 q 465 542 500 563 q 408 485 429 521 q 388 407 388 450 l 388 0 l 197 0 z "},"ň":{"ha":871,"x_min":90,"x_max":782,"o":"m 90 0 l 90 407 q 131 567 90 494 q 250 682 172 639 q 436 725 328 725 q 623 682 546 725 q 741 567 700 639 q 782 407 782 494 l 782 0 l 592 0 l 592 407 q 571 485 592 450 q 515 542 550 521 q 436 563 479 563 q 358 542 393 563 q 301 485 322 521 q 281 407 281 450 l 281 0 l 90 0 m 333 801 l 217 972 l 371 972 l 435 878 l 500 972 l 654 972 l 538 801 l 333 801 z "},"ņ":{"ha":871,"x_min":90,"x_max":782,"o":"m 90 0 l 90 407 q 131 567 90 494 q 250 682 172 639 q 436 725 328 725 q 623 682 546 725 q 741 567 700 639 q 782 407 782 494 l 782 0 l 592 0 l 592 407 q 571 485 592 450 q 515 542 550 521 q 436 563 479 563 q 358 542 393 563 q 301 485 322 521 q 281 407 281 450 l 281 0 l 90 0 m 350 -422 l 401 -275 q 350 -233 367 -264 q 333 -172 333 -203 q 365 -97 333 -128 q 442 -67 397 -67 q 521 -101 492 -67 q 550 -179 550 -135 q 528 -272 550 -217 l 467 -422 l 350 -422 z "},"ŋ":{"ha":871,"x_min":90,"x_max":782,"o":"m 393 -282 l 393 -119 l 547 -119 q 579 -106 567 -119 q 592 -75 592 -93 l 592 407 q 571 485 592 450 q 515 542 550 521 q 436 563 479 563 q 358 542 393 563 q 301 485 322 521 q 281 407 281 450 l 281 0 l 90 0 l 90 407 q 131 567 90 494 q 250 682 172 639 q 436 725 328 725 q 623 682 546 725 q 741 567 700 639 q 782 407 782 494 l 782 -81 q 728 -228 782 -174 q 581 -282 675 -282 l 393 -282 z "},"ǌ":{"ha":1242,"x_min":90,"x_max":1175,"o":"m 90 0 l 90 407 q 131 567 90 494 q 250 682 172 639 q 436 725 328 725 q 623 682 546 725 q 741 567 700 639 q 782 407 782 494 l 782 0 l 592 0 l 592 407 q 571 485 592 450 q 515 542 550 521 q 436 563 479 563 q 358 542 393 563 q 301 485 322 521 q 281 407 281 450 l 281 0 l 90 0 m 764 -282 l 764 -119 l 918 -119 q 950 -106 938 -119 q 963 -75 963 -93 l 963 708 l 1153 708 l 1153 -81 q 1099 -228 1153 -174 q 951 -282 1046 -282 l 764 -282 m 1056 794 q 972 830 1007 794 q 936 914 936 865 q 972 998 936 963 q 1056 1033 1007 1033 q 1140 998 1104 1033 q 1175 914 1175 963 q 1140 830 1175 865 q 1056 794 1104 794 z "},"ñ":{"ha":872,"x_min":90,"x_max":782,"o":"m 90 0 l 90 407 q 131 567 90 494 q 250 682 172 639 q 436 725 328 725 q 623 682 546 725 q 741 567 700 639 q 782 407 782 494 l 782 0 l 592 0 l 592 407 q 571 485 592 450 q 515 542 550 521 q 436 563 479 563 q 358 542 393 563 q 301 485 322 521 q 281 407 281 450 l 281 0 l 90 0 m 519 789 q 458 797 482 789 q 418 819 433 806 q 389 843 403 832 q 366 861 376 854 q 344 868 356 868 q 325 860 333 868 q 317 840 317 853 l 317 803 l 200 803 l 200 838 q 242 945 200 903 q 351 988 285 988 q 428 968 399 988 q 479 933 458 949 q 503 916 492 924 q 526 908 515 908 q 546 915 538 908 q 554 936 554 922 l 554 974 l 671 974 l 671 939 q 628 831 671 874 q 519 789 586 789 z "},"o":{"ha":861,"x_min":49,"x_max":813,"o":"m 431 -17 q 235 33 321 -17 q 99 166 149 82 q 49 354 49 250 q 99 542 49 458 q 235 676 149 626 q 431 725 321 725 q 626 676 540 725 q 763 542 713 626 q 813 354 813 458 q 763 166 813 250 q 626 33 713 82 q 431 -17 540 -17 m 431 146 q 531 174 489 146 q 597 249 574 201 q 619 354 619 296 q 597 460 619 413 q 531 535 574 507 q 431 563 489 563 q 330 535 372 563 q 265 460 288 507 q 242 354 242 413 q 265 249 242 296 q 330 174 288 201 q 431 146 372 146 z "},"ó":{"ha":861,"x_min":49,"x_max":813,"o":"m 431 -17 q 235 33 321 -17 q 99 166 149 82 q 49 354 49 250 q 99 542 49 458 q 235 676 149 626 q 431 725 321 725 q 626 676 540 725 q 763 542 713 626 q 813 354 813 458 q 763 166 813 250 q 626 33 713 82 q 431 -17 540 -17 m 431 146 q 531 174 489 146 q 597 249 574 201 q 619 354 619 296 q 597 460 619 413 q 531 535 574 507 q 431 563 489 563 q 330 535 372 563 q 265 460 288 507 q 242 354 242 413 q 265 249 242 296 q 330 174 288 201 q 431 146 372 146 m 339 801 l 456 972 l 635 972 l 518 801 l 339 801 z "},"ŏ":{"ha":861,"x_min":49,"x_max":813,"o":"m 431 -17 q 235 33 321 -17 q 99 166 149 82 q 49 354 49 250 q 99 542 49 458 q 235 676 149 626 q 431 725 321 725 q 626 676 540 725 q 763 542 713 626 q 813 354 813 458 q 763 166 813 250 q 626 33 713 82 q 431 -17 540 -17 m 431 146 q 531 174 489 146 q 597 249 574 201 q 619 354 619 296 q 597 460 619 413 q 531 535 574 507 q 431 563 489 563 q 330 535 372 563 q 265 460 288 507 q 242 354 242 413 q 265 249 242 296 q 330 174 288 201 q 431 146 372 146 m 464 792 q 373 816 414 792 q 308 881 332 840 q 283 972 283 922 l 392 972 q 413 920 392 942 q 464 899 433 899 q 517 920 496 899 q 538 972 538 942 l 643 972 q 619 881 643 922 q 554 816 594 840 q 464 792 514 792 z "},"ǒ":{"ha":861,"x_min":49,"x_max":813,"o":"m 431 -17 q 235 33 321 -17 q 99 166 149 82 q 49 354 49 250 q 99 542 49 458 q 235 676 149 626 q 431 725 321 725 q 626 676 540 725 q 763 542 713 626 q 813 354 813 458 q 763 166 813 250 q 626 33 713 82 q 431 -17 540 -17 m 431 146 q 531 174 489 146 q 597 249 574 201 q 619 354 619 296 q 597 460 619 413 q 531 535 574 507 q 431 563 489 563 q 330 535 372 563 q 265 460 288 507 q 242 354 242 413 q 265 249 242 296 q 330 174 288 201 q 431 146 372 146 m 329 801 l 213 972 l 367 972 l 431 878 l 496 972 l 650 972 l 533 801 l 329 801 z "},"ô":{"ha":861,"x_min":49,"x_max":813,"o":"m 431 -17 q 235 33 321 -17 q 99 166 149 82 q 49 354 49 250 q 99 542 49 458 q 235 676 149 626 q 431 725 321 725 q 626 676 540 725 q 763 542 713 626 q 813 354 813 458 q 763 166 813 250 q 626 33 713 82 q 431 -17 540 -17 m 431 146 q 531 174 489 146 q 597 249 574 201 q 619 354 619 296 q 597 460 619 413 q 531 535 574 507 q 431 563 489 563 q 330 535 372 563 q 265 460 288 507 q 242 354 242 413 q 265 249 242 296 q 330 174 288 201 q 431 146 372 146 m 215 801 l 332 972 l 536 972 l 653 801 l 499 801 l 433 896 l 369 801 l 215 801 z "},"ố":{"ha":861,"x_min":49,"x_max":813,"o":"m 431 -17 q 235 33 321 -17 q 99 166 149 82 q 49 354 49 250 q 99 542 49 458 q 235 676 149 626 q 431 725 321 725 q 626 676 540 725 q 763 542 713 626 q 813 354 813 458 q 763 166 813 250 q 626 33 713 82 q 431 -17 540 -17 m 431 146 q 531 174 489 146 q 597 249 574 201 q 619 354 619 296 q 597 460 619 413 q 531 535 574 507 q 431 563 489 563 q 330 535 372 563 q 265 460 288 507 q 242 354 242 413 q 265 249 242 296 q 330 174 288 201 q 431 146 372 146 m 215 801 l 332 972 l 536 972 l 653 801 l 499 801 l 433 896 l 369 801 l 215 801 m 353 1051 l 469 1222 l 649 1222 l 532 1051 l 353 1051 z "},"ộ":{"ha":861,"x_min":49,"x_max":813,"o":"m 431 -17 q 235 33 321 -17 q 99 166 149 82 q 49 354 49 250 q 99 542 49 458 q 235 676 149 626 q 431 725 321 725 q 626 676 540 725 q 763 542 713 626 q 813 354 813 458 q 763 166 813 250 q 626 33 713 82 q 431 -17 540 -17 m 431 146 q 531 174 489 146 q 597 249 574 201 q 619 354 619 296 q 597 460 619 413 q 531 535 574 507 q 431 563 489 563 q 330 535 372 563 q 265 460 288 507 q 242 354 242 413 q 265 249 242 296 q 330 174 288 201 q 431 146 372 146 m 215 801 l 332 972 l 536 972 l 653 801 l 499 801 l 433 896 l 369 801 l 215 801 z "},"ồ":{"ha":861,"x_min":49,"x_max":813,"o":"m 431 -17 q 235 33 321 -17 q 99 166 149 82 q 49 354 49 250 q 99 542 49 458 q 235 676 149 626 q 431 725 321 725 q 626 676 540 725 q 763 542 713 626 q 813 354 813 458 q 763 166 813 250 q 626 33 713 82 q 431 -17 540 -17 m 431 146 q 531 174 489 146 q 597 249 574 201 q 619 354 619 296 q 597 460 619 413 q 531 535 574 507 q 431 563 489 563 q 330 535 372 563 q 265 460 288 507 q 242 354 242 413 q 265 249 242 296 q 330 174 288 201 q 431 146 372 146 m 215 801 l 332 972 l 536 972 l 653 801 l 499 801 l 433 896 l 369 801 l 215 801 m 344 1051 l 228 1222 l 407 1222 l 524 1051 l 344 1051 z "},"ổ":{"ha":861,"x_min":49,"x_max":813,"o":"m 431 -17 q 235 33 321 -17 q 99 166 149 82 q 49 354 49 250 q 99 542 49 458 q 235 676 149 626 q 431 725 321 725 q 626 676 540 725 q 763 542 713 626 q 813 354 813 458 q 763 166 813 250 q 626 33 713 82 q 431 -17 540 -17 m 431 146 q 531 174 489 146 q 597 249 574 201 q 619 354 619 296 q 597 460 619 413 q 531 535 574 507 q 431 563 489 563 q 330 535 372 563 q 265 460 288 507 q 242 354 242 413 q 265 249 242 296 q 330 174 288 201 q 431 146 372 146 m 215 801 l 332 972 l 536 972 l 653 801 l 499 801 l 433 896 l 369 801 l 215 801 m 371 1038 l 371 1093 q 416 1100 396 1093 q 449 1119 436 1107 q 461 1147 461 1132 q 447 1174 461 1164 q 393 1183 433 1183 q 356 1181 371 1183 q 325 1172 340 1178 l 325 1289 q 363 1297 340 1293 q 413 1300 386 1300 q 536 1272 493 1300 q 579 1190 579 1244 q 544 1105 579 1139 q 460 1054 510 1071 q 371 1038 411 1038 z "},"ỗ":{"ha":861,"x_min":49,"x_max":813,"o":"m 431 -17 q 235 33 321 -17 q 99 166 149 82 q 49 354 49 250 q 99 542 49 458 q 235 676 149 626 q 431 725 321 725 q 626 676 540 725 q 763 542 713 626 q 813 354 813 458 q 763 166 813 250 q 626 33 713 82 q 431 -17 540 -17 m 431 146 q 531 174 489 146 q 597 249 574 201 q 619 354 619 296 q 597 460 619 413 q 531 535 574 507 q 431 563 489 563 q 330 535 372 563 q 265 460 288 507 q 242 354 242 413 q 265 249 242 296 q 330 174 288 201 q 431 146 372 146 m 215 801 l 332 972 l 536 972 l 653 801 l 499 801 l 433 896 l 369 801 l 215 801 m 515 1038 q 453 1046 478 1038 q 414 1067 429 1054 q 385 1092 399 1081 q 362 1110 372 1103 q 340 1117 351 1117 q 321 1109 329 1117 q 313 1089 313 1101 l 313 1051 l 196 1051 l 196 1086 q 238 1194 196 1151 q 347 1236 281 1236 q 424 1217 394 1236 q 475 1182 454 1197 q 499 1165 488 1172 q 522 1157 511 1157 q 542 1164 533 1157 q 550 1185 550 1171 l 550 1222 l 667 1222 l 667 1188 q 624 1080 667 1122 q 515 1038 582 1038 z "},"ȍ":{"ha":861,"x_min":49,"x_max":813,"o":"m 431 -17 q 235 33 321 -17 q 99 166 149 82 q 49 354 49 250 q 99 542 49 458 q 235 676 149 626 q 431 725 321 725 q 626 676 540 725 q 763 542 713 626 q 813 354 813 458 q 763 166 813 250 q 626 33 713 82 q 431 -17 540 -17 m 431 146 q 531 174 489 146 q 597 249 574 201 q 619 354 619 296 q 597 460 619 413 q 531 535 574 507 q 431 563 489 563 q 330 535 372 563 q 265 460 288 507 q 242 354 242 413 q 265 249 242 296 q 330 174 288 201 q 431 146 372 146 m 500 801 l 367 996 l 526 996 l 660 801 l 500 801 m 253 801 l 119 996 l 279 996 l 413 801 l 253 801 z "},"ö":{"ha":861,"x_min":49,"x_max":813,"o":"m 431 -17 q 235 33 321 -17 q 99 166 149 82 q 49 354 49 250 q 99 542 49 458 q 235 676 149 626 q 431 725 321 725 q 626 676 540 725 q 763 542 713 626 q 813 354 813 458 q 763 166 813 250 q 626 33 713 82 q 431 -17 540 -17 m 431 146 q 531 174 489 146 q 597 249 574 201 q 619 354 619 296 q 597 460 619 413 q 531 535 574 507 q 431 563 489 563 q 330 535 372 563 q 265 460 288 507 q 242 354 242 413 q 265 249 242 296 q 330 174 288 201 q 431 146 372 146 z "},"ȫ":{"ha":861,"x_min":49,"x_max":813,"o":"m 431 -17 q 235 33 321 -17 q 99 166 149 82 q 49 354 49 250 q 99 542 49 458 q 235 676 149 626 q 431 725 321 725 q 626 676 540 725 q 763 542 713 626 q 813 354 813 458 q 763 166 813 250 q 626 33 713 82 q 431 -17 540 -17 m 431 146 q 531 174 489 146 q 597 249 574 201 q 619 354 619 296 q 597 460 619 413 q 531 535 574 507 q 431 563 489 563 q 330 535 372 563 q 265 460 288 507 q 242 354 242 413 q 265 249 242 296 q 330 174 288 201 q 431 146 372 146 m 208 1060 l 208 1182 l 625 1182 l 625 1060 l 208 1060 z "},"ȱ":{"ha":861,"x_min":49,"x_max":813,"o":"m 431 -17 q 235 33 321 -17 q 99 166 149 82 q 49 354 49 250 q 99 542 49 458 q 235 676 149 626 q 431 725 321 725 q 626 676 540 725 q 763 542 713 626 q 813 354 813 458 q 763 166 813 250 q 626 33 713 82 q 431 -17 540 -17 m 431 146 q 531 174 489 146 q 597 249 574 201 q 619 354 619 296 q 597 460 619 413 q 531 535 574 507 q 431 563 489 563 q 330 535 372 563 q 265 460 288 507 q 242 354 242 413 q 265 249 242 296 q 330 174 288 201 q 431 146 372 146 m 438 793 q 353 828 389 793 q 318 913 318 864 q 353 997 318 961 q 438 1032 389 1032 q 522 997 486 1032 q 557 913 557 961 q 522 828 557 864 q 438 793 486 793 m 226 1086 l 226 1208 l 643 1208 l 643 1086 l 226 1086 z "},"ọ":{"ha":861,"x_min":49,"x_max":813,"o":"m 431 -17 q 235 33 321 -17 q 99 166 149 82 q 49 354 49 250 q 99 542 49 458 q 235 676 149 626 q 431 725 321 725 q 626 676 540 725 q 763 542 713 626 q 813 354 813 458 q 763 166 813 250 q 626 33 713 82 q 431 -17 540 -17 m 431 146 q 531 174 489 146 q 597 249 574 201 q 619 354 619 296 q 597 460 619 413 q 531 535 574 507 q 431 563 489 563 q 330 535 372 563 q 265 460 288 507 q 242 354 242 413 q 265 249 242 296 q 330 174 288 201 q 431 146 372 146 z "},"ò":{"ha":861,"x_min":49,"x_max":813,"o":"m 431 -17 q 235 33 321 -17 q 99 166 149 82 q 49 354 49 250 q 99 542 49 458 q 235 676 149 626 q 431 725 321 725 q 626 676 540 725 q 763 542 713 626 q 813 354 813 458 q 763 166 813 250 q 626 33 713 82 q 431 -17 540 -17 m 431 146 q 531 174 489 146 q 597 249 574 201 q 619 354 619 296 q 597 460 619 413 q 531 535 574 507 q 431 563 489 563 q 330 535 372 563 q 265 460 288 507 q 242 354 242 413 q 265 249 242 296 q 330 174 288 201 q 431 146 372 146 m 367 801 l 250 972 l 429 972 l 546 801 l 367 801 z "},"ỏ":{"ha":861,"x_min":49,"x_max":813,"o":"m 431 -17 q 235 33 321 -17 q 99 166 149 82 q 49 354 49 250 q 99 542 49 458 q 235 676 149 626 q 431 725 321 725 q 626 676 540 725 q 763 542 713 626 q 813 354 813 458 q 763 166 813 250 q 626 33 713 82 q 431 -17 540 -17 m 431 146 q 531 174 489 146 q 597 249 574 201 q 619 354 619 296 q 597 460 619 413 q 531 535 574 507 q 431 563 489 563 q 330 535 372 563 q 265 460 288 507 q 242 354 242 413 q 265 249 242 296 q 330 174 288 201 q 431 146 372 146 m 368 789 l 368 844 q 413 851 393 844 q 446 871 433 858 q 458 899 458 883 q 444 925 458 915 q 390 935 431 935 q 353 932 368 935 q 322 924 338 929 l 322 1040 q 360 1048 338 1044 q 410 1051 383 1051 q 533 1024 490 1051 q 576 942 576 996 q 542 856 576 890 q 458 806 507 822 q 368 789 408 789 z "},"ơ":{"ha":861,"x_min":49,"x_max":813,"o":"m 431 -17 q 235 33 321 -17 q 99 166 149 82 q 49 354 49 250 q 99 542 49 458 q 235 676 149 626 q 431 725 321 725 q 626 676 540 725 q 763 542 713 626 q 813 354 813 458 q 763 166 813 250 q 626 33 713 82 q 431 -17 540 -17 m 431 146 q 531 174 489 146 q 597 249 574 201 q 619 354 619 296 q 597 460 619 413 q 531 535 574 507 q 431 563 489 563 q 330 535 372 563 q 265 460 288 507 q 242 354 242 413 q 265 249 242 296 q 330 174 288 201 q 431 146 372 146 m 564 583 l 564 685 l 608 685 q 642 699 631 685 q 653 731 653 714 l 653 801 l 808 801 l 808 725 q 767 618 808 653 q 638 583 725 583 l 564 583 z "},"ớ":{"ha":861,"x_min":49,"x_max":813,"o":"m 431 -17 q 235 33 321 -17 q 99 166 149 82 q 49 354 49 250 q 99 542 49 458 q 235 676 149 626 q 431 725 321 725 q 626 676 540 725 q 763 542 713 626 q 813 354 813 458 q 763 166 813 250 q 626 33 713 82 q 431 -17 540 -17 m 431 146 q 531 174 489 146 q 597 249 574 201 q 619 354 619 296 q 597 460 619 413 q 531 535 574 507 q 431 563 489 563 q 330 535 372 563 q 265 460 288 507 q 242 354 242 413 q 265 249 242 296 q 330 174 288 201 q 431 146 372 146 m 564 583 l 564 685 l 608 685 q 642 699 631 685 q 653 731 653 714 l 653 801 l 808 801 l 808 725 q 767 618 808 653 q 638 583 725 583 l 564 583 m 339 801 l 456 972 l 635 972 l 518 801 l 339 801 z "},"ợ":{"ha":861,"x_min":49,"x_max":813,"o":"m 431 -17 q 235 33 321 -17 q 99 166 149 82 q 49 354 49 250 q 99 542 49 458 q 235 676 149 626 q 431 725 321 725 q 626 676 540 725 q 763 542 713 626 q 813 354 813 458 q 763 166 813 250 q 626 33 713 82 q 431 -17 540 -17 m 431 146 q 531 174 489 146 q 597 249 574 201 q 619 354 619 296 q 597 460 619 413 q 531 535 574 507 q 431 563 489 563 q 330 535 372 563 q 265 460 288 507 q 242 354 242 413 q 265 249 242 296 q 330 174 288 201 q 431 146 372 146 m 564 583 l 564 685 l 608 685 q 642 699 631 685 q 653 731 653 714 l 653 801 l 808 801 l 808 725 q 767 618 808 653 q 638 583 725 583 l 564 583 z "},"ờ":{"ha":861,"x_min":49,"x_max":813,"o":"m 431 -17 q 235 33 321 -17 q 99 166 149 82 q 49 354 49 250 q 99 542 49 458 q 235 676 149 626 q 431 725 321 725 q 626 676 540 725 q 763 542 713 626 q 813 354 813 458 q 763 166 813 250 q 626 33 713 82 q 431 -17 540 -17 m 431 146 q 531 174 489 146 q 597 249 574 201 q 619 354 619 296 q 597 460 619 413 q 531 535 574 507 q 431 563 489 563 q 330 535 372 563 q 265 460 288 507 q 242 354 242 413 q 265 249 242 296 q 330 174 288 201 q 431 146 372 146 m 564 583 l 564 685 l 608 685 q 642 699 631 685 q 653 731 653 714 l 653 801 l 808 801 l 808 725 q 767 618 808 653 q 638 583 725 583 l 564 583 m 367 801 l 250 972 l 429 972 l 546 801 l 367 801 z "},"ở":{"ha":861,"x_min":49,"x_max":813,"o":"m 431 -17 q 235 33 321 -17 q 99 166 149 82 q 49 354 49 250 q 99 542 49 458 q 235 676 149 626 q 431 725 321 725 q 626 676 540 725 q 763 542 713 626 q 813 354 813 458 q 763 166 813 250 q 626 33 713 82 q 431 -17 540 -17 m 431 146 q 531 174 489 146 q 597 249 574 201 q 619 354 619 296 q 597 460 619 413 q 531 535 574 507 q 431 563 489 563 q 330 535 372 563 q 265 460 288 507 q 242 354 242 413 q 265 249 242 296 q 330 174 288 201 q 431 146 372 146 m 564 583 l 564 685 l 608 685 q 642 699 631 685 q 653 731 653 714 l 653 801 l 808 801 l 808 725 q 767 618 808 653 q 638 583 725 583 l 564 583 m 379 788 l 379 843 q 424 850 404 843 q 457 869 444 857 q 469 897 469 882 q 456 924 469 914 q 401 933 442 933 q 364 931 379 933 q 333 922 349 928 l 333 1039 q 372 1047 349 1043 q 421 1050 394 1050 q 544 1022 501 1050 q 588 940 588 994 q 553 855 588 889 q 469 804 518 821 q 379 788 419 788 z "},"ỡ":{"ha":861,"x_min":49,"x_max":813,"o":"m 431 -17 q 235 33 321 -17 q 99 166 149 82 q 49 354 49 250 q 99 542 49 458 q 235 676 149 626 q 431 725 321 725 q 626 676 540 725 q 763 542 713 626 q 813 354 813 458 q 763 166 813 250 q 626 33 713 82 q 431 -17 540 -17 m 431 146 q 531 174 489 146 q 597 249 574 201 q 619 354 619 296 q 597 460 619 413 q 531 535 574 507 q 431 563 489 563 q 330 535 372 563 q 265 460 288 507 q 242 354 242 413 q 265 249 242 296 q 330 174 288 201 q 431 146 372 146 m 564 583 l 564 685 l 608 685 q 642 699 631 685 q 653 731 653 714 l 653 801 l 808 801 l 808 725 q 767 618 808 653 q 638 583 725 583 l 564 583 m 515 788 q 453 796 478 788 q 414 817 429 804 q 385 842 399 831 q 362 860 372 853 q 340 867 351 867 q 321 859 329 867 q 313 839 313 851 l 313 801 l 196 801 l 196 836 q 238 944 196 901 q 347 986 281 986 q 424 967 394 986 q 475 932 454 947 q 499 915 488 922 q 522 907 511 907 q 542 914 533 907 q 550 935 550 921 l 550 972 l 667 972 l 667 938 q 624 830 667 872 q 515 788 582 788 z "},"ő":{"ha":861,"x_min":49,"x_max":813,"o":"m 431 -17 q 235 33 321 -17 q 99 166 149 82 q 49 354 49 250 q 99 542 49 458 q 235 676 149 626 q 431 725 321 725 q 626 676 540 725 q 763 542 713 626 q 813 354 813 458 q 763 166 813 250 q 626 33 713 82 q 431 -17 540 -17 m 431 146 q 531 174 489 146 q 597 249 574 201 q 619 354 619 296 q 597 460 619 413 q 531 535 574 507 q 431 563 489 563 q 330 535 372 563 q 265 460 288 507 q 242 354 242 413 q 265 249 242 296 q 330 174 288 201 q 431 146 372 146 m 471 801 l 588 972 l 747 972 l 631 801 l 471 801 m 224 801 l 340 972 l 500 972 l 383 801 l 224 801 z "},"ȏ":{"ha":861,"x_min":49,"x_max":813,"o":"m 431 -17 q 235 33 321 -17 q 99 166 149 82 q 49 354 49 250 q 99 542 49 458 q 235 676 149 626 q 431 725 321 725 q 626 676 540 725 q 763 542 713 626 q 813 354 813 458 q 763 166 813 250 q 626 33 713 82 q 431 -17 540 -17 m 431 146 q 531 174 489 146 q 597 249 574 201 q 619 354 619 296 q 597 460 619 413 q 531 535 574 507 q 431 563 489 563 q 330 535 372 563 q 265 460 288 507 q 242 354 242 413 q 265 249 242 296 q 330 174 288 201 q 431 146 372 146 z "},"ō":{"ha":861,"x_min":49,"x_max":813,"o":"m 431 -17 q 235 33 321 -17 q 99 166 149 82 q 49 354 49 250 q 99 542 49 458 q 235 676 149 626 q 431 725 321 725 q 626 676 540 725 q 763 542 713 626 q 813 354 813 458 q 763 166 813 250 q 626 33 713 82 q 431 -17 540 -17 m 431 146 q 531 174 489 146 q 597 249 574 201 q 619 354 619 296 q 597 460 619 413 q 531 535 574 507 q 431 563 489 563 q 330 535 372 563 q 265 460 288 507 q 242 354 242 413 q 265 249 242 296 q 330 174 288 201 q 431 146 372 146 m 208 810 l 208 932 l 625 932 l 625 810 l 208 810 z "},"ǫ":{"ha":861,"x_min":49,"x_max":813,"o":"m 431 -17 q 235 33 321 -17 q 99 166 149 82 q 49 354 49 250 q 99 542 49 458 q 235 676 149 626 q 431 725 321 725 q 626 676 540 725 q 763 542 713 626 q 813 354 813 458 q 763 166 813 250 q 626 33 713 82 q 431 -17 540 -17 m 431 146 q 531 174 489 146 q 597 249 574 201 q 619 354 619 296 q 597 460 619 413 q 531 535 574 507 q 431 563 489 563 q 330 535 372 563 q 265 460 288 507 q 242 354 242 413 q 265 249 242 296 q 330 174 288 201 q 431 146 372 146 m 676 -303 q 548 -264 601 -303 q 494 -144 494 -225 q 517 -63 494 -107 q 571 21 540 -19 q 626 88 601 61 q 654 119 650 115 l 703 92 q 685 65 700 88 q 654 12 671 43 q 625 -52 638 -19 q 613 -111 613 -85 q 635 -165 613 -144 q 689 -186 657 -186 q 719 -183 704 -186 q 749 -175 735 -181 l 749 -293 q 713 -300 735 -297 q 676 -303 692 -303 z "},"ø":{"ha":861,"x_min":19,"x_max":840,"o":"m 431 -17 q 320 -1 372 -17 q 224 40 268 14 l 186 0 l 19 0 l 131 121 q 70 228 92 168 q 49 354 49 288 q 99 542 49 458 q 235 676 149 626 q 431 725 321 725 q 542 710 489 725 q 638 669 594 696 l 674 708 l 840 708 l 731 589 q 791 482 769 542 q 813 354 813 422 q 763 166 813 250 q 626 33 713 82 q 431 -17 540 -17 m 431 146 q 531 174 489 146 q 597 249 574 201 q 619 354 619 296 q 615 404 619 381 q 601 449 610 428 l 340 168 q 383 152 360 158 q 431 146 406 146 m 260 260 l 519 542 q 478 558 501 553 q 431 563 456 563 q 330 535 372 563 q 265 460 288 507 q 242 354 242 413 q 246 305 242 328 q 260 260 250 282 z "},"ǿ":{"ha":861,"x_min":19,"x_max":840,"o":"m 339 801 l 456 972 l 635 972 l 518 801 l 339 801 m 431 -17 q 320 -1 372 -17 q 224 40 268 14 l 186 0 l 19 0 l 131 121 q 70 228 92 168 q 49 354 49 288 q 99 542 49 458 q 235 676 149 626 q 431 725 321 725 q 542 710 489 725 q 638 669 594 696 l 674 708 l 840 708 l 731 589 q 791 482 769 542 q 813 354 813 422 q 763 166 813 250 q 626 33 713 82 q 431 -17 540 -17 m 431 146 q 531 174 489 146 q 597 249 574 201 q 619 354 619 296 q 615 404 619 381 q 601 449 610 428 l 340 168 q 383 152 360 158 q 431 146 406 146 m 260 260 l 519 542 q 478 558 501 553 q 431 563 456 563 q 330 535 372 563 q 265 460 288 507 q 242 354 242 413 q 246 305 242 328 q 260 260 250 282 z "},"õ":{"ha":861,"x_min":49,"x_max":813,"o":"m 431 -17 q 235 33 321 -17 q 99 166 149 82 q 49 354 49 250 q 99 542 49 458 q 235 676 149 626 q 431 725 321 725 q 626 676 540 725 q 763 542 713 626 q 813 354 813 458 q 763 166 813 250 q 626 33 713 82 q 431 -17 540 -17 m 431 146 q 531 174 489 146 q 597 249 574 201 q 619 354 619 296 q 597 460 619 413 q 531 535 574 507 q 431 563 489 563 q 330 535 372 563 q 265 460 288 507 q 242 354 242 413 q 265 249 242 296 q 330 174 288 201 q 431 146 372 146 m 514 788 q 452 796 476 788 q 413 817 428 804 q 383 842 397 831 q 360 860 371 853 q 339 867 350 867 q 319 859 328 867 q 311 839 311 851 l 311 801 l 194 801 l 194 836 q 237 944 194 901 q 346 986 279 986 q 423 967 393 986 q 474 932 453 947 q 498 915 486 922 q 521 907 510 907 q 540 914 532 907 q 549 935 549 921 l 549 972 l 665 972 l 665 938 q 623 830 665 872 q 514 788 581 788 z "}}}
